<svg width="1112.767" height="837.237" viewBox="0 0 294.42 221.519" xmlns="http://www.w3.org/2000/svg"><path style="fill:#c8c8d9;fill-opacity:1;stroke:#9e9ebd;stroke-width:.964;stroke-linejoin:round;stroke-miterlimit:4;stroke-dasharray:none" d="m279.826 59.85-4.044 8.508-203.87-54.626c-.943-.253-1.93.013-2.211.596L6.193 145.648l4.892 11.744 203.88 54.63c.943.252 1.93-.013 2.211-.595L284.642 71.92c.116-.24.088-.492-.043-.726l.005-.004z" transform="translate(4.227 3.919)"/><path style="fill:#c8c8d9;fill-opacity:1;stroke:#9e9ebd;stroke-width:.963983" d="M67.02 1.989c-.943-.253-1.93.013-2.211.595L1.3 133.906l4.892 11.743 203.88 54.63c.943.252 1.93-.013 2.211-.595L279.75 60.178c.282-.583-.25-1.256-1.194-1.508z" transform="translate(4.227 3.919)"/><path style="fill:#6838a0;stroke:#9e9ebd;stroke-width:1.2" d="M36.391 158.093a6.78 6.78 0 0 1-6.78 6.78 6.78 6.78 0 0 1-6.78-6.78 6.78 6.78 0 0 1 6.78-6.78 6.78 6.78 0 0 1 6.78 6.78zM53.558 158.093a6.78 6.78 0 0 1-6.78 6.78 6.78 6.78 0 0 1-6.78-6.78 6.78 6.78 0 0 1 6.78-6.78 6.78 6.78 0 0 1 6.78 6.78zM70.724 158.093a6.78 6.78 0 0 1-6.78 6.78 6.78 6.78 0 0 1-6.78-6.78 6.78 6.78 0 0 1 6.78-6.78 6.78 6.78 0 0 1 6.78 6.78zM87.89 158.093a6.78 6.78 0 0 1-6.78 6.78 6.78 6.78 0 0 1-6.779-6.78 6.78 6.78 0 0 1 6.78-6.78 6.78 6.78 0 0 1 6.78 6.78zM105.057 158.093a6.78 6.78 0 0 1-6.78 6.78 6.78 6.78 0 0 1-6.78-6.78 6.78 6.78 0 0 1 6.78-6.78 6.78 6.78 0 0 1 6.78 6.78zM122.224 158.093a6.78 6.78 0 0 1-6.78 6.78 6.78 6.78 0 0 1-6.78-6.78 6.78 6.78 0 0 1 6.78-6.78 6.78 6.78 0 0 1 6.78 6.78zM139.39 158.093a6.78 6.78 0 0 1-6.78 6.78 6.78 6.78 0 0 1-6.78-6.78 6.78 6.78 0 0 1 6.78-6.78 6.78 6.78 0 0 1 6.78 6.78zM156.557 158.093a6.78 6.78 0 0 1-6.78 6.78 6.78 6.78 0 0 1-6.78-6.78 6.78 6.78 0 0 1 6.78-6.78 6.78 6.78 0 0 1 6.78 6.78zM173.723 158.093a6.78 6.78 0 0 1-6.78 6.78 6.78 6.78 0 0 1-6.78-6.78 6.78 6.78 0 0 1 6.78-6.78 6.78 6.78 0 0 1 6.78 6.78zM190.89 158.093a6.78 6.78 0 0 1-6.78 6.78 6.78 6.78 0 0 1-6.78-6.78 6.78 6.78 0 0 1 6.78-6.78 6.78 6.78 0 0 1 6.78 6.78zM208.056 158.093a6.78 6.78 0 0 1-6.78 6.78 6.78 6.78 0 0 1-6.78-6.78 6.78 6.78 0 0 1 6.78-6.78 6.78 6.78 0 0 1 6.78 6.78zM225.223 158.093a6.78 6.78 0 0 1-6.78 6.78 6.78 6.78 0 0 1-6.78-6.78 6.78 6.78 0 0 1 6.78-6.78 6.78 6.78 0 0 1 6.78 6.78z" transform="rotate(15 84.847 268.203) skewX(-10.808)"/><g aria-label="A B C D E F G H" style="font-size:14.1476px;line-height:1.25;font-family:Arial;-inkscape-font-specification:Arial;letter-spacing:0;fill:#26143a;stroke-width:.353691"><path d="m63.187 24.766 8.245-8.275 1.395.373-.485 10.355-1.475-.395.219-3.117-4.09-1.096-2.434 2.523zm4.666-3.056 3.316.89.222-2.845q.1-1.296.237-2.11-.619.842-1.384 1.63zM56.37 41.247l4.488-9.281 3.67.983q1.121.3 1.658.766.545.46.641 1.152.105.686-.204 1.325-.288.595-.882 1.03-.595.434-1.438.573.768.484.954 1.206.193.724-.2 1.535-.315.652-.88 1.137-.557.48-1.131.67-.574.189-1.298.174-.714-.02-1.648-.27zm3.897-5.034 2.115.566q.86.231 1.287.223.56-.006.964-.263.41-.255.645-.743.224-.462.159-.873-.062-.417-.435-.66-.37-.249-1.424-.531l-1.955-.524zm-2.073 4.286 2.436.652q.627.169.902.192.484.044.87-.053t.741-.38q.36-.29.574-.734.25-.519.154-.974-.093-.461-.52-.747-.418-.29-1.352-.541l-2.262-.606zM57.139 56.086l1.144.657q-1.139 1.404-2.585 1.917-1.437.51-2.965.1-1.582-.424-2.282-1.298-.69-.879-.65-2.177.046-1.296.689-2.626.7-1.45 1.802-2.37 1.11-.926 2.454-1.195 1.354-.274 2.648.073 1.468.393 2.126 1.37.658.978.43 2.369l-1.412-.057q.15-1.104-.274-1.74-.424-.635-1.405-.898-1.127-.302-2.136.007-1.002.31-1.729 1.096-.723.778-1.167 1.696-.572 1.184-.64 2.167-.06.979.497 1.621.556.643 1.45.882 1.088.292 2.13-.101 1.041-.394 1.875-1.493zM40.747 73.678l4.489-9.282 3.37.903q1.14.306 1.677.6.752.409 1.113 1.049.474.828.386 1.898-.079 1.066-.679 2.307-.511 1.058-1.166 1.805-.655.747-1.323 1.176-.664.423-1.301.602-.627.175-1.391.15-.757-.024-1.645-.262zm1.824-.749 2.089.56q.967.26 1.597.235.637-.023 1.114-.245.671-.314 1.28-.98.619-.671 1.127-1.722.704-1.456.574-2.371-.121-.92-.713-1.378-.429-.33-1.583-.639L46 65.84zM32.936 89.893l4.488-9.281 7.073 1.895-.53 1.095-5.778-1.548-1.375 2.842 5.412 1.45-.527 1.09-5.411-1.45-1.528 3.159 6.005 1.609-.53 1.095zM25.138 106.112l4.488-9.282 6.6 1.769-.53 1.095-5.305-1.421-1.39 2.874 4.591 1.23-.53 1.095-4.59-1.23-2.04 4.217zM23.571 119.888l.527-1.089 4.146 1.104-1.665 3.445q-1.303.466-2.495.561-1.189.09-2.257-.197-1.44-.386-2.34-1.285-.89-.904-.955-2.172-.064-1.27.597-2.637.655-1.355 1.816-2.367 1.17-1.017 2.566-1.286 1.397-.27 2.858.122 1.06.284 1.756.842.704.554.91 1.267.205.713.006 1.718l-1.315-.01q.123-.767-.008-1.26t-.622-.896q-.488-.41-1.229-.608-.887-.238-1.66-.152-.77.08-1.372.39-.596.313-1.058.754-.79.761-1.277 1.768-.6 1.24-.557 2.196.05.958.715 1.593.664.636 1.632.895.84.226 1.788.136.951-.095 1.533-.333l.836-1.728zM9.435 138.521l4.489-9.281 1.294.346-1.843 3.812 5.085 1.362 1.843-3.811 1.294.347-4.488 9.281-1.295-.346 2.116-4.375-5.085-1.363-2.115 4.375z"/></g><path style="fill:#6838a0;stroke:#9e9ebd;stroke-width:1.2" d="M36.391 158.093a6.78 6.78 0 0 1-6.78 6.78 6.78 6.78 0 0 1-6.78-6.78 6.78 6.78 0 0 1 6.78-6.78 6.78 6.78 0 0 1 6.78 6.78zM53.558 158.093a6.78 6.78 0 0 1-6.78 6.78 6.78 6.78 0 0 1-6.78-6.78 6.78 6.78 0 0 1 6.78-6.78 6.78 6.78 0 0 1 6.78 6.78zM70.724 158.093a6.78 6.78 0 0 1-6.78 6.78 6.78 6.78 0 0 1-6.78-6.78 6.78 6.78 0 0 1 6.78-6.78 6.78 6.78 0 0 1 6.78 6.78zM87.89 158.093a6.78 6.78 0 0 1-6.78 6.78 6.78 6.78 0 0 1-6.779-6.78 6.78 6.78 0 0 1 6.78-6.78 6.78 6.78 0 0 1 6.78 6.78zM105.057 158.093a6.78 6.78 0 0 1-6.78 6.78 6.78 6.78 0 0 1-6.78-6.78 6.78 6.78 0 0 1 6.78-6.78 6.78 6.78 0 0 1 6.78 6.78zM122.224 158.093a6.78 6.78 0 0 1-6.78 6.78 6.78 6.78 0 0 1-6.78-6.78 6.78 6.78 0 0 1 6.78-6.78 6.78 6.78 0 0 1 6.78 6.78zM139.39 158.093a6.78 6.78 0 0 1-6.78 6.78 6.78 6.78 0 0 1-6.78-6.78 6.78 6.78 0 0 1 6.78-6.78 6.78 6.78 0 0 1 6.78 6.78zM156.557 158.093a6.78 6.78 0 0 1-6.78 6.78 6.78 6.78 0 0 1-6.78-6.78 6.78 6.78 0 0 1 6.78-6.78 6.78 6.78 0 0 1 6.78 6.78zM173.723 158.093a6.78 6.78 0 0 1-6.78 6.78 6.78 6.78 0 0 1-6.78-6.78 6.78 6.78 0 0 1 6.78-6.78 6.78 6.78 0 0 1 6.78 6.78zM190.89 158.093a6.78 6.78 0 0 1-6.78 6.78 6.78 6.78 0 0 1-6.78-6.78 6.78 6.78 0 0 1 6.78-6.78 6.78 6.78 0 0 1 6.78 6.78zM208.056 158.093a6.78 6.78 0 0 1-6.78 6.78 6.78 6.78 0 0 1-6.78-6.78 6.78 6.78 0 0 1 6.78-6.78 6.78 6.78 0 0 1 6.78 6.78zM225.223 158.093a6.78 6.78 0 0 1-6.78 6.78 6.78 6.78 0 0 1-6.78-6.78 6.78 6.78 0 0 1 6.78-6.78 6.78 6.78 0 0 1 6.78 6.78z" transform="rotate(15 150.196 289.824) skewX(-10.808)"/><g><path style="fill:#6838a0;stroke:#9e9ebd;stroke-width:1.2" d="M36.391 158.093a6.78 6.78 0 0 1-6.78 6.78 6.78 6.78 0 0 1-6.78-6.78 6.78 6.78 0 0 1 6.78-6.78 6.78 6.78 0 0 1 6.78 6.78zM53.558 158.093a6.78 6.78 0 0 1-6.78 6.78 6.78 6.78 0 0 1-6.78-6.78 6.78 6.78 0 0 1 6.78-6.78 6.78 6.78 0 0 1 6.78 6.78zM70.724 158.093a6.78 6.78 0 0 1-6.78 6.78 6.78 6.78 0 0 1-6.78-6.78 6.78 6.78 0 0 1 6.78-6.78 6.78 6.78 0 0 1 6.78 6.78zM87.89 158.093a6.78 6.78 0 0 1-6.78 6.78 6.78 6.78 0 0 1-6.779-6.78 6.78 6.78 0 0 1 6.78-6.78 6.78 6.78 0 0 1 6.78 6.78zM105.057 158.093a6.78 6.78 0 0 1-6.78 6.78 6.78 6.78 0 0 1-6.78-6.78 6.78 6.78 0 0 1 6.78-6.78 6.78 6.78 0 0 1 6.78 6.78zM122.224 158.093a6.78 6.78 0 0 1-6.78 6.78 6.78 6.78 0 0 1-6.78-6.78 6.78 6.78 0 0 1 6.78-6.78 6.78 6.78 0 0 1 6.78 6.78zM139.39 158.093a6.78 6.78 0 0 1-6.78 6.78 6.78 6.78 0 0 1-6.78-6.78 6.78 6.78 0 0 1 6.78-6.78 6.78 6.78 0 0 1 6.78 6.78zM156.557 158.093a6.78 6.78 0 0 1-6.78 6.78 6.78 6.78 0 0 1-6.78-6.78 6.78 6.78 0 0 1 6.78-6.78 6.78 6.78 0 0 1 6.78 6.78zM173.723 158.093a6.78 6.78 0 0 1-6.78 6.78 6.78 6.78 0 0 1-6.78-6.78 6.78 6.78 0 0 1 6.78-6.78 6.78 6.78 0 0 1 6.78 6.78zM190.89 158.093a6.78 6.78 0 0 1-6.78 6.78 6.78 6.78 0 0 1-6.78-6.78 6.78 6.78 0 0 1 6.78-6.78 6.78 6.78 0 0 1 6.78 6.78zM208.056 158.093a6.78 6.78 0 0 1-6.78 6.78 6.78 6.78 0 0 1-6.78-6.78 6.78 6.78 0 0 1 6.78-6.78 6.78 6.78 0 0 1 6.78 6.78zM225.223 158.093a6.78 6.78 0 0 1-6.78 6.78 6.78 6.78 0 0 1-6.78-6.78 6.78 6.78 0 0 1 6.78-6.78 6.78 6.78 0 0 1 6.78 6.78z" transform="rotate(15 215.545 311.446) skewX(-10.808)"/></g><g><path style="fill:#6838a0;stroke:#9e9ebd;stroke-width:1.2" d="M36.391 158.093a6.78 6.78 0 0 1-6.78 6.78 6.78 6.78 0 0 1-6.78-6.78 6.78 6.78 0 0 1 6.78-6.78 6.78 6.78 0 0 1 6.78 6.78zM53.558 158.093a6.78 6.78 0 0 1-6.78 6.78 6.78 6.78 0 0 1-6.78-6.78 6.78 6.78 0 0 1 6.78-6.78 6.78 6.78 0 0 1 6.78 6.78zM70.724 158.093a6.78 6.78 0 0 1-6.78 6.78 6.78 6.78 0 0 1-6.78-6.78 6.78 6.78 0 0 1 6.78-6.78 6.78 6.78 0 0 1 6.78 6.78zM87.89 158.093a6.78 6.78 0 0 1-6.78 6.78 6.78 6.78 0 0 1-6.779-6.78 6.78 6.78 0 0 1 6.78-6.78 6.78 6.78 0 0 1 6.78 6.78zM105.057 158.093a6.78 6.78 0 0 1-6.78 6.78 6.78 6.78 0 0 1-6.78-6.78 6.78 6.78 0 0 1 6.78-6.78 6.78 6.78 0 0 1 6.78 6.78zM122.224 158.093a6.78 6.78 0 0 1-6.78 6.78 6.78 6.78 0 0 1-6.78-6.78 6.78 6.78 0 0 1 6.78-6.78 6.78 6.78 0 0 1 6.78 6.78zM139.39 158.093a6.78 6.78 0 0 1-6.78 6.78 6.78 6.78 0 0 1-6.78-6.78 6.78 6.78 0 0 1 6.78-6.78 6.78 6.78 0 0 1 6.78 6.78zM156.557 158.093a6.78 6.78 0 0 1-6.78 6.78 6.78 6.78 0 0 1-6.78-6.78 6.78 6.78 0 0 1 6.78-6.78 6.78 6.78 0 0 1 6.78 6.78zM173.723 158.093a6.78 6.78 0 0 1-6.78 6.78 6.78 6.78 0 0 1-6.78-6.78 6.78 6.78 0 0 1 6.78-6.78 6.78 6.78 0 0 1 6.78 6.78zM190.89 158.093a6.78 6.78 0 0 1-6.78 6.78 6.78 6.78 0 0 1-6.78-6.78 6.78 6.78 0 0 1 6.78-6.78 6.78 6.78 0 0 1 6.78 6.78zM208.056 158.093a6.78 6.78 0 0 1-6.78 6.78 6.78 6.78 0 0 1-6.78-6.78 6.78 6.78 0 0 1 6.78-6.78 6.78 6.78 0 0 1 6.78 6.78zM225.223 158.093a6.78 6.78 0 0 1-6.78 6.78 6.78 6.78 0 0 1-6.78-6.78 6.78 6.78 0 0 1 6.78-6.78 6.78 6.78 0 0 1 6.78 6.78z" transform="rotate(15 280.894 333.068) skewX(-10.808)"/></g><g><path style="fill:#6838a0;stroke:#9e9ebd;stroke-width:1.2" d="M36.391 158.093a6.78 6.78 0 0 1-6.78 6.78 6.78 6.78 0 0 1-6.78-6.78 6.78 6.78 0 0 1 6.78-6.78 6.78 6.78 0 0 1 6.78 6.78zM53.558 158.093a6.78 6.78 0 0 1-6.78 6.78 6.78 6.78 0 0 1-6.78-6.78 6.78 6.78 0 0 1 6.78-6.78 6.78 6.78 0 0 1 6.78 6.78zM70.724 158.093a6.78 6.78 0 0 1-6.78 6.78 6.78 6.78 0 0 1-6.78-6.78 6.78 6.78 0 0 1 6.78-6.78 6.78 6.78 0 0 1 6.78 6.78zM87.89 158.093a6.78 6.78 0 0 1-6.78 6.78 6.78 6.78 0 0 1-6.779-6.78 6.78 6.78 0 0 1 6.78-6.78 6.78 6.78 0 0 1 6.78 6.78zM105.057 158.093a6.78 6.78 0 0 1-6.78 6.78 6.78 6.78 0 0 1-6.78-6.78 6.78 6.78 0 0 1 6.78-6.78 6.78 6.78 0 0 1 6.78 6.78zM122.224 158.093a6.78 6.78 0 0 1-6.78 6.78 6.78 6.78 0 0 1-6.78-6.78 6.78 6.78 0 0 1 6.78-6.78 6.78 6.78 0 0 1 6.78 6.78zM139.39 158.093a6.78 6.78 0 0 1-6.78 6.78 6.78 6.78 0 0 1-6.78-6.78 6.78 6.78 0 0 1 6.78-6.78 6.78 6.78 0 0 1 6.78 6.78zM156.557 158.093a6.78 6.78 0 0 1-6.78 6.78 6.78 6.78 0 0 1-6.78-6.78 6.78 6.78 0 0 1 6.78-6.78 6.78 6.78 0 0 1 6.78 6.78zM173.723 158.093a6.78 6.78 0 0 1-6.78 6.78 6.78 6.78 0 0 1-6.78-6.78 6.78 6.78 0 0 1 6.78-6.78 6.78 6.78 0 0 1 6.78 6.78zM190.89 158.093a6.78 6.78 0 0 1-6.78 6.78 6.78 6.78 0 0 1-6.78-6.78 6.78 6.78 0 0 1 6.78-6.78 6.78 6.78 0 0 1 6.78 6.78zM208.056 158.093a6.78 6.78 0 0 1-6.78 6.78 6.78 6.78 0 0 1-6.78-6.78 6.78 6.78 0 0 1 6.78-6.78 6.78 6.78 0 0 1 6.78 6.78zM225.223 158.093a6.78 6.78 0 0 1-6.78 6.78 6.78 6.78 0 0 1-6.78-6.78 6.78 6.78 0 0 1 6.78-6.78 6.78 6.78 0 0 1 6.78 6.78z" transform="rotate(15 346.243 354.69) skewX(-10.808)"/></g><g><path style="fill:#6838a0;stroke:#9e9ebd;stroke-width:1.2" d="M36.391 158.093a6.78 6.78 0 0 1-6.78 6.78 6.78 6.78 0 0 1-6.78-6.78 6.78 6.78 0 0 1 6.78-6.78 6.78 6.78 0 0 1 6.78 6.78zM53.558 158.093a6.78 6.78 0 0 1-6.78 6.78 6.78 6.78 0 0 1-6.78-6.78 6.78 6.78 0 0 1 6.78-6.78 6.78 6.78 0 0 1 6.78 6.78zM70.724 158.093a6.78 6.78 0 0 1-6.78 6.78 6.78 6.78 0 0 1-6.78-6.78 6.78 6.78 0 0 1 6.78-6.78 6.78 6.78 0 0 1 6.78 6.78zM87.89 158.093a6.78 6.78 0 0 1-6.78 6.78 6.78 6.78 0 0 1-6.779-6.78 6.78 6.78 0 0 1 6.78-6.78 6.78 6.78 0 0 1 6.78 6.78zM105.057 158.093a6.78 6.78 0 0 1-6.78 6.78 6.78 6.78 0 0 1-6.78-6.78 6.78 6.78 0 0 1 6.78-6.78 6.78 6.78 0 0 1 6.78 6.78zM122.224 158.093a6.78 6.78 0 0 1-6.78 6.78 6.78 6.78 0 0 1-6.78-6.78 6.78 6.78 0 0 1 6.78-6.78 6.78 6.78 0 0 1 6.78 6.78zM139.39 158.093a6.78 6.78 0 0 1-6.78 6.78 6.78 6.78 0 0 1-6.78-6.78 6.78 6.78 0 0 1 6.78-6.78 6.78 6.78 0 0 1 6.78 6.78zM156.557 158.093a6.78 6.78 0 0 1-6.78 6.78 6.78 6.78 0 0 1-6.78-6.78 6.78 6.78 0 0 1 6.78-6.78 6.78 6.78 0 0 1 6.78 6.78zM173.723 158.093a6.78 6.78 0 0 1-6.78 6.78 6.78 6.78 0 0 1-6.78-6.78 6.78 6.78 0 0 1 6.78-6.78 6.78 6.78 0 0 1 6.78 6.78zM190.89 158.093a6.78 6.78 0 0 1-6.78 6.78 6.78 6.78 0 0 1-6.78-6.78 6.78 6.78 0 0 1 6.78-6.78 6.78 6.78 0 0 1 6.78 6.78zM208.056 158.093a6.78 6.78 0 0 1-6.78 6.78 6.78 6.78 0 0 1-6.78-6.78 6.78 6.78 0 0 1 6.78-6.78 6.78 6.78 0 0 1 6.78 6.78zM225.223 158.093a6.78 6.78 0 0 1-6.78 6.78 6.78 6.78 0 0 1-6.78-6.78 6.78 6.78 0 0 1 6.78-6.78 6.78 6.78 0 0 1 6.78 6.78z" transform="rotate(15 411.592 376.312) skewX(-10.808)"/></g><g><path style="fill:#6838a0;stroke:#9e9ebd;stroke-width:1.2" d="M36.391 158.093a6.78 6.78 0 0 1-6.78 6.78 6.78 6.78 0 0 1-6.78-6.78 6.78 6.78 0 0 1 6.78-6.78 6.78 6.78 0 0 1 6.78 6.78zM53.558 158.093a6.78 6.78 0 0 1-6.78 6.78 6.78 6.78 0 0 1-6.78-6.78 6.78 6.78 0 0 1 6.78-6.78 6.78 6.78 0 0 1 6.78 6.78zM70.724 158.093a6.78 6.78 0 0 1-6.78 6.78 6.78 6.78 0 0 1-6.78-6.78 6.78 6.78 0 0 1 6.78-6.78 6.78 6.78 0 0 1 6.78 6.78zM87.89 158.093a6.78 6.78 0 0 1-6.78 6.78 6.78 6.78 0 0 1-6.779-6.78 6.78 6.78 0 0 1 6.78-6.78 6.78 6.78 0 0 1 6.78 6.78zM105.057 158.093a6.78 6.78 0 0 1-6.78 6.78 6.78 6.78 0 0 1-6.78-6.78 6.78 6.78 0 0 1 6.78-6.78 6.78 6.78 0 0 1 6.78 6.78zM122.224 158.093a6.78 6.78 0 0 1-6.78 6.78 6.78 6.78 0 0 1-6.78-6.78 6.78 6.78 0 0 1 6.78-6.78 6.78 6.78 0 0 1 6.78 6.78zM139.39 158.093a6.78 6.78 0 0 1-6.78 6.78 6.78 6.78 0 0 1-6.78-6.78 6.78 6.78 0 0 1 6.78-6.78 6.78 6.78 0 0 1 6.78 6.78zM156.557 158.093a6.78 6.78 0 0 1-6.78 6.78 6.78 6.78 0 0 1-6.78-6.78 6.78 6.78 0 0 1 6.78-6.78 6.78 6.78 0 0 1 6.78 6.78zM173.723 158.093a6.78 6.78 0 0 1-6.78 6.78 6.78 6.78 0 0 1-6.78-6.78 6.78 6.78 0 0 1 6.78-6.78 6.78 6.78 0 0 1 6.78 6.78zM190.89 158.093a6.78 6.78 0 0 1-6.78 6.78 6.78 6.78 0 0 1-6.78-6.78 6.78 6.78 0 0 1 6.78-6.78 6.78 6.78 0 0 1 6.78 6.78zM208.056 158.093a6.78 6.78 0 0 1-6.78 6.78 6.78 6.78 0 0 1-6.78-6.78 6.78 6.78 0 0 1 6.78-6.78 6.78 6.78 0 0 1 6.78 6.78zM225.223 158.093a6.78 6.78 0 0 1-6.78 6.78 6.78 6.78 0 0 1-6.78-6.78 6.78 6.78 0 0 1 6.78-6.78 6.78 6.78 0 0 1 6.78 6.78z" transform="rotate(15 476.94 397.934) skewX(-10.808)"/></g><g><path style="fill:#6838a0;stroke:#9e9ebd;stroke-width:1.2" d="M36.391 158.093a6.78 6.78 0 0 1-6.78 6.78 6.78 6.78 0 0 1-6.78-6.78 6.78 6.78 0 0 1 6.78-6.78 6.78 6.78 0 0 1 6.78 6.78zM53.558 158.093a6.78 6.78 0 0 1-6.78 6.78 6.78 6.78 0 0 1-6.78-6.78 6.78 6.78 0 0 1 6.78-6.78 6.78 6.78 0 0 1 6.78 6.78zM70.724 158.093a6.78 6.78 0 0 1-6.78 6.78 6.78 6.78 0 0 1-6.78-6.78 6.78 6.78 0 0 1 6.78-6.78 6.78 6.78 0 0 1 6.78 6.78zM87.89 158.093a6.78 6.78 0 0 1-6.78 6.78 6.78 6.78 0 0 1-6.779-6.78 6.78 6.78 0 0 1 6.78-6.78 6.78 6.78 0 0 1 6.78 6.78zM105.057 158.093a6.78 6.78 0 0 1-6.78 6.78 6.78 6.78 0 0 1-6.78-6.78 6.78 6.78 0 0 1 6.78-6.78 6.78 6.78 0 0 1 6.78 6.78zM122.224 158.093a6.78 6.78 0 0 1-6.78 6.78 6.78 6.78 0 0 1-6.78-6.78 6.78 6.78 0 0 1 6.78-6.78 6.78 6.78 0 0 1 6.78 6.78zM139.39 158.093a6.78 6.78 0 0 1-6.78 6.78 6.78 6.78 0 0 1-6.78-6.78 6.78 6.78 0 0 1 6.78-6.78 6.78 6.78 0 0 1 6.78 6.78zM156.557 158.093a6.78 6.78 0 0 1-6.78 6.78 6.78 6.78 0 0 1-6.78-6.78 6.78 6.78 0 0 1 6.78-6.78 6.78 6.78 0 0 1 6.78 6.78zM173.723 158.093a6.78 6.78 0 0 1-6.78 6.78 6.78 6.78 0 0 1-6.78-6.78 6.78 6.78 0 0 1 6.78-6.78 6.78 6.78 0 0 1 6.78 6.78zM190.89 158.093a6.78 6.78 0 0 1-6.78 6.78 6.78 6.78 0 0 1-6.78-6.78 6.78 6.78 0 0 1 6.78-6.78 6.78 6.78 0 0 1 6.78 6.78zM208.056 158.093a6.78 6.78 0 0 1-6.78 6.78 6.78 6.78 0 0 1-6.78-6.78 6.78 6.78 0 0 1 6.78-6.78 6.78 6.78 0 0 1 6.78 6.78zM225.223 158.093a6.78 6.78 0 0 1-6.78 6.78 6.78 6.78 0 0 1-6.78-6.78 6.78 6.78 0 0 1 6.78-6.78 6.78 6.78 0 0 1 6.78 6.78z" transform="rotate(15 542.29 419.556) skewX(-10.808)"/></g><text xml:space="preserve" style="font-size:5.59374px;line-height:1.25;font-family:Arial;-inkscape-font-specification:Arial;letter-spacing:0;stroke-width:.262206" x="83.379" y="-9.277" transform="matrix(.95725 .2565 -.4477 .9247 4.227 3.919)"><tspan style="stroke-width:.262206" x="83.379" y="-9.277">1</tspan></text><text xml:space="preserve" style="font-size:5.59374px;line-height:1.25;font-family:Arial;-inkscape-font-specification:Arial;letter-spacing:0;stroke-width:.262206" x="100.192" y="-9.277" transform="matrix(.95725 .2565 -.4477 .9247 4.227 3.919)"><tspan style="stroke-width:.262206" x="100.192" y="-9.277">2</tspan></text><text xml:space="preserve" style="font-size:5.59374px;line-height:1.25;font-family:Arial;-inkscape-font-specification:Arial;letter-spacing:0;stroke-width:.262206" x="117.697" y="-9.313" transform="matrix(.95725 .2565 -.4477 .9247 4.227 3.919)"><tspan style="stroke-width:.262206" x="117.697" y="-9.313">3</tspan></text><text xml:space="preserve" style="font-size:5.59374px;line-height:1.25;font-family:Arial;-inkscape-font-specification:Arial;letter-spacing:0;stroke-width:.262206" x="135.259" y="-9.285" transform="matrix(.95725 .2565 -.4477 .9247 4.227 3.919)"><tspan style="stroke-width:.262206" x="135.259" y="-9.285">4</tspan></text><text xml:space="preserve" style="font-size:5.59374px;line-height:1.25;font-family:Arial;-inkscape-font-specification:Arial;letter-spacing:0;stroke-width:.262206" x="152.758" y="-9.347" transform="matrix(.95725 .2565 -.4477 .9247 4.227 3.919)"><tspan style="stroke-width:.262206" x="152.758" y="-9.347">5</tspan></text><text xml:space="preserve" style="font-size:5.59374px;line-height:1.25;font-family:Arial;-inkscape-font-specification:Arial;letter-spacing:0;stroke-width:.262206" x="170.336" y="-9.311" transform="matrix(.95725 .2565 -.4477 .9247 4.227 3.919)"><tspan style="stroke-width:.262206" x="170.336" y="-9.311">6</tspan></text><text xml:space="preserve" style="font-size:5.59374px;line-height:1.25;font-family:Arial;-inkscape-font-specification:Arial;letter-spacing:0;stroke-width:.262206" x="187.879" y="-9.311" transform="matrix(.95725 .2565 -.4477 .9247 4.227 3.919)"><tspan style="stroke-width:.262206" x="187.879" y="-9.311">7</tspan></text><text xml:space="preserve" style="font-size:5.59374px;line-height:1.25;font-family:Arial;-inkscape-font-specification:Arial;letter-spacing:0;stroke-width:.262206" x="205.417" y="-9.311" transform="matrix(.95725 .2565 -.4477 .9247 4.227 3.919)"><tspan style="stroke-width:.262206" x="205.417" y="-9.311">8</tspan></text><text xml:space="preserve" style="font-size:5.59374px;line-height:1.25;font-family:Arial;-inkscape-font-specification:Arial;letter-spacing:0;stroke-width:.262206" x="222.962" y="-9.311" transform="matrix(.95725 .2565 -.4477 .9247 4.227 3.919)"><tspan style="stroke-width:.262206" x="222.962" y="-9.311">9</tspan></text><text xml:space="preserve" style="font-size:5.59374px;line-height:1.25;font-family:Arial;-inkscape-font-specification:Arial;letter-spacing:0;stroke-width:.262206" x="237.416" y="-9.311" transform="matrix(.95725 .2565 -.4477 .9247 4.227 3.919)"><tspan style="stroke-width:.262206" x="237.416" y="-9.311">10</tspan></text><text xml:space="preserve" style="font-size:5.59374px;line-height:1.25;font-family:Arial;-inkscape-font-specification:Arial;letter-spacing:0;stroke-width:.262206" x="256.136" y="-9.277" transform="matrix(.95725 .2565 -.4477 .9247 4.227 3.919)"><tspan style="stroke-width:.262206" x="256.136" y="-9.277">11</tspan></text><text xml:space="preserve" style="font-size:5.59374px;line-height:1.25;font-family:Arial;-inkscape-font-specification:Arial;letter-spacing:0;stroke-width:.262206" x="272.534" y="-9.277" transform="matrix(.95725 .2565 -.4477 .9247 4.227 3.919)"><tspan style="stroke-width:.262206" x="272.534" y="-9.277">12</tspan></text><path style="fill:#9e9ebd;fill-opacity:1;stroke:#9e9ebd;stroke-width:.964;stroke-linecap:butt;stroke-linejoin:miter;stroke-miterlimit:4;stroke-dasharray:none;stroke-opacity:1" d="m211.38 200.306 5.131 11.669" transform="translate(4.227 3.919)"/></svg>