<?xml version="1.0" encoding="UTF-8" standalone="no"?>
<!-- Created with Inkscape (http://www.inkscape.org/) -->

<svg
   width="337mm"
   height="216mm"
   viewBox="0 0 337 216"
   version="1.1"
   id="svg5"
   inkscape:version="1.1 (c4e8f9e, 2021-05-24)"
   sodipodi:docname="Plate.svg"
   inkscape:export-filename="/Users/christian/Documents/Personal_Projects/freezuh_project/assets/pictures/Plate-Final.png"
   inkscape:export-xdpi="96"
   inkscape:export-ydpi="96"
   xmlns:inkscape="http://www.inkscape.org/namespaces/inkscape"
   xmlns:sodipodi="http://sodipodi.sourceforge.net/DTD/sodipodi-0.dtd"
   xmlns="http://www.w3.org/2000/svg"
   xmlns:svg="http://www.w3.org/2000/svg">
  <sodipodi:namedview
     id="namedview7"
     pagecolor="#ffffff"
     bordercolor="#666666"
     borderopacity="1.0"
     inkscape:pageshadow="2"
     inkscape:pageopacity="0.0"
     inkscape:pagecheckerboard="0"
     inkscape:document-units="mm"
     showgrid="false"
     units="mm"
     width="250mm"
     inkscape:zoom="0.35681392"
     inkscape:cx="609.56142"
     inkscape:cy="578.73303"
     inkscape:window-width="1312"
     inkscape:window-height="847"
     inkscape:window-x="0"
     inkscape:window-y="25"
     inkscape:window-maximized="0"
     inkscape:current-layer="layer1"
     inkscape:object-paths="true" />
  <defs
     id="defs2" />
  <g
     inkscape:label="Layer 1"
     inkscape:groupmode="layer"
     id="layer1">
    <path
       id="path7395"
       style="fill:#c8c8d9;fill-opacity:1;stroke:#9e9ebd;stroke-width:0.945277"
       d="m 142.62802,17.059738 c -0.47545,-0.04421 -0.92178,0.01687 -1.22732,0.193269 L 6.1350588,95.348502 2.3378748,93.156382 V 107.23046 L 7.7866378,110.376 185.14739,212.77543 c 0.84589,0.48837 2.01874,0.59775 2.62981,0.24495 l 137.2004,-79.21273 0.0175,-0.0103 9.13331,-5.27306 c 0.0791,-0.0457 0.10811,-0.10892 0.16071,-0.16433 l 0.0135,-0.008 v -0.006 c 0.20024,-0.22284 0.19902,-0.5005 0.007,-0.78704 l 0.11626,-13.39918 -11.40293,6.67866 L 144.03103,17.497954 c -0.42294,-0.244188 -0.92756,-0.39401 -1.40301,-0.438216 z M 334.30263,128.35216 v 0.0434 l 0.0786,-0.0894 z" />
    <path
       id="rect846"
       style="fill:#c8c8d9;fill-opacity:1;stroke:#9e9ebd;stroke-width:0.945277"
       d="M 144.03117,3.423636 C 143.18528,2.9352599 142.01198,2.8262199 141.4009,3.1790219 L 3.6356738,82.717812 2.3380638,93.156322 185.14733,198.7013 c 0.84589,0.48837 2.01869,0.59771 2.62976,0.24491 l 146.35126,-84.49595 c 0.61108,-0.3528 0.42221,-1.03021 -0.42368,-1.51858 z" />
    <g
       id="g6593"
       transform="matrix(0.8660254,0.5,-1,0.57735027,162.01853,-14.2796)">
      <path
         id="path1185"
         style="fill:#6838a0;stroke:#9e9ebd;stroke-width:1.2"
         d="m 36.391085,158.09279 a 6.7798715,6.7798715 0 0 1 -6.779871,6.77987 6.7798715,6.7798715 0 0 1 -6.779872,-6.77987 6.7798715,6.7798715 0 0 1 6.779872,-6.77987 6.7798715,6.7798715 0 0 1 6.779871,6.77987 z" />
      <path
         id="circle1575"
         style="fill:#6838a0;stroke:#9e9ebd;stroke-width:1.2"
         d="m 53.557627,158.09279 a 6.7798715,6.7798715 0 0 1 -6.779871,6.77987 6.7798715,6.7798715 0 0 1 -6.779872,-6.77987 6.7798715,6.7798715 0 0 1 6.779872,-6.77987 6.7798715,6.7798715 0 0 1 6.779871,6.77987 z" />
      <path
         id="circle1577"
         style="fill:#6838a0;stroke:#9e9ebd;stroke-width:1.2"
         d="m 70.724169,158.09279 a 6.7798715,6.7798715 0 0 1 -6.779871,6.77987 6.7798715,6.7798715 0 0 1 -6.779872,-6.77987 6.7798715,6.7798715 0 0 1 6.779872,-6.77987 6.7798715,6.7798715 0 0 1 6.779871,6.77987 z" />
      <path
         id="circle1579"
         style="fill:#6838a0;stroke:#9e9ebd;stroke-width:1.2"
         d="m 87.890704,158.09279 a 6.7798715,6.7798715 0 0 1 -6.779872,6.77987 6.7798715,6.7798715 0 0 1 -6.779871,-6.77987 6.7798715,6.7798715 0 0 1 6.779871,-6.77987 6.7798715,6.7798715 0 0 1 6.779872,6.77987 z" />
      <path
         id="circle1581"
         style="fill:#6838a0;stroke:#9e9ebd;stroke-width:1.2"
         d="m 105.05725,158.09279 a 6.7798715,6.7798715 0 0 1 -6.779876,6.77987 6.7798715,6.7798715 0 0 1 -6.779871,-6.77987 6.7798715,6.7798715 0 0 1 6.779871,-6.77987 6.7798715,6.7798715 0 0 1 6.779876,6.77987 z" />
      <path
         id="circle1583"
         style="fill:#6838a0;stroke:#9e9ebd;stroke-width:1.2"
         d="m 122.22379,158.09279 a 6.7798715,6.7798715 0 0 1 -6.77987,6.77987 6.7798715,6.7798715 0 0 1 -6.77988,-6.77987 6.7798715,6.7798715 0 0 1 6.77988,-6.77987 6.7798715,6.7798715 0 0 1 6.77987,6.77987 z" />
      <path
         id="circle1585"
         style="fill:#6838a0;stroke:#9e9ebd;stroke-width:1.2"
         d="m 139.39033,158.09279 a 6.7798715,6.7798715 0 0 1 -6.77987,6.77987 6.7798715,6.7798715 0 0 1 -6.77987,-6.77987 6.7798715,6.7798715 0 0 1 6.77987,-6.77987 6.7798715,6.7798715 0 0 1 6.77987,6.77987 z" />
      <path
         id="circle1587"
         style="fill:#6838a0;stroke:#9e9ebd;stroke-width:1.2"
         d="m 156.55686,158.09279 a 6.7798715,6.7798715 0 0 1 -6.77987,6.77987 6.7798715,6.7798715 0 0 1 -6.77987,-6.77987 6.7798715,6.7798715 0 0 1 6.77987,-6.77987 6.7798715,6.7798715 0 0 1 6.77987,6.77987 z" />
      <path
         id="circle1589"
         style="fill:#6838a0;stroke:#9e9ebd;stroke-width:1.2"
         d="m 173.72341,158.09279 a 6.7798715,6.7798715 0 0 1 -6.77987,6.77987 6.7798715,6.7798715 0 0 1 -6.77987,-6.77987 6.7798715,6.7798715 0 0 1 6.77987,-6.77987 6.7798715,6.7798715 0 0 1 6.77987,6.77987 z" />
      <path
         id="circle1591"
         style="fill:#6838a0;stroke:#9e9ebd;stroke-width:1.2"
         d="m 190.88995,158.09279 a 6.7798715,6.7798715 0 0 1 -6.77987,6.77987 6.7798715,6.7798715 0 0 1 -6.77987,-6.77987 6.7798715,6.7798715 0 0 1 6.77987,-6.77987 6.7798715,6.7798715 0 0 1 6.77987,6.77987 z" />
      <path
         id="circle1593"
         style="fill:#6838a0;stroke:#9e9ebd;stroke-width:1.2"
         d="m 208.05648,158.09279 a 6.7798715,6.7798715 0 0 1 -6.77987,6.77987 6.7798715,6.7798715 0 0 1 -6.77987,-6.77987 6.7798715,6.7798715 0 0 1 6.77987,-6.77987 6.7798715,6.7798715 0 0 1 6.77987,6.77987 z" />
      <path
         id="circle1677"
         style="fill:#6838a0;stroke:#9e9ebd;stroke-width:1.2"
         d="m 225.22303,158.09279 a 6.7798715,6.7798715 0 0 1 -6.77987,6.77987 6.7798715,6.7798715 0 0 1 -6.77987,-6.77987 6.7798715,6.7798715 0 0 1 6.77987,-6.77987 6.7798715,6.7798715 0 0 1 6.77987,6.77987 z" />
    </g>
    <g
       aria-label="A B C D E F G H"
       id="text2859"
       style="font-size:14.1476px;line-height:1.25;font-family:Arial;-inkscape-font-specification:Arial;letter-spacing:0px;fill:#26143a;stroke-width:0.353691"
       transform="matrix(0.8660254,0.5,-1,0.57735027,161.40123,-14.636)">
      <path
         d="m 9.0132974,38.666615 3.8892086,-10.12714 h 1.443773 l 4.144805,10.12714 h -1.52667 l -1.181269,-3.067156 h -4.234609 l -1.112189,3.067156 z m 2.9220876,-4.158621 h 3.43328 l -1.056926,-2.804651 q -0.48356,-1.277982 -0.718432,-2.100035 -0.193425,0.974029 -0.545733,1.934242 z"
         id="path6907" />
      <path
         d="m 10.070223,56.351115 v -10.12714 h 3.799404 q 1.160545,0 1.858254,0.310861 0.704617,0.303952 1.098373,0.946397 0.400665,0.635536 0.400665,1.333245 0,0.649353 -0.352309,1.222718 -0.352308,0.573364 -1.063833,0.925673 0.918765,0.269412 1.409234,0.918765 0.497376,0.649352 0.497376,1.533577 0,0.711525 -0.303952,1.326338 -0.297044,0.607905 -0.739157,0.939489 -0.442112,0.331584 -1.112189,0.504285 -0.663169,0.165792 -1.63029,0.165792 z m 1.340153,-5.871807 h 2.189839 q 0.891133,0 1.277981,-0.117436 0.511193,-0.151976 0.766789,-0.504285 0.262504,-0.352308 0.262504,-0.884225 0,-0.504284 -0.24178,-0.884225 -0.24178,-0.386848 -0.690801,-0.525008 -0.44902,-0.145068 -1.540486,-0.145068 h -2.024046 z m 0,4.676721 h 2.521423 q 0.649353,0 0.911857,-0.04836 0.462837,-0.0829 0.773697,-0.27632 0.31086,-0.193424 0.511192,-0.559549 0.200333,-0.373032 0.200333,-0.856593 0,-0.566456 -0.290137,-0.980937 -0.290136,-0.421388 -0.808237,-0.58718 -0.511192,-0.172701 -1.478313,-0.172701 h -2.341815 z"
         id="path6909" />
      <path
         d="m 17.351263,70.484899 1.340153,0.338492 q -0.421388,1.651014 -1.519761,2.521423 -1.091466,0.863501 -2.673399,0.863501 -1.637198,0 -2.666491,-0.663169 -1.022386,-0.670076 -1.56121,-1.934242 -0.5319168,-1.264165 -0.5319168,-2.714847 0,-1.581934 0.6009968,-2.756295 0.607905,-1.181269 1.720094,-1.789174 1.119097,-0.614813 2.459251,-0.614813 1.519761,0 2.555963,0.773697 1.036201,0.773697 1.443773,2.176023 l -1.319429,0.31086 q -0.352309,-1.105281 -1.022385,-1.609566 -0.670077,-0.504284 -1.685554,-0.504284 -1.167454,0 -1.954967,0.559548 -0.780605,0.559549 -1.098373,1.505946 -0.317768,0.939489 -0.317768,1.94115 0,1.291798 0.373032,2.258919 0.379941,0.960213 1.174362,1.436865 0.79442,0.476653 1.720093,0.476653 1.126006,0 1.906611,-0.649353 0.780605,-0.649353 1.056925,-1.927334 z"
         id="path6911" />
      <path
         d="M 10.125487,91.720115 V 81.592976 h 3.488544 q 1.181269,0 1.80299,0.145068 0.870409,0.200332 1.485221,0.725341 0.801329,0.676984 1.195086,1.73391 0.400664,1.050017 0.400664,2.403986 0,1.153638 -0.269412,2.044771 -0.269412,0.891133 -0.690801,1.478313 -0.421388,0.580273 -0.925673,0.918765 -0.497377,0.331585 -1.208901,0.504285 -0.704617,0.1727 -1.623382,0.1727 z M 11.46564,90.52503 h 2.162207 q 1.001661,0 1.568117,-0.186516 0.573365,-0.186517 0.911857,-0.525009 0.476653,-0.476653 0.739157,-1.277981 0.269413,-0.808237 0.269413,-1.954967 0,-1.588842 -0.525009,-2.438526 -0.518101,-0.856593 -1.264165,-1.14673 -0.538825,-0.20724 -1.73391,-0.20724 H 11.46564 Z"
         id="path6913" />
      <path
         d="M 10.153119,109.40462 V 99.277476 h 7.322488 v 1.195084 h -5.982335 v 3.1017 h 5.602395 v 1.18817 h -5.602395 v 3.4471 h 6.217207 v 1.19509 z"
         id="path6915" />
      <path
         d="m 10.194567,127.08912 v -10.12714 h 6.83202 v 1.19508 H 11.53472 v 3.13624 h 4.75271 v 1.19508 h -4.75271 v 4.60074 z"
         id="path6917" />
      <path
         d="m 14.86438,140.80151 v -1.18818 l 4.289873,-0.007 v 3.75795 q -0.987845,0.78752 -2.037862,1.18818 -1.050018,0.39376 -2.155299,0.39376 -1.49213,0 -2.714847,-0.63554 -1.215809,-0.64245 -1.83753,-1.85135 -0.6217208,-1.2089 -0.6217208,-2.70103 0,-1.47831 0.6148128,-2.75629 0.621721,-1.28489 1.782266,-1.90661 1.160545,-0.62172 2.673399,-0.62172 1.098373,0 1.982598,0.35921 0.891133,0.35231 1.395418,0.98785 0.504284,0.63553 0.766789,1.65792 l -1.208902,0.33158 q -0.227964,-0.77369 -0.566456,-1.21581 -0.338493,-0.44211 -0.967121,-0.70461 -0.628629,-0.26941 -1.395418,-0.26941 -0.918765,0 -1.588842,0.28322 -0.670077,0.27632 -1.084557,0.73225 -0.407572,0.45593 -0.635537,1.00166 -0.386848,0.93949 -0.386848,2.03787 0,1.35397 0.462836,2.26582 0.469745,0.91186 1.360878,1.35397 0.891133,0.44211 1.892794,0.44211 0.870409,0 1.69937,-0.33158 0.828961,-0.33849 1.257257,-0.71843 v -1.88589 z"
         id="path6919" />
      <path
         d="m 10.166935,162.45812 v -10.12714 h 1.340153 v 4.15862 h 5.263902 v -4.15862 h 1.340154 v 10.12714 H 16.77099 v -4.77344 h -5.263902 v 4.77344 z"
         id="path6921" />
    </g>
    <g
       id="g6619"
       transform="matrix(0.8660254,0.5,-1,0.57735027,179.66883,-24.470007)">
      <path
         id="circle6595"
         style="fill:#6838a0;stroke:#9e9ebd;stroke-width:1.2"
         d="m 36.391085,158.09279 a 6.7798715,6.7798715 0 0 1 -6.779871,6.77987 6.7798715,6.7798715 0 0 1 -6.779872,-6.77987 6.7798715,6.7798715 0 0 1 6.779872,-6.77987 6.7798715,6.7798715 0 0 1 6.779871,6.77987 z" />
      <path
         id="circle6597"
         style="fill:#6838a0;stroke:#9e9ebd;stroke-width:1.2"
         d="m 53.557627,158.09279 a 6.7798715,6.7798715 0 0 1 -6.779871,6.77987 6.7798715,6.7798715 0 0 1 -6.779872,-6.77987 6.7798715,6.7798715 0 0 1 6.779872,-6.77987 6.7798715,6.7798715 0 0 1 6.779871,6.77987 z" />
      <path
         id="circle6599"
         style="fill:#6838a0;stroke:#9e9ebd;stroke-width:1.2"
         d="m 70.724169,158.09279 a 6.7798715,6.7798715 0 0 1 -6.779871,6.77987 6.7798715,6.7798715 0 0 1 -6.779872,-6.77987 6.7798715,6.7798715 0 0 1 6.779872,-6.77987 6.7798715,6.7798715 0 0 1 6.779871,6.77987 z" />
      <path
         id="circle6601"
         style="fill:#6838a0;stroke:#9e9ebd;stroke-width:1.2"
         d="m 87.890704,158.09279 a 6.7798715,6.7798715 0 0 1 -6.779872,6.77987 6.7798715,6.7798715 0 0 1 -6.779871,-6.77987 6.7798715,6.7798715 0 0 1 6.779871,-6.77987 6.7798715,6.7798715 0 0 1 6.779872,6.77987 z" />
      <path
         id="circle6603"
         style="fill:#6838a0;stroke:#9e9ebd;stroke-width:1.2"
         d="m 105.05725,158.09279 a 6.7798715,6.7798715 0 0 1 -6.779876,6.77987 6.7798715,6.7798715 0 0 1 -6.779871,-6.77987 6.7798715,6.7798715 0 0 1 6.779871,-6.77987 6.7798715,6.7798715 0 0 1 6.779876,6.77987 z" />
      <path
         id="circle6605"
         style="fill:#6838a0;stroke:#9e9ebd;stroke-width:1.2"
         d="m 122.22379,158.09279 a 6.7798715,6.7798715 0 0 1 -6.77987,6.77987 6.7798715,6.7798715 0 0 1 -6.77988,-6.77987 6.7798715,6.7798715 0 0 1 6.77988,-6.77987 6.7798715,6.7798715 0 0 1 6.77987,6.77987 z" />
      <path
         id="circle6607"
         style="fill:#6838a0;stroke:#9e9ebd;stroke-width:1.2"
         d="m 139.39033,158.09279 a 6.7798715,6.7798715 0 0 1 -6.77987,6.77987 6.7798715,6.7798715 0 0 1 -6.77987,-6.77987 6.7798715,6.7798715 0 0 1 6.77987,-6.77987 6.7798715,6.7798715 0 0 1 6.77987,6.77987 z" />
      <path
         id="circle6609"
         style="fill:#6838a0;stroke:#9e9ebd;stroke-width:1.2"
         d="m 156.55686,158.09279 a 6.7798715,6.7798715 0 0 1 -6.77987,6.77987 6.7798715,6.7798715 0 0 1 -6.77987,-6.77987 6.7798715,6.7798715 0 0 1 6.77987,-6.77987 6.7798715,6.7798715 0 0 1 6.77987,6.77987 z" />
      <path
         id="circle6611"
         style="fill:#6838a0;stroke:#9e9ebd;stroke-width:1.2"
         d="m 173.72341,158.09279 a 6.7798715,6.7798715 0 0 1 -6.77987,6.77987 6.7798715,6.7798715 0 0 1 -6.77987,-6.77987 6.7798715,6.7798715 0 0 1 6.77987,-6.77987 6.7798715,6.7798715 0 0 1 6.77987,6.77987 z" />
      <path
         id="circle6613"
         style="fill:#6838a0;stroke:#9e9ebd;stroke-width:1.2"
         d="m 190.88995,158.09279 a 6.7798715,6.7798715 0 0 1 -6.77987,6.77987 6.7798715,6.7798715 0 0 1 -6.77987,-6.77987 6.7798715,6.7798715 0 0 1 6.77987,-6.77987 6.7798715,6.7798715 0 0 1 6.77987,6.77987 z" />
      <path
         id="circle6615"
         style="fill:#6838a0;stroke:#9e9ebd;stroke-width:1.2"
         d="m 208.05648,158.09279 a 6.7798715,6.7798715 0 0 1 -6.77987,6.77987 6.7798715,6.7798715 0 0 1 -6.77987,-6.77987 6.7798715,6.7798715 0 0 1 6.77987,-6.77987 6.7798715,6.7798715 0 0 1 6.77987,6.77987 z" />
      <path
         id="circle6617"
         style="fill:#6838a0;stroke:#9e9ebd;stroke-width:1.2"
         d="m 225.22303,158.09279 a 6.7798715,6.7798715 0 0 1 -6.77987,6.77987 6.7798715,6.7798715 0 0 1 -6.77987,-6.77987 6.7798715,6.7798715 0 0 1 6.77987,-6.77987 6.7798715,6.7798715 0 0 1 6.77987,6.77987 z" />
    </g>
    <g
       id="g6645"
       transform="matrix(0.8660254,0.5,-1,0.57735027,197.3191,-34.660397)">
      <path
         id="circle6621"
         style="fill:#6838a0;stroke:#9e9ebd;stroke-width:1.2"
         d="m 36.391085,158.09279 a 6.7798715,6.7798715 0 0 1 -6.779871,6.77987 6.7798715,6.7798715 0 0 1 -6.779872,-6.77987 6.7798715,6.7798715 0 0 1 6.779872,-6.77987 6.7798715,6.7798715 0 0 1 6.779871,6.77987 z" />
      <path
         id="circle6623"
         style="fill:#6838a0;stroke:#9e9ebd;stroke-width:1.2"
         d="m 53.557627,158.09279 a 6.7798715,6.7798715 0 0 1 -6.779871,6.77987 6.7798715,6.7798715 0 0 1 -6.779872,-6.77987 6.7798715,6.7798715 0 0 1 6.779872,-6.77987 6.7798715,6.7798715 0 0 1 6.779871,6.77987 z" />
      <path
         id="circle6625"
         style="fill:#6838a0;stroke:#9e9ebd;stroke-width:1.2"
         d="m 70.724169,158.09279 a 6.7798715,6.7798715 0 0 1 -6.779871,6.77987 6.7798715,6.7798715 0 0 1 -6.779872,-6.77987 6.7798715,6.7798715 0 0 1 6.779872,-6.77987 6.7798715,6.7798715 0 0 1 6.779871,6.77987 z" />
      <path
         id="circle6627"
         style="fill:#6838a0;stroke:#9e9ebd;stroke-width:1.2"
         d="m 87.890704,158.09279 a 6.7798715,6.7798715 0 0 1 -6.779872,6.77987 6.7798715,6.7798715 0 0 1 -6.779871,-6.77987 6.7798715,6.7798715 0 0 1 6.779871,-6.77987 6.7798715,6.7798715 0 0 1 6.779872,6.77987 z" />
      <path
         id="circle6629"
         style="fill:#6838a0;stroke:#9e9ebd;stroke-width:1.2"
         d="m 105.05725,158.09279 a 6.7798715,6.7798715 0 0 1 -6.779876,6.77987 6.7798715,6.7798715 0 0 1 -6.779871,-6.77987 6.7798715,6.7798715 0 0 1 6.779871,-6.77987 6.7798715,6.7798715 0 0 1 6.779876,6.77987 z" />
      <path
         id="circle6631"
         style="fill:#6838a0;stroke:#9e9ebd;stroke-width:1.2"
         d="m 122.22379,158.09279 a 6.7798715,6.7798715 0 0 1 -6.77987,6.77987 6.7798715,6.7798715 0 0 1 -6.77988,-6.77987 6.7798715,6.7798715 0 0 1 6.77988,-6.77987 6.7798715,6.7798715 0 0 1 6.77987,6.77987 z" />
      <path
         id="circle6633"
         style="fill:#6838a0;stroke:#9e9ebd;stroke-width:1.2"
         d="m 139.39033,158.09279 a 6.7798715,6.7798715 0 0 1 -6.77987,6.77987 6.7798715,6.7798715 0 0 1 -6.77987,-6.77987 6.7798715,6.7798715 0 0 1 6.77987,-6.77987 6.7798715,6.7798715 0 0 1 6.77987,6.77987 z" />
      <path
         id="circle6635"
         style="fill:#6838a0;stroke:#9e9ebd;stroke-width:1.2"
         d="m 156.55686,158.09279 a 6.7798715,6.7798715 0 0 1 -6.77987,6.77987 6.7798715,6.7798715 0 0 1 -6.77987,-6.77987 6.7798715,6.7798715 0 0 1 6.77987,-6.77987 6.7798715,6.7798715 0 0 1 6.77987,6.77987 z" />
      <path
         id="circle6637"
         style="fill:#6838a0;stroke:#9e9ebd;stroke-width:1.2"
         d="m 173.72341,158.09279 a 6.7798715,6.7798715 0 0 1 -6.77987,6.77987 6.7798715,6.7798715 0 0 1 -6.77987,-6.77987 6.7798715,6.7798715 0 0 1 6.77987,-6.77987 6.7798715,6.7798715 0 0 1 6.77987,6.77987 z" />
      <path
         id="circle6639"
         style="fill:#6838a0;stroke:#9e9ebd;stroke-width:1.2"
         d="m 190.88995,158.09279 a 6.7798715,6.7798715 0 0 1 -6.77987,6.77987 6.7798715,6.7798715 0 0 1 -6.77987,-6.77987 6.7798715,6.7798715 0 0 1 6.77987,-6.77987 6.7798715,6.7798715 0 0 1 6.77987,6.77987 z" />
      <path
         id="circle6641"
         style="fill:#6838a0;stroke:#9e9ebd;stroke-width:1.2"
         d="m 208.05648,158.09279 a 6.7798715,6.7798715 0 0 1 -6.77987,6.77987 6.7798715,6.7798715 0 0 1 -6.77987,-6.77987 6.7798715,6.7798715 0 0 1 6.77987,-6.77987 6.7798715,6.7798715 0 0 1 6.77987,6.77987 z" />
      <path
         id="circle6643"
         style="fill:#6838a0;stroke:#9e9ebd;stroke-width:1.2"
         d="m 225.22303,158.09279 a 6.7798715,6.7798715 0 0 1 -6.77987,6.77987 6.7798715,6.7798715 0 0 1 -6.77987,-6.77987 6.7798715,6.7798715 0 0 1 6.77987,-6.77987 6.7798715,6.7798715 0 0 1 6.77987,6.77987 z" />
    </g>
    <g
       id="g6671"
       transform="matrix(0.8660254,0.5,-1,0.57735027,214.96938,-44.850791)">
      <path
         id="circle6647"
         style="fill:#6838a0;stroke:#9e9ebd;stroke-width:1.2"
         d="m 36.391085,158.09279 a 6.7798715,6.7798715 0 0 1 -6.779871,6.77987 6.7798715,6.7798715 0 0 1 -6.779872,-6.77987 6.7798715,6.7798715 0 0 1 6.779872,-6.77987 6.7798715,6.7798715 0 0 1 6.779871,6.77987 z" />
      <path
         id="circle6649"
         style="fill:#6838a0;stroke:#9e9ebd;stroke-width:1.2"
         d="m 53.557627,158.09279 a 6.7798715,6.7798715 0 0 1 -6.779871,6.77987 6.7798715,6.7798715 0 0 1 -6.779872,-6.77987 6.7798715,6.7798715 0 0 1 6.779872,-6.77987 6.7798715,6.7798715 0 0 1 6.779871,6.77987 z" />
      <path
         id="circle6651"
         style="fill:#6838a0;stroke:#9e9ebd;stroke-width:1.2"
         d="m 70.724169,158.09279 a 6.7798715,6.7798715 0 0 1 -6.779871,6.77987 6.7798715,6.7798715 0 0 1 -6.779872,-6.77987 6.7798715,6.7798715 0 0 1 6.779872,-6.77987 6.7798715,6.7798715 0 0 1 6.779871,6.77987 z" />
      <path
         id="circle6653"
         style="fill:#6838a0;stroke:#9e9ebd;stroke-width:1.2"
         d="m 87.890704,158.09279 a 6.7798715,6.7798715 0 0 1 -6.779872,6.77987 6.7798715,6.7798715 0 0 1 -6.779871,-6.77987 6.7798715,6.7798715 0 0 1 6.779871,-6.77987 6.7798715,6.7798715 0 0 1 6.779872,6.77987 z" />
      <path
         id="circle6655"
         style="fill:#6838a0;stroke:#9e9ebd;stroke-width:1.2"
         d="m 105.05725,158.09279 a 6.7798715,6.7798715 0 0 1 -6.779876,6.77987 6.7798715,6.7798715 0 0 1 -6.779871,-6.77987 6.7798715,6.7798715 0 0 1 6.779871,-6.77987 6.7798715,6.7798715 0 0 1 6.779876,6.77987 z" />
      <path
         id="circle6657"
         style="fill:#6838a0;stroke:#9e9ebd;stroke-width:1.2"
         d="m 122.22379,158.09279 a 6.7798715,6.7798715 0 0 1 -6.77987,6.77987 6.7798715,6.7798715 0 0 1 -6.77988,-6.77987 6.7798715,6.7798715 0 0 1 6.77988,-6.77987 6.7798715,6.7798715 0 0 1 6.77987,6.77987 z" />
      <path
         id="circle6659"
         style="fill:#6838a0;stroke:#9e9ebd;stroke-width:1.2"
         d="m 139.39033,158.09279 a 6.7798715,6.7798715 0 0 1 -6.77987,6.77987 6.7798715,6.7798715 0 0 1 -6.77987,-6.77987 6.7798715,6.7798715 0 0 1 6.77987,-6.77987 6.7798715,6.7798715 0 0 1 6.77987,6.77987 z" />
      <path
         id="circle6661"
         style="fill:#6838a0;stroke:#9e9ebd;stroke-width:1.2"
         d="m 156.55686,158.09279 a 6.7798715,6.7798715 0 0 1 -6.77987,6.77987 6.7798715,6.7798715 0 0 1 -6.77987,-6.77987 6.7798715,6.7798715 0 0 1 6.77987,-6.77987 6.7798715,6.7798715 0 0 1 6.77987,6.77987 z" />
      <path
         id="circle6663"
         style="fill:#6838a0;stroke:#9e9ebd;stroke-width:1.2"
         d="m 173.72341,158.09279 a 6.7798715,6.7798715 0 0 1 -6.77987,6.77987 6.7798715,6.7798715 0 0 1 -6.77987,-6.77987 6.7798715,6.7798715 0 0 1 6.77987,-6.77987 6.7798715,6.7798715 0 0 1 6.77987,6.77987 z" />
      <path
         id="circle6665"
         style="fill:#6838a0;stroke:#9e9ebd;stroke-width:1.2"
         d="m 190.88995,158.09279 a 6.7798715,6.7798715 0 0 1 -6.77987,6.77987 6.7798715,6.7798715 0 0 1 -6.77987,-6.77987 6.7798715,6.7798715 0 0 1 6.77987,-6.77987 6.7798715,6.7798715 0 0 1 6.77987,6.77987 z" />
      <path
         id="circle6667"
         style="fill:#6838a0;stroke:#9e9ebd;stroke-width:1.2"
         d="m 208.05648,158.09279 a 6.7798715,6.7798715 0 0 1 -6.77987,6.77987 6.7798715,6.7798715 0 0 1 -6.77987,-6.77987 6.7798715,6.7798715 0 0 1 6.77987,-6.77987 6.7798715,6.7798715 0 0 1 6.77987,6.77987 z" />
      <path
         id="circle6669"
         style="fill:#6838a0;stroke:#9e9ebd;stroke-width:1.2"
         d="m 225.22303,158.09279 a 6.7798715,6.7798715 0 0 1 -6.77987,6.77987 6.7798715,6.7798715 0 0 1 -6.77987,-6.77987 6.7798715,6.7798715 0 0 1 6.77987,-6.77987 6.7798715,6.7798715 0 0 1 6.77987,6.77987 z" />
    </g>
    <g
       id="g6697"
       transform="matrix(0.8660254,0.5,-1,0.57735027,232.61967,-55.041193)">
      <path
         id="circle6673"
         style="fill:#6838a0;stroke:#9e9ebd;stroke-width:1.2"
         d="m 36.391085,158.09279 a 6.7798715,6.7798715 0 0 1 -6.779871,6.77987 6.7798715,6.7798715 0 0 1 -6.779872,-6.77987 6.7798715,6.7798715 0 0 1 6.779872,-6.77987 6.7798715,6.7798715 0 0 1 6.779871,6.77987 z" />
      <path
         id="circle6675"
         style="fill:#6838a0;stroke:#9e9ebd;stroke-width:1.2"
         d="m 53.557627,158.09279 a 6.7798715,6.7798715 0 0 1 -6.779871,6.77987 6.7798715,6.7798715 0 0 1 -6.779872,-6.77987 6.7798715,6.7798715 0 0 1 6.779872,-6.77987 6.7798715,6.7798715 0 0 1 6.779871,6.77987 z" />
      <path
         id="circle6677"
         style="fill:#6838a0;stroke:#9e9ebd;stroke-width:1.2"
         d="m 70.724169,158.09279 a 6.7798715,6.7798715 0 0 1 -6.779871,6.77987 6.7798715,6.7798715 0 0 1 -6.779872,-6.77987 6.7798715,6.7798715 0 0 1 6.779872,-6.77987 6.7798715,6.7798715 0 0 1 6.779871,6.77987 z" />
      <path
         id="circle6679"
         style="fill:#6838a0;stroke:#9e9ebd;stroke-width:1.2"
         d="m 87.890704,158.09279 a 6.7798715,6.7798715 0 0 1 -6.779872,6.77987 6.7798715,6.7798715 0 0 1 -6.779871,-6.77987 6.7798715,6.7798715 0 0 1 6.779871,-6.77987 6.7798715,6.7798715 0 0 1 6.779872,6.77987 z" />
      <path
         id="circle6681"
         style="fill:#6838a0;stroke:#9e9ebd;stroke-width:1.2"
         d="m 105.05725,158.09279 a 6.7798715,6.7798715 0 0 1 -6.779876,6.77987 6.7798715,6.7798715 0 0 1 -6.779871,-6.77987 6.7798715,6.7798715 0 0 1 6.779871,-6.77987 6.7798715,6.7798715 0 0 1 6.779876,6.77987 z" />
      <path
         id="circle6683"
         style="fill:#6838a0;stroke:#9e9ebd;stroke-width:1.2"
         d="m 122.22379,158.09279 a 6.7798715,6.7798715 0 0 1 -6.77987,6.77987 6.7798715,6.7798715 0 0 1 -6.77988,-6.77987 6.7798715,6.7798715 0 0 1 6.77988,-6.77987 6.7798715,6.7798715 0 0 1 6.77987,6.77987 z" />
      <path
         id="circle6685"
         style="fill:#6838a0;stroke:#9e9ebd;stroke-width:1.2"
         d="m 139.39033,158.09279 a 6.7798715,6.7798715 0 0 1 -6.77987,6.77987 6.7798715,6.7798715 0 0 1 -6.77987,-6.77987 6.7798715,6.7798715 0 0 1 6.77987,-6.77987 6.7798715,6.7798715 0 0 1 6.77987,6.77987 z" />
      <path
         id="circle6687"
         style="fill:#6838a0;stroke:#9e9ebd;stroke-width:1.2"
         d="m 156.55686,158.09279 a 6.7798715,6.7798715 0 0 1 -6.77987,6.77987 6.7798715,6.7798715 0 0 1 -6.77987,-6.77987 6.7798715,6.7798715 0 0 1 6.77987,-6.77987 6.7798715,6.7798715 0 0 1 6.77987,6.77987 z" />
      <path
         id="circle6689"
         style="fill:#6838a0;stroke:#9e9ebd;stroke-width:1.2"
         d="m 173.72341,158.09279 a 6.7798715,6.7798715 0 0 1 -6.77987,6.77987 6.7798715,6.7798715 0 0 1 -6.77987,-6.77987 6.7798715,6.7798715 0 0 1 6.77987,-6.77987 6.7798715,6.7798715 0 0 1 6.77987,6.77987 z" />
      <path
         id="circle6691"
         style="fill:#6838a0;stroke:#9e9ebd;stroke-width:1.2"
         d="m 190.88995,158.09279 a 6.7798715,6.7798715 0 0 1 -6.77987,6.77987 6.7798715,6.7798715 0 0 1 -6.77987,-6.77987 6.7798715,6.7798715 0 0 1 6.77987,-6.77987 6.7798715,6.7798715 0 0 1 6.77987,6.77987 z" />
      <path
         id="circle6693"
         style="fill:#6838a0;stroke:#9e9ebd;stroke-width:1.2"
         d="m 208.05648,158.09279 a 6.7798715,6.7798715 0 0 1 -6.77987,6.77987 6.7798715,6.7798715 0 0 1 -6.77987,-6.77987 6.7798715,6.7798715 0 0 1 6.77987,-6.77987 6.7798715,6.7798715 0 0 1 6.77987,6.77987 z" />
      <path
         id="circle6695"
         style="fill:#6838a0;stroke:#9e9ebd;stroke-width:1.2"
         d="m 225.22303,158.09279 a 6.7798715,6.7798715 0 0 1 -6.77987,6.77987 6.7798715,6.7798715 0 0 1 -6.77987,-6.77987 6.7798715,6.7798715 0 0 1 6.77987,-6.77987 6.7798715,6.7798715 0 0 1 6.77987,6.77987 z" />
    </g>
    <g
       id="g6723"
       transform="matrix(0.8660254,0.5,-1,0.57735027,250.26995,-65.231587)">
      <path
         id="circle6699"
         style="fill:#6838a0;stroke:#9e9ebd;stroke-width:1.2"
         d="m 36.391085,158.09279 a 6.7798715,6.7798715 0 0 1 -6.779871,6.77987 6.7798715,6.7798715 0 0 1 -6.779872,-6.77987 6.7798715,6.7798715 0 0 1 6.779872,-6.77987 6.7798715,6.7798715 0 0 1 6.779871,6.77987 z" />
      <path
         id="circle6701"
         style="fill:#6838a0;stroke:#9e9ebd;stroke-width:1.2"
         d="m 53.557627,158.09279 a 6.7798715,6.7798715 0 0 1 -6.779871,6.77987 6.7798715,6.7798715 0 0 1 -6.779872,-6.77987 6.7798715,6.7798715 0 0 1 6.779872,-6.77987 6.7798715,6.7798715 0 0 1 6.779871,6.77987 z" />
      <path
         id="circle6703"
         style="fill:#6838a0;stroke:#9e9ebd;stroke-width:1.2"
         d="m 70.724169,158.09279 a 6.7798715,6.7798715 0 0 1 -6.779871,6.77987 6.7798715,6.7798715 0 0 1 -6.779872,-6.77987 6.7798715,6.7798715 0 0 1 6.779872,-6.77987 6.7798715,6.7798715 0 0 1 6.779871,6.77987 z" />
      <path
         id="circle6705"
         style="fill:#6838a0;stroke:#9e9ebd;stroke-width:1.2"
         d="m 87.890704,158.09279 a 6.7798715,6.7798715 0 0 1 -6.779872,6.77987 6.7798715,6.7798715 0 0 1 -6.779871,-6.77987 6.7798715,6.7798715 0 0 1 6.779871,-6.77987 6.7798715,6.7798715 0 0 1 6.779872,6.77987 z" />
      <path
         id="circle6707"
         style="fill:#6838a0;stroke:#9e9ebd;stroke-width:1.2"
         d="m 105.05725,158.09279 a 6.7798715,6.7798715 0 0 1 -6.779876,6.77987 6.7798715,6.7798715 0 0 1 -6.779871,-6.77987 6.7798715,6.7798715 0 0 1 6.779871,-6.77987 6.7798715,6.7798715 0 0 1 6.779876,6.77987 z" />
      <path
         id="circle6709"
         style="fill:#6838a0;stroke:#9e9ebd;stroke-width:1.2"
         d="m 122.22379,158.09279 a 6.7798715,6.7798715 0 0 1 -6.77987,6.77987 6.7798715,6.7798715 0 0 1 -6.77988,-6.77987 6.7798715,6.7798715 0 0 1 6.77988,-6.77987 6.7798715,6.7798715 0 0 1 6.77987,6.77987 z" />
      <path
         id="circle6711"
         style="fill:#6838a0;stroke:#9e9ebd;stroke-width:1.2"
         d="m 139.39033,158.09279 a 6.7798715,6.7798715 0 0 1 -6.77987,6.77987 6.7798715,6.7798715 0 0 1 -6.77987,-6.77987 6.7798715,6.7798715 0 0 1 6.77987,-6.77987 6.7798715,6.7798715 0 0 1 6.77987,6.77987 z" />
      <path
         id="circle6713"
         style="fill:#6838a0;stroke:#9e9ebd;stroke-width:1.2"
         d="m 156.55686,158.09279 a 6.7798715,6.7798715 0 0 1 -6.77987,6.77987 6.7798715,6.7798715 0 0 1 -6.77987,-6.77987 6.7798715,6.7798715 0 0 1 6.77987,-6.77987 6.7798715,6.7798715 0 0 1 6.77987,6.77987 z" />
      <path
         id="circle6715"
         style="fill:#6838a0;stroke:#9e9ebd;stroke-width:1.2"
         d="m 173.72341,158.09279 a 6.7798715,6.7798715 0 0 1 -6.77987,6.77987 6.7798715,6.7798715 0 0 1 -6.77987,-6.77987 6.7798715,6.7798715 0 0 1 6.77987,-6.77987 6.7798715,6.7798715 0 0 1 6.77987,6.77987 z" />
      <path
         id="circle6717"
         style="fill:#6838a0;stroke:#9e9ebd;stroke-width:1.2"
         d="m 190.88995,158.09279 a 6.7798715,6.7798715 0 0 1 -6.77987,6.77987 6.7798715,6.7798715 0 0 1 -6.77987,-6.77987 6.7798715,6.7798715 0 0 1 6.77987,-6.77987 6.7798715,6.7798715 0 0 1 6.77987,6.77987 z" />
      <path
         id="circle6719"
         style="fill:#6838a0;stroke:#9e9ebd;stroke-width:1.2"
         d="m 208.05648,158.09279 a 6.7798715,6.7798715 0 0 1 -6.77987,6.77987 6.7798715,6.7798715 0 0 1 -6.77987,-6.77987 6.7798715,6.7798715 0 0 1 6.77987,-6.77987 6.7798715,6.7798715 0 0 1 6.77987,6.77987 z" />
      <path
         id="circle6721"
         style="fill:#6838a0;stroke:#9e9ebd;stroke-width:1.2"
         d="m 225.22303,158.09279 a 6.7798715,6.7798715 0 0 1 -6.77987,6.77987 6.7798715,6.7798715 0 0 1 -6.77987,-6.77987 6.7798715,6.7798715 0 0 1 6.77987,-6.77987 6.7798715,6.7798715 0 0 1 6.77987,6.77987 z" />
    </g>
    <g
       id="g6749"
       transform="matrix(0.8660254,0.5,-1,0.57735027,267.92024,-75.421983)">
      <path
         id="circle6725"
         style="fill:#6838a0;stroke:#9e9ebd;stroke-width:1.2"
         d="m 36.391085,158.09279 a 6.7798715,6.7798715 0 0 1 -6.779871,6.77987 6.7798715,6.7798715 0 0 1 -6.779872,-6.77987 6.7798715,6.7798715 0 0 1 6.779872,-6.77987 6.7798715,6.7798715 0 0 1 6.779871,6.77987 z" />
      <path
         id="circle6727"
         style="fill:#6838a0;stroke:#9e9ebd;stroke-width:1.2"
         d="m 53.557627,158.09279 a 6.7798715,6.7798715 0 0 1 -6.779871,6.77987 6.7798715,6.7798715 0 0 1 -6.779872,-6.77987 6.7798715,6.7798715 0 0 1 6.779872,-6.77987 6.7798715,6.7798715 0 0 1 6.779871,6.77987 z" />
      <path
         id="circle6729"
         style="fill:#6838a0;stroke:#9e9ebd;stroke-width:1.2"
         d="m 70.724169,158.09279 a 6.7798715,6.7798715 0 0 1 -6.779871,6.77987 6.7798715,6.7798715 0 0 1 -6.779872,-6.77987 6.7798715,6.7798715 0 0 1 6.779872,-6.77987 6.7798715,6.7798715 0 0 1 6.779871,6.77987 z" />
      <path
         id="circle6731"
         style="fill:#6838a0;stroke:#9e9ebd;stroke-width:1.2"
         d="m 87.890704,158.09279 a 6.7798715,6.7798715 0 0 1 -6.779872,6.77987 6.7798715,6.7798715 0 0 1 -6.779871,-6.77987 6.7798715,6.7798715 0 0 1 6.779871,-6.77987 6.7798715,6.7798715 0 0 1 6.779872,6.77987 z" />
      <path
         id="circle6733"
         style="fill:#6838a0;stroke:#9e9ebd;stroke-width:1.2"
         d="m 105.05725,158.09279 a 6.7798715,6.7798715 0 0 1 -6.779876,6.77987 6.7798715,6.7798715 0 0 1 -6.779871,-6.77987 6.7798715,6.7798715 0 0 1 6.779871,-6.77987 6.7798715,6.7798715 0 0 1 6.779876,6.77987 z" />
      <path
         id="circle6735"
         style="fill:#6838a0;stroke:#9e9ebd;stroke-width:1.2"
         d="m 122.22379,158.09279 a 6.7798715,6.7798715 0 0 1 -6.77987,6.77987 6.7798715,6.7798715 0 0 1 -6.77988,-6.77987 6.7798715,6.7798715 0 0 1 6.77988,-6.77987 6.7798715,6.7798715 0 0 1 6.77987,6.77987 z" />
      <path
         id="circle6737"
         style="fill:#6838a0;stroke:#9e9ebd;stroke-width:1.2"
         d="m 139.39033,158.09279 a 6.7798715,6.7798715 0 0 1 -6.77987,6.77987 6.7798715,6.7798715 0 0 1 -6.77987,-6.77987 6.7798715,6.7798715 0 0 1 6.77987,-6.77987 6.7798715,6.7798715 0 0 1 6.77987,6.77987 z" />
      <path
         id="circle6739"
         style="fill:#6838a0;stroke:#9e9ebd;stroke-width:1.2"
         d="m 156.55686,158.09279 a 6.7798715,6.7798715 0 0 1 -6.77987,6.77987 6.7798715,6.7798715 0 0 1 -6.77987,-6.77987 6.7798715,6.7798715 0 0 1 6.77987,-6.77987 6.7798715,6.7798715 0 0 1 6.77987,6.77987 z" />
      <path
         id="circle6741"
         style="fill:#6838a0;stroke:#9e9ebd;stroke-width:1.2"
         d="m 173.72341,158.09279 a 6.7798715,6.7798715 0 0 1 -6.77987,6.77987 6.7798715,6.7798715 0 0 1 -6.77987,-6.77987 6.7798715,6.7798715 0 0 1 6.77987,-6.77987 6.7798715,6.7798715 0 0 1 6.77987,6.77987 z" />
      <path
         id="circle6743"
         style="fill:#6838a0;stroke:#9e9ebd;stroke-width:1.2"
         d="m 190.88995,158.09279 a 6.7798715,6.7798715 0 0 1 -6.77987,6.77987 6.7798715,6.7798715 0 0 1 -6.77987,-6.77987 6.7798715,6.7798715 0 0 1 6.77987,-6.77987 6.7798715,6.7798715 0 0 1 6.77987,6.77987 z" />
      <path
         id="circle6745"
         style="fill:#6838a0;stroke:#9e9ebd;stroke-width:1.2"
         d="m 208.05648,158.09279 a 6.7798715,6.7798715 0 0 1 -6.77987,6.77987 6.7798715,6.7798715 0 0 1 -6.77987,-6.77987 6.7798715,6.7798715 0 0 1 6.77987,-6.77987 6.7798715,6.7798715 0 0 1 6.77987,6.77987 z" />
      <path
         id="circle6747"
         style="fill:#6838a0;stroke:#9e9ebd;stroke-width:1.2"
         d="m 225.22303,158.09279 a 6.7798715,6.7798715 0 0 1 -6.77987,6.77987 6.7798715,6.7798715 0 0 1 -6.77987,-6.77987 6.7798715,6.7798715 0 0 1 6.77987,-6.77987 6.7798715,6.7798715 0 0 1 6.77987,6.77987 z" />
    </g>
    <g
       id="g6775"
       transform="matrix(0.8660254,0.5,-1,0.57735027,285.57053,-85.612382)">
      <path
         id="circle6751"
         style="fill:#6838a0;stroke:#9e9ebd;stroke-width:1.2"
         d="m 36.391085,158.09279 a 6.7798715,6.7798715 0 0 1 -6.779871,6.77987 6.7798715,6.7798715 0 0 1 -6.779872,-6.77987 6.7798715,6.7798715 0 0 1 6.779872,-6.77987 6.7798715,6.7798715 0 0 1 6.779871,6.77987 z" />
      <path
         id="circle6753"
         style="fill:#6838a0;stroke:#9e9ebd;stroke-width:1.2"
         d="m 53.557627,158.09279 a 6.7798715,6.7798715 0 0 1 -6.779871,6.77987 6.7798715,6.7798715 0 0 1 -6.779872,-6.77987 6.7798715,6.7798715 0 0 1 6.779872,-6.77987 6.7798715,6.7798715 0 0 1 6.779871,6.77987 z" />
      <path
         id="circle6755"
         style="fill:#6838a0;stroke:#9e9ebd;stroke-width:1.2"
         d="m 70.724169,158.09279 a 6.7798715,6.7798715 0 0 1 -6.779871,6.77987 6.7798715,6.7798715 0 0 1 -6.779872,-6.77987 6.7798715,6.7798715 0 0 1 6.779872,-6.77987 6.7798715,6.7798715 0 0 1 6.779871,6.77987 z" />
      <path
         id="circle6757"
         style="fill:#6838a0;stroke:#9e9ebd;stroke-width:1.2"
         d="m 87.890704,158.09279 a 6.7798715,6.7798715 0 0 1 -6.779872,6.77987 6.7798715,6.7798715 0 0 1 -6.779871,-6.77987 6.7798715,6.7798715 0 0 1 6.779871,-6.77987 6.7798715,6.7798715 0 0 1 6.779872,6.77987 z" />
      <path
         id="circle6759"
         style="fill:#6838a0;stroke:#9e9ebd;stroke-width:1.2"
         d="m 105.05725,158.09279 a 6.7798715,6.7798715 0 0 1 -6.779876,6.77987 6.7798715,6.7798715 0 0 1 -6.779871,-6.77987 6.7798715,6.7798715 0 0 1 6.779871,-6.77987 6.7798715,6.7798715 0 0 1 6.779876,6.77987 z" />
      <path
         id="circle6761"
         style="fill:#6838a0;stroke:#9e9ebd;stroke-width:1.2"
         d="m 122.22379,158.09279 a 6.7798715,6.7798715 0 0 1 -6.77987,6.77987 6.7798715,6.7798715 0 0 1 -6.77988,-6.77987 6.7798715,6.7798715 0 0 1 6.77988,-6.77987 6.7798715,6.7798715 0 0 1 6.77987,6.77987 z" />
      <path
         id="circle6763"
         style="fill:#6838a0;stroke:#9e9ebd;stroke-width:1.2"
         d="m 139.39033,158.09279 a 6.7798715,6.7798715 0 0 1 -6.77987,6.77987 6.7798715,6.7798715 0 0 1 -6.77987,-6.77987 6.7798715,6.7798715 0 0 1 6.77987,-6.77987 6.7798715,6.7798715 0 0 1 6.77987,6.77987 z" />
      <path
         id="circle6765"
         style="fill:#6838a0;stroke:#9e9ebd;stroke-width:1.2"
         d="m 156.55686,158.09279 a 6.7798715,6.7798715 0 0 1 -6.77987,6.77987 6.7798715,6.7798715 0 0 1 -6.77987,-6.77987 6.7798715,6.7798715 0 0 1 6.77987,-6.77987 6.7798715,6.7798715 0 0 1 6.77987,6.77987 z" />
      <path
         id="circle6767"
         style="fill:#6838a0;stroke:#9e9ebd;stroke-width:1.2"
         d="m 173.72341,158.09279 a 6.7798715,6.7798715 0 0 1 -6.77987,6.77987 6.7798715,6.7798715 0 0 1 -6.77987,-6.77987 6.7798715,6.7798715 0 0 1 6.77987,-6.77987 6.7798715,6.7798715 0 0 1 6.77987,6.77987 z" />
      <path
         id="circle6769"
         style="fill:#6838a0;stroke:#9e9ebd;stroke-width:1.2"
         d="m 190.88995,158.09279 a 6.7798715,6.7798715 0 0 1 -6.77987,6.77987 6.7798715,6.7798715 0 0 1 -6.77987,-6.77987 6.7798715,6.7798715 0 0 1 6.77987,-6.77987 6.7798715,6.7798715 0 0 1 6.77987,6.77987 z" />
      <path
         id="circle6771"
         style="fill:#6838a0;stroke:#9e9ebd;stroke-width:1.2"
         d="m 208.05648,158.09279 a 6.7798715,6.7798715 0 0 1 -6.77987,6.77987 6.7798715,6.7798715 0 0 1 -6.77987,-6.77987 6.7798715,6.7798715 0 0 1 6.77987,-6.77987 6.7798715,6.7798715 0 0 1 6.77987,6.77987 z" />
      <path
         id="circle6773"
         style="fill:#6838a0;stroke:#9e9ebd;stroke-width:1.2"
         d="m 225.22303,158.09279 a 6.7798715,6.7798715 0 0 1 -6.77987,6.77987 6.7798715,6.7798715 0 0 1 -6.77987,-6.77987 6.7798715,6.7798715 0 0 1 6.77987,-6.77987 6.7798715,6.7798715 0 0 1 6.77987,6.77987 z" />
    </g>
    <path
       style="fill:#9e9ebd;fill-opacity:1;stroke:#9e9ebd;stroke-width:0.945;stroke-linecap:butt;stroke-linejoin:miter;stroke-miterlimit:4;stroke-dasharray:none;stroke-opacity:1"
       d="m 186.82177,199.15301 v 14.07416"
       id="path1201" />
  </g>
</svg>
