<?xml version="1.0" encoding="UTF-8" standalone="no"?>
<!-- Created with Inkscape (http://www.inkscape.org/) -->

<svg
   width="294.41965mm"
   height="221.51895mm"
   viewBox="0 0 294.41965 221.51895"
   version="1.1"
   id="svg5"
   inkscape:version="1.1 (c4e8f9e, 2021-05-24)"
   sodipodi:docname="Plate-Finalv2-NEW.svg"
   inkscape:export-filename="/Users/christian/Documents/Personal_Projects/freezuh_project/assets/pictures/Plate-Final.png"
   inkscape:export-xdpi="96"
   inkscape:export-ydpi="96"
   xmlns:inkscape="http://www.inkscape.org/namespaces/inkscape"
   xmlns:sodipodi="http://sodipodi.sourceforge.net/DTD/sodipodi-0.dtd"
   xmlns="http://www.w3.org/2000/svg"
   xmlns:svg="http://www.w3.org/2000/svg">
  <sodipodi:namedview
     id="namedview7"
     pagecolor="#ffffff"
     bordercolor="#666666"
     borderopacity="1.0"
     inkscape:pageshadow="2"
     inkscape:pageopacity="0.0"
     inkscape:pagecheckerboard="0"
     inkscape:document-units="mm"
     showgrid="false"
     units="mm"
     width="250mm"
     inkscape:zoom="0.54883845"
     inkscape:cx="465.52861"
     inkscape:cy="334.34246"
     inkscape:window-width="1920"
     inkscape:window-height="1027"
     inkscape:window-x="1440"
     inkscape:window-y="25"
     inkscape:window-maximized="1"
     inkscape:current-layer="layer1"
     inkscape:object-paths="true"
     inkscape:object-nodes="false"
     inkscape:snap-text-baseline="true"
     fit-margin-top="5"
     fit-margin-left="5"
     fit-margin-right="5"
     fit-margin-bottom="5" />
  <defs
     id="defs2" />
  <g
     inkscape:label="Layer 1"
     inkscape:groupmode="layer"
     id="layer1"
     transform="translate(4.2274842,3.9188886)">
    <path
       id="path46394"
       style="fill:#c8c8d9;fill-opacity:1;stroke:#9e9ebd;stroke-width:0.964;stroke-linejoin:round;stroke-miterlimit:4;stroke-dasharray:none"
       d="m 279.82572,59.850755 -4.04414,8.507742 -203.869288,-54.62661 c -0.943391,-0.252781 -1.929651,0.0132 -2.211355,0.595689 L 6.1925908,145.64883 11.084793,157.39207 214.96456,212.02149 c 0.94337,0.25276 1.92991,-0.0126 2.21172,-0.5947 L 284.64249,71.920994 c 0.11561,-0.239059 0.0878,-0.492101 -0.0431,-0.726293 l 0.005,-0.0035 z" />
    <path
       id="rect846"
       style="fill:#c8c8d9;fill-opacity:1;stroke:#9e9ebd;stroke-width:0.963983"
       d="m 67.020489,1.988793 c -0.943388,-0.2527803 -1.92988,0.012884 -2.21158,0.5953865 L 1.300791,133.90551 6.1927532,145.64871 210.07284,200.27822 c 0.9434,0.25277 1.92968,-0.0124 2.21145,-0.59462 l 67.4661,-139.506042 c 0.28169,-0.582491 -0.25103,-1.255204 -1.19438,-1.507992 z" />
    <g
       id="g6593"
       transform="matrix(0.96592583,0.25881905,-0.44321498,0.91651708,68.079539,-16.740199)">
      <path
         id="path1185"
         style="fill:#6838a0;stroke:#9e9ebd;stroke-width:1.2"
         d="m 36.391085,158.09279 a 6.7798715,6.7798715 0 0 1 -6.779871,6.77987 6.7798715,6.7798715 0 0 1 -6.779872,-6.77987 6.7798715,6.7798715 0 0 1 6.779872,-6.77987 6.7798715,6.7798715 0 0 1 6.779871,6.77987 z" />
      <path
         id="circle1575"
         style="fill:#6838a0;stroke:#9e9ebd;stroke-width:1.2"
         d="m 53.557627,158.09279 a 6.7798715,6.7798715 0 0 1 -6.779871,6.77987 6.7798715,6.7798715 0 0 1 -6.779872,-6.77987 6.7798715,6.7798715 0 0 1 6.779872,-6.77987 6.7798715,6.7798715 0 0 1 6.779871,6.77987 z" />
      <path
         id="circle1577"
         style="fill:#6838a0;stroke:#9e9ebd;stroke-width:1.2"
         d="m 70.724169,158.09279 a 6.7798715,6.7798715 0 0 1 -6.779871,6.77987 6.7798715,6.7798715 0 0 1 -6.779872,-6.77987 6.7798715,6.7798715 0 0 1 6.779872,-6.77987 6.7798715,6.7798715 0 0 1 6.779871,6.77987 z" />
      <path
         id="circle1579"
         style="fill:#6838a0;stroke:#9e9ebd;stroke-width:1.2"
         d="m 87.890704,158.09279 a 6.7798715,6.7798715 0 0 1 -6.779872,6.77987 6.7798715,6.7798715 0 0 1 -6.779871,-6.77987 6.7798715,6.7798715 0 0 1 6.779871,-6.77987 6.7798715,6.7798715 0 0 1 6.779872,6.77987 z" />
      <path
         id="circle1581"
         style="fill:#6838a0;stroke:#9e9ebd;stroke-width:1.2"
         d="m 105.05725,158.09279 a 6.7798715,6.7798715 0 0 1 -6.779876,6.77987 6.7798715,6.7798715 0 0 1 -6.779871,-6.77987 6.7798715,6.7798715 0 0 1 6.779871,-6.77987 6.7798715,6.7798715 0 0 1 6.779876,6.77987 z" />
      <path
         id="circle1583"
         style="fill:#6838a0;stroke:#9e9ebd;stroke-width:1.2"
         d="m 122.22379,158.09279 a 6.7798715,6.7798715 0 0 1 -6.77987,6.77987 6.7798715,6.7798715 0 0 1 -6.77988,-6.77987 6.7798715,6.7798715 0 0 1 6.77988,-6.77987 6.7798715,6.7798715 0 0 1 6.77987,6.77987 z" />
      <path
         id="circle1585"
         style="fill:#6838a0;stroke:#9e9ebd;stroke-width:1.2"
         d="m 139.39033,158.09279 a 6.7798715,6.7798715 0 0 1 -6.77987,6.77987 6.7798715,6.7798715 0 0 1 -6.77987,-6.77987 6.7798715,6.7798715 0 0 1 6.77987,-6.77987 6.7798715,6.7798715 0 0 1 6.77987,6.77987 z" />
      <path
         id="circle1587"
         style="fill:#6838a0;stroke:#9e9ebd;stroke-width:1.2"
         d="m 156.55686,158.09279 a 6.7798715,6.7798715 0 0 1 -6.77987,6.77987 6.7798715,6.7798715 0 0 1 -6.77987,-6.77987 6.7798715,6.7798715 0 0 1 6.77987,-6.77987 6.7798715,6.7798715 0 0 1 6.77987,6.77987 z" />
      <path
         id="circle1589"
         style="fill:#6838a0;stroke:#9e9ebd;stroke-width:1.2"
         d="m 173.72341,158.09279 a 6.7798715,6.7798715 0 0 1 -6.77987,6.77987 6.7798715,6.7798715 0 0 1 -6.77987,-6.77987 6.7798715,6.7798715 0 0 1 6.77987,-6.77987 6.7798715,6.7798715 0 0 1 6.77987,6.77987 z" />
      <path
         id="circle1591"
         style="fill:#6838a0;stroke:#9e9ebd;stroke-width:1.2"
         d="m 190.88995,158.09279 a 6.7798715,6.7798715 0 0 1 -6.77987,6.77987 6.7798715,6.7798715 0 0 1 -6.77987,-6.77987 6.7798715,6.7798715 0 0 1 6.77987,-6.77987 6.7798715,6.7798715 0 0 1 6.77987,6.77987 z" />
      <path
         id="circle1593"
         style="fill:#6838a0;stroke:#9e9ebd;stroke-width:1.2"
         d="m 208.05648,158.09279 a 6.7798715,6.7798715 0 0 1 -6.77987,6.77987 6.7798715,6.7798715 0 0 1 -6.77987,-6.77987 6.7798715,6.7798715 0 0 1 6.77987,-6.77987 6.7798715,6.7798715 0 0 1 6.77987,6.77987 z" />
      <path
         id="circle1677"
         style="fill:#6838a0;stroke:#9e9ebd;stroke-width:1.2"
         d="m 225.22303,158.09279 a 6.7798715,6.7798715 0 0 1 -6.77987,6.77987 6.7798715,6.7798715 0 0 1 -6.77987,-6.77987 6.7798715,6.7798715 0 0 1 6.77987,-6.77987 6.7798715,6.7798715 0 0 1 6.77987,6.77987 z" />
    </g>
    <g
       aria-label="A B C D E F G H"
       id="text2859"
       style="font-size:14.1476px;line-height:1.25;font-family:Arial;-inkscape-font-specification:Arial;letter-spacing:0px;fill:#26143a;stroke-width:0.353691"
       transform="matrix(0.96592583,0.25881905,-0.44321498,0.91651708,67.391031,-16.924682)">
      <path
         d="m 9.0132974,38.666615 3.8892086,-10.12714 h 1.443773 l 4.144805,10.12714 h -1.52667 l -1.181269,-3.067156 h -4.234609 l -1.112189,3.067156 z m 2.9220876,-4.158621 h 3.43328 l -1.056926,-2.804651 q -0.48356,-1.277982 -0.718432,-2.100035 -0.193425,0.974029 -0.545733,1.934242 z"
         id="path6907" />
      <path
         d="m 10.070223,56.351115 v -10.12714 h 3.799404 q 1.160545,0 1.858254,0.310861 0.704617,0.303952 1.098373,0.946397 0.400665,0.635536 0.400665,1.333245 0,0.649353 -0.352309,1.222718 -0.352308,0.573364 -1.063833,0.925673 0.918765,0.269412 1.409234,0.918765 0.497376,0.649352 0.497376,1.533577 0,0.711525 -0.303952,1.326338 -0.297044,0.607905 -0.739157,0.939489 -0.442112,0.331584 -1.112189,0.504285 -0.663169,0.165792 -1.63029,0.165792 z m 1.340153,-5.871807 h 2.189839 q 0.891133,0 1.277981,-0.117436 0.511193,-0.151976 0.766789,-0.504285 0.262504,-0.352308 0.262504,-0.884225 0,-0.504284 -0.24178,-0.884225 -0.24178,-0.386848 -0.690801,-0.525008 -0.44902,-0.145068 -1.540486,-0.145068 h -2.024046 z m 0,4.676721 h 2.521423 q 0.649353,0 0.911857,-0.04836 0.462837,-0.0829 0.773697,-0.27632 0.31086,-0.193424 0.511192,-0.559549 0.200333,-0.373032 0.200333,-0.856593 0,-0.566456 -0.290137,-0.980937 -0.290136,-0.421388 -0.808237,-0.58718 -0.511192,-0.172701 -1.478313,-0.172701 h -2.341815 z"
         id="path6909" />
      <path
         d="m 17.351263,70.484899 1.340153,0.338492 q -0.421388,1.651014 -1.519761,2.521423 -1.091466,0.863501 -2.673399,0.863501 -1.637198,0 -2.666491,-0.663169 -1.022386,-0.670076 -1.56121,-1.934242 -0.5319168,-1.264165 -0.5319168,-2.714847 0,-1.581934 0.6009968,-2.756295 0.607905,-1.181269 1.720094,-1.789174 1.119097,-0.614813 2.459251,-0.614813 1.519761,0 2.555963,0.773697 1.036201,0.773697 1.443773,2.176023 l -1.319429,0.31086 q -0.352309,-1.105281 -1.022385,-1.609566 -0.670077,-0.504284 -1.685554,-0.504284 -1.167454,0 -1.954967,0.559548 -0.780605,0.559549 -1.098373,1.505946 -0.317768,0.939489 -0.317768,1.94115 0,1.291798 0.373032,2.258919 0.379941,0.960213 1.174362,1.436865 0.79442,0.476653 1.720093,0.476653 1.126006,0 1.906611,-0.649353 0.780605,-0.649353 1.056925,-1.927334 z"
         id="path6911" />
      <path
         d="M 10.125487,91.720115 V 81.592976 h 3.488544 q 1.181269,0 1.80299,0.145068 0.870409,0.200332 1.485221,0.725341 0.801329,0.676984 1.195086,1.73391 0.400664,1.050017 0.400664,2.403986 0,1.153638 -0.269412,2.044771 -0.269412,0.891133 -0.690801,1.478313 -0.421388,0.580273 -0.925673,0.918765 -0.497377,0.331585 -1.208901,0.504285 -0.704617,0.1727 -1.623382,0.1727 z M 11.46564,90.52503 h 2.162207 q 1.001661,0 1.568117,-0.186516 0.573365,-0.186517 0.911857,-0.525009 0.476653,-0.476653 0.739157,-1.277981 0.269413,-0.808237 0.269413,-1.954967 0,-1.588842 -0.525009,-2.438526 -0.518101,-0.856593 -1.264165,-1.14673 -0.538825,-0.20724 -1.73391,-0.20724 H 11.46564 Z"
         id="path6913" />
      <path
         d="M 10.153119,109.40462 V 99.277476 h 7.322488 v 1.195084 h -5.982335 v 3.1017 h 5.602395 v 1.18817 h -5.602395 v 3.4471 h 6.217207 v 1.19509 z"
         id="path6915" />
      <path
         d="m 10.194567,127.08912 v -10.12714 h 6.83202 v 1.19508 H 11.53472 v 3.13624 h 4.75271 v 1.19508 h -4.75271 v 4.60074 z"
         id="path6917" />
      <path
         d="m 14.86438,140.80151 v -1.18818 l 4.289873,-0.007 v 3.75795 q -0.987845,0.78752 -2.037862,1.18818 -1.050018,0.39376 -2.155299,0.39376 -1.49213,0 -2.714847,-0.63554 -1.215809,-0.64245 -1.83753,-1.85135 -0.6217208,-1.2089 -0.6217208,-2.70103 0,-1.47831 0.6148128,-2.75629 0.621721,-1.28489 1.782266,-1.90661 1.160545,-0.62172 2.673399,-0.62172 1.098373,0 1.982598,0.35921 0.891133,0.35231 1.395418,0.98785 0.504284,0.63553 0.766789,1.65792 l -1.208902,0.33158 q -0.227964,-0.77369 -0.566456,-1.21581 -0.338493,-0.44211 -0.967121,-0.70461 -0.628629,-0.26941 -1.395418,-0.26941 -0.918765,0 -1.588842,0.28322 -0.670077,0.27632 -1.084557,0.73225 -0.407572,0.45593 -0.635537,1.00166 -0.386848,0.93949 -0.386848,2.03787 0,1.35397 0.462836,2.26582 0.469745,0.91186 1.360878,1.35397 0.891133,0.44211 1.892794,0.44211 0.870409,0 1.69937,-0.33158 0.828961,-0.33849 1.257257,-0.71843 v -1.88589 z"
         id="path6919" />
      <path
         d="m 10.166935,162.45812 v -10.12714 h 1.340153 v 4.15862 h 5.263902 v -4.15862 h 1.340154 v 10.12714 H 16.77099 v -4.77344 h -5.263902 v 4.77344 z"
         id="path6921" />
    </g>
    <g
       id="g6619"
       transform="matrix(0.96592583,0.25881905,-0.44321498,0.91651708,75.902423,-32.917002)">
      <path
         id="circle6595"
         style="fill:#6838a0;stroke:#9e9ebd;stroke-width:1.2"
         d="m 36.391085,158.09279 a 6.7798715,6.7798715 0 0 1 -6.779871,6.77987 6.7798715,6.7798715 0 0 1 -6.779872,-6.77987 6.7798715,6.7798715 0 0 1 6.779872,-6.77987 6.7798715,6.7798715 0 0 1 6.779871,6.77987 z" />
      <path
         id="circle6597"
         style="fill:#6838a0;stroke:#9e9ebd;stroke-width:1.2"
         d="m 53.557627,158.09279 a 6.7798715,6.7798715 0 0 1 -6.779871,6.77987 6.7798715,6.7798715 0 0 1 -6.779872,-6.77987 6.7798715,6.7798715 0 0 1 6.779872,-6.77987 6.7798715,6.7798715 0 0 1 6.779871,6.77987 z" />
      <path
         id="circle6599"
         style="fill:#6838a0;stroke:#9e9ebd;stroke-width:1.2"
         d="m 70.724169,158.09279 a 6.7798715,6.7798715 0 0 1 -6.779871,6.77987 6.7798715,6.7798715 0 0 1 -6.779872,-6.77987 6.7798715,6.7798715 0 0 1 6.779872,-6.77987 6.7798715,6.7798715 0 0 1 6.779871,6.77987 z" />
      <path
         id="circle6601"
         style="fill:#6838a0;stroke:#9e9ebd;stroke-width:1.2"
         d="m 87.890704,158.09279 a 6.7798715,6.7798715 0 0 1 -6.779872,6.77987 6.7798715,6.7798715 0 0 1 -6.779871,-6.77987 6.7798715,6.7798715 0 0 1 6.779871,-6.77987 6.7798715,6.7798715 0 0 1 6.779872,6.77987 z" />
      <path
         id="circle6603"
         style="fill:#6838a0;stroke:#9e9ebd;stroke-width:1.2"
         d="m 105.05725,158.09279 a 6.7798715,6.7798715 0 0 1 -6.779876,6.77987 6.7798715,6.7798715 0 0 1 -6.779871,-6.77987 6.7798715,6.7798715 0 0 1 6.779871,-6.77987 6.7798715,6.7798715 0 0 1 6.779876,6.77987 z" />
      <path
         id="circle6605"
         style="fill:#6838a0;stroke:#9e9ebd;stroke-width:1.2"
         d="m 122.22379,158.09279 a 6.7798715,6.7798715 0 0 1 -6.77987,6.77987 6.7798715,6.7798715 0 0 1 -6.77988,-6.77987 6.7798715,6.7798715 0 0 1 6.77988,-6.77987 6.7798715,6.7798715 0 0 1 6.77987,6.77987 z" />
      <path
         id="circle6607"
         style="fill:#6838a0;stroke:#9e9ebd;stroke-width:1.2"
         d="m 139.39033,158.09279 a 6.7798715,6.7798715 0 0 1 -6.77987,6.77987 6.7798715,6.7798715 0 0 1 -6.77987,-6.77987 6.7798715,6.7798715 0 0 1 6.77987,-6.77987 6.7798715,6.7798715 0 0 1 6.77987,6.77987 z" />
      <path
         id="circle6609"
         style="fill:#6838a0;stroke:#9e9ebd;stroke-width:1.2"
         d="m 156.55686,158.09279 a 6.7798715,6.7798715 0 0 1 -6.77987,6.77987 6.7798715,6.7798715 0 0 1 -6.77987,-6.77987 6.7798715,6.7798715 0 0 1 6.77987,-6.77987 6.7798715,6.7798715 0 0 1 6.77987,6.77987 z" />
      <path
         id="circle6611"
         style="fill:#6838a0;stroke:#9e9ebd;stroke-width:1.2"
         d="m 173.72341,158.09279 a 6.7798715,6.7798715 0 0 1 -6.77987,6.77987 6.7798715,6.7798715 0 0 1 -6.77987,-6.77987 6.7798715,6.7798715 0 0 1 6.77987,-6.77987 6.7798715,6.7798715 0 0 1 6.77987,6.77987 z" />
      <path
         id="circle6613"
         style="fill:#6838a0;stroke:#9e9ebd;stroke-width:1.2"
         d="m 190.88995,158.09279 a 6.7798715,6.7798715 0 0 1 -6.77987,6.77987 6.7798715,6.7798715 0 0 1 -6.77987,-6.77987 6.7798715,6.7798715 0 0 1 6.77987,-6.77987 6.7798715,6.7798715 0 0 1 6.77987,6.77987 z" />
      <path
         id="circle6615"
         style="fill:#6838a0;stroke:#9e9ebd;stroke-width:1.2"
         d="m 208.05648,158.09279 a 6.7798715,6.7798715 0 0 1 -6.77987,6.77987 6.7798715,6.7798715 0 0 1 -6.77987,-6.77987 6.7798715,6.7798715 0 0 1 6.77987,-6.77987 6.7798715,6.7798715 0 0 1 6.77987,6.77987 z" />
      <path
         id="circle6617"
         style="fill:#6838a0;stroke:#9e9ebd;stroke-width:1.2"
         d="m 225.22303,158.09279 a 6.7798715,6.7798715 0 0 1 -6.77987,6.77987 6.7798715,6.7798715 0 0 1 -6.77987,-6.77987 6.7798715,6.7798715 0 0 1 6.77987,-6.77987 6.7798715,6.7798715 0 0 1 6.77987,6.77987 z" />
    </g>
    <g
       id="g6645"
       transform="matrix(0.96592583,0.25881905,-0.44321498,0.91651708,83.725293,-49.093776)">
      <path
         id="circle6621"
         style="fill:#6838a0;stroke:#9e9ebd;stroke-width:1.2"
         d="m 36.391085,158.09279 a 6.7798715,6.7798715 0 0 1 -6.779871,6.77987 6.7798715,6.7798715 0 0 1 -6.779872,-6.77987 6.7798715,6.7798715 0 0 1 6.779872,-6.77987 6.7798715,6.7798715 0 0 1 6.779871,6.77987 z" />
      <path
         id="circle6623"
         style="fill:#6838a0;stroke:#9e9ebd;stroke-width:1.2"
         d="m 53.557627,158.09279 a 6.7798715,6.7798715 0 0 1 -6.779871,6.77987 6.7798715,6.7798715 0 0 1 -6.779872,-6.77987 6.7798715,6.7798715 0 0 1 6.779872,-6.77987 6.7798715,6.7798715 0 0 1 6.779871,6.77987 z" />
      <path
         id="circle6625"
         style="fill:#6838a0;stroke:#9e9ebd;stroke-width:1.2"
         d="m 70.724169,158.09279 a 6.7798715,6.7798715 0 0 1 -6.779871,6.77987 6.7798715,6.7798715 0 0 1 -6.779872,-6.77987 6.7798715,6.7798715 0 0 1 6.779872,-6.77987 6.7798715,6.7798715 0 0 1 6.779871,6.77987 z" />
      <path
         id="circle6627"
         style="fill:#6838a0;stroke:#9e9ebd;stroke-width:1.2"
         d="m 87.890704,158.09279 a 6.7798715,6.7798715 0 0 1 -6.779872,6.77987 6.7798715,6.7798715 0 0 1 -6.779871,-6.77987 6.7798715,6.7798715 0 0 1 6.779871,-6.77987 6.7798715,6.7798715 0 0 1 6.779872,6.77987 z" />
      <path
         id="circle6629"
         style="fill:#6838a0;stroke:#9e9ebd;stroke-width:1.2"
         d="m 105.05725,158.09279 a 6.7798715,6.7798715 0 0 1 -6.779876,6.77987 6.7798715,6.7798715 0 0 1 -6.779871,-6.77987 6.7798715,6.7798715 0 0 1 6.779871,-6.77987 6.7798715,6.7798715 0 0 1 6.779876,6.77987 z" />
      <path
         id="circle6631"
         style="fill:#6838a0;stroke:#9e9ebd;stroke-width:1.2"
         d="m 122.22379,158.09279 a 6.7798715,6.7798715 0 0 1 -6.77987,6.77987 6.7798715,6.7798715 0 0 1 -6.77988,-6.77987 6.7798715,6.7798715 0 0 1 6.77988,-6.77987 6.7798715,6.7798715 0 0 1 6.77987,6.77987 z" />
      <path
         id="circle6633"
         style="fill:#6838a0;stroke:#9e9ebd;stroke-width:1.2"
         d="m 139.39033,158.09279 a 6.7798715,6.7798715 0 0 1 -6.77987,6.77987 6.7798715,6.7798715 0 0 1 -6.77987,-6.77987 6.7798715,6.7798715 0 0 1 6.77987,-6.77987 6.7798715,6.7798715 0 0 1 6.77987,6.77987 z" />
      <path
         id="circle6635"
         style="fill:#6838a0;stroke:#9e9ebd;stroke-width:1.2"
         d="m 156.55686,158.09279 a 6.7798715,6.7798715 0 0 1 -6.77987,6.77987 6.7798715,6.7798715 0 0 1 -6.77987,-6.77987 6.7798715,6.7798715 0 0 1 6.77987,-6.77987 6.7798715,6.7798715 0 0 1 6.77987,6.77987 z" />
      <path
         id="circle6637"
         style="fill:#6838a0;stroke:#9e9ebd;stroke-width:1.2"
         d="m 173.72341,158.09279 a 6.7798715,6.7798715 0 0 1 -6.77987,6.77987 6.7798715,6.7798715 0 0 1 -6.77987,-6.77987 6.7798715,6.7798715 0 0 1 6.77987,-6.77987 6.7798715,6.7798715 0 0 1 6.77987,6.77987 z" />
      <path
         id="circle6639"
         style="fill:#6838a0;stroke:#9e9ebd;stroke-width:1.2"
         d="m 190.88995,158.09279 a 6.7798715,6.7798715 0 0 1 -6.77987,6.77987 6.7798715,6.7798715 0 0 1 -6.77987,-6.77987 6.7798715,6.7798715 0 0 1 6.77987,-6.77987 6.7798715,6.7798715 0 0 1 6.77987,6.77987 z" />
      <path
         id="circle6641"
         style="fill:#6838a0;stroke:#9e9ebd;stroke-width:1.2"
         d="m 208.05648,158.09279 a 6.7798715,6.7798715 0 0 1 -6.77987,6.77987 6.7798715,6.7798715 0 0 1 -6.77987,-6.77987 6.7798715,6.7798715 0 0 1 6.77987,-6.77987 6.7798715,6.7798715 0 0 1 6.77987,6.77987 z" />
      <path
         id="circle6643"
         style="fill:#6838a0;stroke:#9e9ebd;stroke-width:1.2"
         d="m 225.22303,158.09279 a 6.7798715,6.7798715 0 0 1 -6.77987,6.77987 6.7798715,6.7798715 0 0 1 -6.77987,-6.77987 6.7798715,6.7798715 0 0 1 6.77987,-6.77987 6.7798715,6.7798715 0 0 1 6.77987,6.77987 z" />
    </g>
    <g
       id="g6671"
       transform="matrix(0.96592583,0.25881905,-0.44321498,0.91651708,91.548151,-65.27056)">
      <path
         id="circle6647"
         style="fill:#6838a0;stroke:#9e9ebd;stroke-width:1.2"
         d="m 36.391085,158.09279 a 6.7798715,6.7798715 0 0 1 -6.779871,6.77987 6.7798715,6.7798715 0 0 1 -6.779872,-6.77987 6.7798715,6.7798715 0 0 1 6.779872,-6.77987 6.7798715,6.7798715 0 0 1 6.779871,6.77987 z" />
      <path
         id="circle6649"
         style="fill:#6838a0;stroke:#9e9ebd;stroke-width:1.2"
         d="m 53.557627,158.09279 a 6.7798715,6.7798715 0 0 1 -6.779871,6.77987 6.7798715,6.7798715 0 0 1 -6.779872,-6.77987 6.7798715,6.7798715 0 0 1 6.779872,-6.77987 6.7798715,6.7798715 0 0 1 6.779871,6.77987 z" />
      <path
         id="circle6651"
         style="fill:#6838a0;stroke:#9e9ebd;stroke-width:1.2"
         d="m 70.724169,158.09279 a 6.7798715,6.7798715 0 0 1 -6.779871,6.77987 6.7798715,6.7798715 0 0 1 -6.779872,-6.77987 6.7798715,6.7798715 0 0 1 6.779872,-6.77987 6.7798715,6.7798715 0 0 1 6.779871,6.77987 z" />
      <path
         id="circle6653"
         style="fill:#6838a0;stroke:#9e9ebd;stroke-width:1.2"
         d="m 87.890704,158.09279 a 6.7798715,6.7798715 0 0 1 -6.779872,6.77987 6.7798715,6.7798715 0 0 1 -6.779871,-6.77987 6.7798715,6.7798715 0 0 1 6.779871,-6.77987 6.7798715,6.7798715 0 0 1 6.779872,6.77987 z" />
      <path
         id="circle6655"
         style="fill:#6838a0;stroke:#9e9ebd;stroke-width:1.2"
         d="m 105.05725,158.09279 a 6.7798715,6.7798715 0 0 1 -6.779876,6.77987 6.7798715,6.7798715 0 0 1 -6.779871,-6.77987 6.7798715,6.7798715 0 0 1 6.779871,-6.77987 6.7798715,6.7798715 0 0 1 6.779876,6.77987 z" />
      <path
         id="circle6657"
         style="fill:#6838a0;stroke:#9e9ebd;stroke-width:1.2"
         d="m 122.22379,158.09279 a 6.7798715,6.7798715 0 0 1 -6.77987,6.77987 6.7798715,6.7798715 0 0 1 -6.77988,-6.77987 6.7798715,6.7798715 0 0 1 6.77988,-6.77987 6.7798715,6.7798715 0 0 1 6.77987,6.77987 z" />
      <path
         id="circle6659"
         style="fill:#6838a0;stroke:#9e9ebd;stroke-width:1.2"
         d="m 139.39033,158.09279 a 6.7798715,6.7798715 0 0 1 -6.77987,6.77987 6.7798715,6.7798715 0 0 1 -6.77987,-6.77987 6.7798715,6.7798715 0 0 1 6.77987,-6.77987 6.7798715,6.7798715 0 0 1 6.77987,6.77987 z" />
      <path
         id="circle6661"
         style="fill:#6838a0;stroke:#9e9ebd;stroke-width:1.2"
         d="m 156.55686,158.09279 a 6.7798715,6.7798715 0 0 1 -6.77987,6.77987 6.7798715,6.7798715 0 0 1 -6.77987,-6.77987 6.7798715,6.7798715 0 0 1 6.77987,-6.77987 6.7798715,6.7798715 0 0 1 6.77987,6.77987 z" />
      <path
         id="circle6663"
         style="fill:#6838a0;stroke:#9e9ebd;stroke-width:1.2"
         d="m 173.72341,158.09279 a 6.7798715,6.7798715 0 0 1 -6.77987,6.77987 6.7798715,6.7798715 0 0 1 -6.77987,-6.77987 6.7798715,6.7798715 0 0 1 6.77987,-6.77987 6.7798715,6.7798715 0 0 1 6.77987,6.77987 z" />
      <path
         id="circle6665"
         style="fill:#6838a0;stroke:#9e9ebd;stroke-width:1.2"
         d="m 190.88995,158.09279 a 6.7798715,6.7798715 0 0 1 -6.77987,6.77987 6.7798715,6.7798715 0 0 1 -6.77987,-6.77987 6.7798715,6.7798715 0 0 1 6.77987,-6.77987 6.7798715,6.7798715 0 0 1 6.77987,6.77987 z" />
      <path
         id="circle6667"
         style="fill:#6838a0;stroke:#9e9ebd;stroke-width:1.2"
         d="m 208.05648,158.09279 a 6.7798715,6.7798715 0 0 1 -6.77987,6.77987 6.7798715,6.7798715 0 0 1 -6.77987,-6.77987 6.7798715,6.7798715 0 0 1 6.77987,-6.77987 6.7798715,6.7798715 0 0 1 6.77987,6.77987 z" />
      <path
         id="circle6669"
         style="fill:#6838a0;stroke:#9e9ebd;stroke-width:1.2"
         d="m 225.22303,158.09279 a 6.7798715,6.7798715 0 0 1 -6.77987,6.77987 6.7798715,6.7798715 0 0 1 -6.77987,-6.77987 6.7798715,6.7798715 0 0 1 6.77987,-6.77987 6.7798715,6.7798715 0 0 1 6.77987,6.77987 z" />
    </g>
    <g
       id="g6697"
       transform="matrix(0.96592583,0.25881905,-0.44321498,0.91651708,99.371016,-81.447353)">
      <path
         id="circle6673"
         style="fill:#6838a0;stroke:#9e9ebd;stroke-width:1.2"
         d="m 36.391085,158.09279 a 6.7798715,6.7798715 0 0 1 -6.779871,6.77987 6.7798715,6.7798715 0 0 1 -6.779872,-6.77987 6.7798715,6.7798715 0 0 1 6.779872,-6.77987 6.7798715,6.7798715 0 0 1 6.779871,6.77987 z" />
      <path
         id="circle6675"
         style="fill:#6838a0;stroke:#9e9ebd;stroke-width:1.2"
         d="m 53.557627,158.09279 a 6.7798715,6.7798715 0 0 1 -6.779871,6.77987 6.7798715,6.7798715 0 0 1 -6.779872,-6.77987 6.7798715,6.7798715 0 0 1 6.779872,-6.77987 6.7798715,6.7798715 0 0 1 6.779871,6.77987 z" />
      <path
         id="circle6677"
         style="fill:#6838a0;stroke:#9e9ebd;stroke-width:1.2"
         d="m 70.724169,158.09279 a 6.7798715,6.7798715 0 0 1 -6.779871,6.77987 6.7798715,6.7798715 0 0 1 -6.779872,-6.77987 6.7798715,6.7798715 0 0 1 6.779872,-6.77987 6.7798715,6.7798715 0 0 1 6.779871,6.77987 z" />
      <path
         id="circle6679"
         style="fill:#6838a0;stroke:#9e9ebd;stroke-width:1.2"
         d="m 87.890704,158.09279 a 6.7798715,6.7798715 0 0 1 -6.779872,6.77987 6.7798715,6.7798715 0 0 1 -6.779871,-6.77987 6.7798715,6.7798715 0 0 1 6.779871,-6.77987 6.7798715,6.7798715 0 0 1 6.779872,6.77987 z" />
      <path
         id="circle6681"
         style="fill:#6838a0;stroke:#9e9ebd;stroke-width:1.2"
         d="m 105.05725,158.09279 a 6.7798715,6.7798715 0 0 1 -6.779876,6.77987 6.7798715,6.7798715 0 0 1 -6.779871,-6.77987 6.7798715,6.7798715 0 0 1 6.779871,-6.77987 6.7798715,6.7798715 0 0 1 6.779876,6.77987 z" />
      <path
         id="circle6683"
         style="fill:#6838a0;stroke:#9e9ebd;stroke-width:1.2"
         d="m 122.22379,158.09279 a 6.7798715,6.7798715 0 0 1 -6.77987,6.77987 6.7798715,6.7798715 0 0 1 -6.77988,-6.77987 6.7798715,6.7798715 0 0 1 6.77988,-6.77987 6.7798715,6.7798715 0 0 1 6.77987,6.77987 z" />
      <path
         id="circle6685"
         style="fill:#6838a0;stroke:#9e9ebd;stroke-width:1.2"
         d="m 139.39033,158.09279 a 6.7798715,6.7798715 0 0 1 -6.77987,6.77987 6.7798715,6.7798715 0 0 1 -6.77987,-6.77987 6.7798715,6.7798715 0 0 1 6.77987,-6.77987 6.7798715,6.7798715 0 0 1 6.77987,6.77987 z" />
      <path
         id="circle6687"
         style="fill:#6838a0;stroke:#9e9ebd;stroke-width:1.2"
         d="m 156.55686,158.09279 a 6.7798715,6.7798715 0 0 1 -6.77987,6.77987 6.7798715,6.7798715 0 0 1 -6.77987,-6.77987 6.7798715,6.7798715 0 0 1 6.77987,-6.77987 6.7798715,6.7798715 0 0 1 6.77987,6.77987 z" />
      <path
         id="circle6689"
         style="fill:#6838a0;stroke:#9e9ebd;stroke-width:1.2"
         d="m 173.72341,158.09279 a 6.7798715,6.7798715 0 0 1 -6.77987,6.77987 6.7798715,6.7798715 0 0 1 -6.77987,-6.77987 6.7798715,6.7798715 0 0 1 6.77987,-6.77987 6.7798715,6.7798715 0 0 1 6.77987,6.77987 z" />
      <path
         id="circle6691"
         style="fill:#6838a0;stroke:#9e9ebd;stroke-width:1.2"
         d="m 190.88995,158.09279 a 6.7798715,6.7798715 0 0 1 -6.77987,6.77987 6.7798715,6.7798715 0 0 1 -6.77987,-6.77987 6.7798715,6.7798715 0 0 1 6.77987,-6.77987 6.7798715,6.7798715 0 0 1 6.77987,6.77987 z" />
      <path
         id="circle6693"
         style="fill:#6838a0;stroke:#9e9ebd;stroke-width:1.2"
         d="m 208.05648,158.09279 a 6.7798715,6.7798715 0 0 1 -6.77987,6.77987 6.7798715,6.7798715 0 0 1 -6.77987,-6.77987 6.7798715,6.7798715 0 0 1 6.77987,-6.77987 6.7798715,6.7798715 0 0 1 6.77987,6.77987 z" />
      <path
         id="circle6695"
         style="fill:#6838a0;stroke:#9e9ebd;stroke-width:1.2"
         d="m 225.22303,158.09279 a 6.7798715,6.7798715 0 0 1 -6.77987,6.77987 6.7798715,6.7798715 0 0 1 -6.77987,-6.77987 6.7798715,6.7798715 0 0 1 6.77987,-6.77987 6.7798715,6.7798715 0 0 1 6.77987,6.77987 z" />
    </g>
    <g
       id="g6723"
       transform="matrix(0.96592583,0.25881905,-0.44321498,0.91651708,107.19388,-97.624138)">
      <path
         id="circle6699"
         style="fill:#6838a0;stroke:#9e9ebd;stroke-width:1.2"
         d="m 36.391085,158.09279 a 6.7798715,6.7798715 0 0 1 -6.779871,6.77987 6.7798715,6.7798715 0 0 1 -6.779872,-6.77987 6.7798715,6.7798715 0 0 1 6.779872,-6.77987 6.7798715,6.7798715 0 0 1 6.779871,6.77987 z" />
      <path
         id="circle6701"
         style="fill:#6838a0;stroke:#9e9ebd;stroke-width:1.2"
         d="m 53.557627,158.09279 a 6.7798715,6.7798715 0 0 1 -6.779871,6.77987 6.7798715,6.7798715 0 0 1 -6.779872,-6.77987 6.7798715,6.7798715 0 0 1 6.779872,-6.77987 6.7798715,6.7798715 0 0 1 6.779871,6.77987 z" />
      <path
         id="circle6703"
         style="fill:#6838a0;stroke:#9e9ebd;stroke-width:1.2"
         d="m 70.724169,158.09279 a 6.7798715,6.7798715 0 0 1 -6.779871,6.77987 6.7798715,6.7798715 0 0 1 -6.779872,-6.77987 6.7798715,6.7798715 0 0 1 6.779872,-6.77987 6.7798715,6.7798715 0 0 1 6.779871,6.77987 z" />
      <path
         id="circle6705"
         style="fill:#6838a0;stroke:#9e9ebd;stroke-width:1.2"
         d="m 87.890704,158.09279 a 6.7798715,6.7798715 0 0 1 -6.779872,6.77987 6.7798715,6.7798715 0 0 1 -6.779871,-6.77987 6.7798715,6.7798715 0 0 1 6.779871,-6.77987 6.7798715,6.7798715 0 0 1 6.779872,6.77987 z" />
      <path
         id="circle6707"
         style="fill:#6838a0;stroke:#9e9ebd;stroke-width:1.2"
         d="m 105.05725,158.09279 a 6.7798715,6.7798715 0 0 1 -6.779876,6.77987 6.7798715,6.7798715 0 0 1 -6.779871,-6.77987 6.7798715,6.7798715 0 0 1 6.779871,-6.77987 6.7798715,6.7798715 0 0 1 6.779876,6.77987 z" />
      <path
         id="circle6709"
         style="fill:#6838a0;stroke:#9e9ebd;stroke-width:1.2"
         d="m 122.22379,158.09279 a 6.7798715,6.7798715 0 0 1 -6.77987,6.77987 6.7798715,6.7798715 0 0 1 -6.77988,-6.77987 6.7798715,6.7798715 0 0 1 6.77988,-6.77987 6.7798715,6.7798715 0 0 1 6.77987,6.77987 z" />
      <path
         id="circle6711"
         style="fill:#6838a0;stroke:#9e9ebd;stroke-width:1.2"
         d="m 139.39033,158.09279 a 6.7798715,6.7798715 0 0 1 -6.77987,6.77987 6.7798715,6.7798715 0 0 1 -6.77987,-6.77987 6.7798715,6.7798715 0 0 1 6.77987,-6.77987 6.7798715,6.7798715 0 0 1 6.77987,6.77987 z" />
      <path
         id="circle6713"
         style="fill:#6838a0;stroke:#9e9ebd;stroke-width:1.2"
         d="m 156.55686,158.09279 a 6.7798715,6.7798715 0 0 1 -6.77987,6.77987 6.7798715,6.7798715 0 0 1 -6.77987,-6.77987 6.7798715,6.7798715 0 0 1 6.77987,-6.77987 6.7798715,6.7798715 0 0 1 6.77987,6.77987 z" />
      <path
         id="circle6715"
         style="fill:#6838a0;stroke:#9e9ebd;stroke-width:1.2"
         d="m 173.72341,158.09279 a 6.7798715,6.7798715 0 0 1 -6.77987,6.77987 6.7798715,6.7798715 0 0 1 -6.77987,-6.77987 6.7798715,6.7798715 0 0 1 6.77987,-6.77987 6.7798715,6.7798715 0 0 1 6.77987,6.77987 z" />
      <path
         id="circle6717"
         style="fill:#6838a0;stroke:#9e9ebd;stroke-width:1.2"
         d="m 190.88995,158.09279 a 6.7798715,6.7798715 0 0 1 -6.77987,6.77987 6.7798715,6.7798715 0 0 1 -6.77987,-6.77987 6.7798715,6.7798715 0 0 1 6.77987,-6.77987 6.7798715,6.7798715 0 0 1 6.77987,6.77987 z" />
      <path
         id="circle6719"
         style="fill:#6838a0;stroke:#9e9ebd;stroke-width:1.2"
         d="m 208.05648,158.09279 a 6.7798715,6.7798715 0 0 1 -6.77987,6.77987 6.7798715,6.7798715 0 0 1 -6.77987,-6.77987 6.7798715,6.7798715 0 0 1 6.77987,-6.77987 6.7798715,6.7798715 0 0 1 6.77987,6.77987 z" />
      <path
         id="circle6721"
         style="fill:#6838a0;stroke:#9e9ebd;stroke-width:1.2"
         d="m 225.22303,158.09279 a 6.7798715,6.7798715 0 0 1 -6.77987,6.77987 6.7798715,6.7798715 0 0 1 -6.77987,-6.77987 6.7798715,6.7798715 0 0 1 6.77987,-6.77987 6.7798715,6.7798715 0 0 1 6.77987,6.77987 z" />
    </g>
    <g
       id="g6749"
       transform="matrix(0.96592583,0.25881905,-0.44321498,0.91651708,115.01676,-113.80093)">
      <path
         id="circle6725"
         style="fill:#6838a0;stroke:#9e9ebd;stroke-width:1.2"
         d="m 36.391085,158.09279 a 6.7798715,6.7798715 0 0 1 -6.779871,6.77987 6.7798715,6.7798715 0 0 1 -6.779872,-6.77987 6.7798715,6.7798715 0 0 1 6.779872,-6.77987 6.7798715,6.7798715 0 0 1 6.779871,6.77987 z" />
      <path
         id="circle6727"
         style="fill:#6838a0;stroke:#9e9ebd;stroke-width:1.2"
         d="m 53.557627,158.09279 a 6.7798715,6.7798715 0 0 1 -6.779871,6.77987 6.7798715,6.7798715 0 0 1 -6.779872,-6.77987 6.7798715,6.7798715 0 0 1 6.779872,-6.77987 6.7798715,6.7798715 0 0 1 6.779871,6.77987 z" />
      <path
         id="circle6729"
         style="fill:#6838a0;stroke:#9e9ebd;stroke-width:1.2"
         d="m 70.724169,158.09279 a 6.7798715,6.7798715 0 0 1 -6.779871,6.77987 6.7798715,6.7798715 0 0 1 -6.779872,-6.77987 6.7798715,6.7798715 0 0 1 6.779872,-6.77987 6.7798715,6.7798715 0 0 1 6.779871,6.77987 z" />
      <path
         id="circle6731"
         style="fill:#6838a0;stroke:#9e9ebd;stroke-width:1.2"
         d="m 87.890704,158.09279 a 6.7798715,6.7798715 0 0 1 -6.779872,6.77987 6.7798715,6.7798715 0 0 1 -6.779871,-6.77987 6.7798715,6.7798715 0 0 1 6.779871,-6.77987 6.7798715,6.7798715 0 0 1 6.779872,6.77987 z" />
      <path
         id="circle6733"
         style="fill:#6838a0;stroke:#9e9ebd;stroke-width:1.2"
         d="m 105.05725,158.09279 a 6.7798715,6.7798715 0 0 1 -6.779876,6.77987 6.7798715,6.7798715 0 0 1 -6.779871,-6.77987 6.7798715,6.7798715 0 0 1 6.779871,-6.77987 6.7798715,6.7798715 0 0 1 6.779876,6.77987 z" />
      <path
         id="circle6735"
         style="fill:#6838a0;stroke:#9e9ebd;stroke-width:1.2"
         d="m 122.22379,158.09279 a 6.7798715,6.7798715 0 0 1 -6.77987,6.77987 6.7798715,6.7798715 0 0 1 -6.77988,-6.77987 6.7798715,6.7798715 0 0 1 6.77988,-6.77987 6.7798715,6.7798715 0 0 1 6.77987,6.77987 z" />
      <path
         id="circle6737"
         style="fill:#6838a0;stroke:#9e9ebd;stroke-width:1.2"
         d="m 139.39033,158.09279 a 6.7798715,6.7798715 0 0 1 -6.77987,6.77987 6.7798715,6.7798715 0 0 1 -6.77987,-6.77987 6.7798715,6.7798715 0 0 1 6.77987,-6.77987 6.7798715,6.7798715 0 0 1 6.77987,6.77987 z" />
      <path
         id="circle6739"
         style="fill:#6838a0;stroke:#9e9ebd;stroke-width:1.2"
         d="m 156.55686,158.09279 a 6.7798715,6.7798715 0 0 1 -6.77987,6.77987 6.7798715,6.7798715 0 0 1 -6.77987,-6.77987 6.7798715,6.7798715 0 0 1 6.77987,-6.77987 6.7798715,6.7798715 0 0 1 6.77987,6.77987 z" />
      <path
         id="circle6741"
         style="fill:#6838a0;stroke:#9e9ebd;stroke-width:1.2"
         d="m 173.72341,158.09279 a 6.7798715,6.7798715 0 0 1 -6.77987,6.77987 6.7798715,6.7798715 0 0 1 -6.77987,-6.77987 6.7798715,6.7798715 0 0 1 6.77987,-6.77987 6.7798715,6.7798715 0 0 1 6.77987,6.77987 z" />
      <path
         id="circle6743"
         style="fill:#6838a0;stroke:#9e9ebd;stroke-width:1.2"
         d="m 190.88995,158.09279 a 6.7798715,6.7798715 0 0 1 -6.77987,6.77987 6.7798715,6.7798715 0 0 1 -6.77987,-6.77987 6.7798715,6.7798715 0 0 1 6.77987,-6.77987 6.7798715,6.7798715 0 0 1 6.77987,6.77987 z" />
      <path
         id="circle6745"
         style="fill:#6838a0;stroke:#9e9ebd;stroke-width:1.2"
         d="m 208.05648,158.09279 a 6.7798715,6.7798715 0 0 1 -6.77987,6.77987 6.7798715,6.7798715 0 0 1 -6.77987,-6.77987 6.7798715,6.7798715 0 0 1 6.77987,-6.77987 6.7798715,6.7798715 0 0 1 6.77987,6.77987 z" />
      <path
         id="circle6747"
         style="fill:#6838a0;stroke:#9e9ebd;stroke-width:1.2"
         d="m 225.22303,158.09279 a 6.7798715,6.7798715 0 0 1 -6.77987,6.77987 6.7798715,6.7798715 0 0 1 -6.77987,-6.77987 6.7798715,6.7798715 0 0 1 6.77987,-6.77987 6.7798715,6.7798715 0 0 1 6.77987,6.77987 z" />
    </g>
    <g
       id="g6775"
       transform="matrix(0.96592583,0.25881905,-0.44321498,0.91651708,122.83964,-129.97772)">
      <path
         id="circle6751"
         style="fill:#6838a0;stroke:#9e9ebd;stroke-width:1.2"
         d="m 36.391085,158.09279 a 6.7798715,6.7798715 0 0 1 -6.779871,6.77987 6.7798715,6.7798715 0 0 1 -6.779872,-6.77987 6.7798715,6.7798715 0 0 1 6.779872,-6.77987 6.7798715,6.7798715 0 0 1 6.779871,6.77987 z" />
      <path
         id="circle6753"
         style="fill:#6838a0;stroke:#9e9ebd;stroke-width:1.2"
         d="m 53.557627,158.09279 a 6.7798715,6.7798715 0 0 1 -6.779871,6.77987 6.7798715,6.7798715 0 0 1 -6.779872,-6.77987 6.7798715,6.7798715 0 0 1 6.779872,-6.77987 6.7798715,6.7798715 0 0 1 6.779871,6.77987 z" />
      <path
         id="circle6755"
         style="fill:#6838a0;stroke:#9e9ebd;stroke-width:1.2"
         d="m 70.724169,158.09279 a 6.7798715,6.7798715 0 0 1 -6.779871,6.77987 6.7798715,6.7798715 0 0 1 -6.779872,-6.77987 6.7798715,6.7798715 0 0 1 6.779872,-6.77987 6.7798715,6.7798715 0 0 1 6.779871,6.77987 z" />
      <path
         id="circle6757"
         style="fill:#6838a0;stroke:#9e9ebd;stroke-width:1.2"
         d="m 87.890704,158.09279 a 6.7798715,6.7798715 0 0 1 -6.779872,6.77987 6.7798715,6.7798715 0 0 1 -6.779871,-6.77987 6.7798715,6.7798715 0 0 1 6.779871,-6.77987 6.7798715,6.7798715 0 0 1 6.779872,6.77987 z" />
      <path
         id="circle6759"
         style="fill:#6838a0;stroke:#9e9ebd;stroke-width:1.2"
         d="m 105.05725,158.09279 a 6.7798715,6.7798715 0 0 1 -6.779876,6.77987 6.7798715,6.7798715 0 0 1 -6.779871,-6.77987 6.7798715,6.7798715 0 0 1 6.779871,-6.77987 6.7798715,6.7798715 0 0 1 6.779876,6.77987 z" />
      <path
         id="circle6761"
         style="fill:#6838a0;stroke:#9e9ebd;stroke-width:1.2"
         d="m 122.22379,158.09279 a 6.7798715,6.7798715 0 0 1 -6.77987,6.77987 6.7798715,6.7798715 0 0 1 -6.77988,-6.77987 6.7798715,6.7798715 0 0 1 6.77988,-6.77987 6.7798715,6.7798715 0 0 1 6.77987,6.77987 z" />
      <path
         id="circle6763"
         style="fill:#6838a0;stroke:#9e9ebd;stroke-width:1.2"
         d="m 139.39033,158.09279 a 6.7798715,6.7798715 0 0 1 -6.77987,6.77987 6.7798715,6.7798715 0 0 1 -6.77987,-6.77987 6.7798715,6.7798715 0 0 1 6.77987,-6.77987 6.7798715,6.7798715 0 0 1 6.77987,6.77987 z" />
      <path
         id="circle6765"
         style="fill:#6838a0;stroke:#9e9ebd;stroke-width:1.2"
         d="m 156.55686,158.09279 a 6.7798715,6.7798715 0 0 1 -6.77987,6.77987 6.7798715,6.7798715 0 0 1 -6.77987,-6.77987 6.7798715,6.7798715 0 0 1 6.77987,-6.77987 6.7798715,6.7798715 0 0 1 6.77987,6.77987 z" />
      <path
         id="circle6767"
         style="fill:#6838a0;stroke:#9e9ebd;stroke-width:1.2"
         d="m 173.72341,158.09279 a 6.7798715,6.7798715 0 0 1 -6.77987,6.77987 6.7798715,6.7798715 0 0 1 -6.77987,-6.77987 6.7798715,6.7798715 0 0 1 6.77987,-6.77987 6.7798715,6.7798715 0 0 1 6.77987,6.77987 z" />
      <path
         id="circle6769"
         style="fill:#6838a0;stroke:#9e9ebd;stroke-width:1.2"
         d="m 190.88995,158.09279 a 6.7798715,6.7798715 0 0 1 -6.77987,6.77987 6.7798715,6.7798715 0 0 1 -6.77987,-6.77987 6.7798715,6.7798715 0 0 1 6.77987,-6.77987 6.7798715,6.7798715 0 0 1 6.77987,6.77987 z" />
      <path
         id="circle6771"
         style="fill:#6838a0;stroke:#9e9ebd;stroke-width:1.2"
         d="m 208.05648,158.09279 a 6.7798715,6.7798715 0 0 1 -6.77987,6.77987 6.7798715,6.7798715 0 0 1 -6.77987,-6.77987 6.7798715,6.7798715 0 0 1 6.77987,-6.77987 6.7798715,6.7798715 0 0 1 6.77987,6.77987 z" />
      <path
         id="circle6773"
         style="fill:#6838a0;stroke:#9e9ebd;stroke-width:1.2"
         d="m 225.22303,158.09279 a 6.7798715,6.7798715 0 0 1 -6.77987,6.77987 6.7798715,6.7798715 0 0 1 -6.77987,-6.77987 6.7798715,6.7798715 0 0 1 6.77987,-6.77987 6.7798715,6.7798715 0 0 1 6.77987,6.77987 z" />
    </g>
    <text
       xml:space="preserve"
       style="font-size:5.59374px;line-height:1.25;font-family:Arial;-inkscape-font-specification:Arial;letter-spacing:0px;stroke-width:0.262206"
       x="83.37867"
       y="-9.2770023"
       id="text29980"
       transform="matrix(0.95724931,0.25649419,-0.44770578,0.92469753,0,0)"><tspan
         sodipodi:role="line"
         id="tspan29978"
         style="stroke-width:0.262206"
         x="83.37867"
         y="-9.2770023">1</tspan></text>
    <text
       xml:space="preserve"
       style="font-size:5.59374px;line-height:1.25;font-family:Arial;-inkscape-font-specification:Arial;letter-spacing:0px;stroke-width:0.262206"
       x="100.19227"
       y="-9.2770023"
       id="text33658"
       transform="matrix(0.95724931,0.25649419,-0.44770578,0.92469753,0,0)"><tspan
         sodipodi:role="line"
         id="tspan33656"
         style="stroke-width:0.262206"
         x="100.19227"
         y="-9.2770023">2</tspan></text>
    <text
       xml:space="preserve"
       style="font-size:5.59374px;line-height:1.25;font-family:Arial;-inkscape-font-specification:Arial;letter-spacing:0px;stroke-width:0.262206"
       x="117.69688"
       y="-9.3125095"
       id="text34058"
       transform="matrix(0.95724931,0.25649419,-0.44770578,0.92469753,0,0)"><tspan
         sodipodi:role="line"
         id="tspan34056"
         style="stroke-width:0.262206"
         x="117.69688"
         y="-9.3125095">3</tspan></text>
    <text
       xml:space="preserve"
       style="font-size:5.59374px;line-height:1.25;font-family:Arial;-inkscape-font-specification:Arial;letter-spacing:0px;stroke-width:0.262206"
       x="135.25887"
       y="-9.2851963"
       id="text34436"
       transform="matrix(0.95724931,0.25649419,-0.44770578,0.92469753,0,0)"><tspan
         sodipodi:role="line"
         id="tspan34434"
         style="stroke-width:0.262206"
         x="135.25887"
         y="-9.2851963">4</tspan></text>
    <text
       xml:space="preserve"
       style="font-size:5.59374px;line-height:1.25;font-family:Arial;-inkscape-font-specification:Arial;letter-spacing:0px;stroke-width:0.262206"
       x="152.75803"
       y="-9.3466511"
       id="text34638"
       transform="matrix(0.95724931,0.25649419,-0.44770578,0.92469753,0,0)"><tspan
         sodipodi:role="line"
         id="tspan34636"
         style="stroke-width:0.262206"
         x="152.75803"
         y="-9.3466511">5</tspan></text>
    <text
       xml:space="preserve"
       style="font-size:5.59374px;line-height:1.25;font-family:Arial;-inkscape-font-specification:Arial;letter-spacing:0px;stroke-width:0.262206"
       x="170.33641"
       y="-9.3111439"
       id="text34950"
       transform="matrix(0.95724931,0.25649419,-0.44770578,0.92469753,0,0)"><tspan
         sodipodi:role="line"
         id="tspan34948"
         style="stroke-width:0.262206"
         x="170.33641"
         y="-9.3111439">6</tspan></text>
    <text
       xml:space="preserve"
       style="font-size:5.59374px;line-height:1.25;font-family:Arial;-inkscape-font-specification:Arial;letter-spacing:0px;stroke-width:0.262206"
       x="187.87927"
       y="-9.3111439"
       id="text35478"
       transform="matrix(0.95724931,0.25649419,-0.44770578,0.92469753,0,0)"><tspan
         sodipodi:role="line"
         id="tspan35476"
         style="stroke-width:0.262206"
         x="187.87927"
         y="-9.3111439">7</tspan></text>
    <text
       xml:space="preserve"
       style="font-size:5.59374px;line-height:1.25;font-family:Arial;-inkscape-font-specification:Arial;letter-spacing:0px;stroke-width:0.262206"
       x="205.41666"
       y="-9.3111439"
       id="text36522"
       transform="matrix(0.95724931,0.25649419,-0.44770578,0.92469753,0,0)"><tspan
         sodipodi:role="line"
         id="tspan36520"
         style="stroke-width:0.262206"
         x="205.41666"
         y="-9.3111439">8</tspan></text>
    <text
       xml:space="preserve"
       style="font-size:5.59374px;line-height:1.25;font-family:Arial;-inkscape-font-specification:Arial;letter-spacing:0px;stroke-width:0.262206"
       x="222.96223"
       y="-9.3111439"
       id="text37120"
       transform="matrix(0.95724931,0.25649419,-0.44770578,0.92469753,0,0)"><tspan
         sodipodi:role="line"
         id="tspan37118"
         style="stroke-width:0.262206"
         x="222.96223"
         y="-9.3111439">9</tspan></text>
    <text
       xml:space="preserve"
       style="font-size:5.59374px;line-height:1.25;font-family:Arial;-inkscape-font-specification:Arial;letter-spacing:0px;stroke-width:0.262206"
       x="237.41597"
       y="-9.3111439"
       id="text37476"
       transform="matrix(0.95724931,0.25649419,-0.44770578,0.92469753,0,0)"><tspan
         sodipodi:role="line"
         id="tspan37474"
         style="stroke-width:0.262206"
         x="237.41597"
         y="-9.3111439">10</tspan></text>
    <text
       xml:space="preserve"
       style="font-size:5.59374px;line-height:1.25;font-family:Arial;-inkscape-font-specification:Arial;letter-spacing:0px;stroke-width:0.262206"
       x="256.13599"
       y="-9.2770023"
       id="text39308"
       transform="matrix(0.95724931,0.25649419,-0.44770578,0.92469753,0,0)"><tspan
         sodipodi:role="line"
         id="tspan39306"
         style="stroke-width:0.262206"
         x="256.13599"
         y="-9.2770023">11</tspan></text>
    <text
       xml:space="preserve"
       style="font-size:5.59374px;line-height:1.25;font-family:Arial;-inkscape-font-specification:Arial;letter-spacing:0px;stroke-width:0.262206"
       x="272.53445"
       y="-9.2770023"
       id="text39686"
       transform="matrix(0.95724931,0.25649419,-0.44770578,0.92469753,0,0)"><tspan
         sodipodi:role="line"
         id="tspan39684"
         style="stroke-width:0.262206"
         x="272.53445"
         y="-9.2770023">12</tspan></text>
    <path
       style="fill:#9e9ebd;fill-opacity:1;stroke:#9e9ebd;stroke-width:0.964;stroke-linecap:butt;stroke-linejoin:miter;stroke-miterlimit:4;stroke-dasharray:none;stroke-opacity:1"
       d="m 211.38076,200.30579 5.13059,11.66889"
       id="path49118" />
    <circle
       style="fill:#74b771;fill-opacity:1;stroke:#2a8f28;stroke-width:4.17165;stroke-linejoin:round;stroke-miterlimit:4;stroke-dasharray:none;stroke-opacity:1"
       id="path1111"
       cx="42.422928"
       cy="42.422928"
       r="39.255993" />
    <rect
       style="fill:#f2f2f2;fill-opacity:1;stroke:#f2f2f2;stroke-width:2.74513;stroke-linecap:round;stroke-linejoin:round;stroke-miterlimit:4;stroke-dasharray:none;stroke-opacity:1"
       id="rect1747"
       width="12.464633"
       height="57.086475"
       x="36.190613"
       y="13.87969"
       rx="0.66718477"
       ry="1.9960833" />
    <rect
       style="fill:#f2f2f2;fill-opacity:1;stroke:#f2f2f2;stroke-width:2.74513;stroke-linecap:round;stroke-linejoin:round;stroke-miterlimit:4;stroke-dasharray:none;stroke-opacity:1"
       id="rect2075"
       width="12.655349"
       height="56.226177"
       x="36.095253"
       y="-70.536018"
       rx="0.67739308"
       ry="1.9660021"
       transform="rotate(90)" />
  </g>
</svg>
