<svg width="805.227" height="747.999" viewBox="0 0 213.05 197.908" xmlns="http://www.w3.org/2000/svg"><g transform="translate(-15.995 1.003)"><rect style="fill:#9e9ebd;fill-opacity:1;stroke:#f2f2f2;stroke-width:0;stroke-linecap:round;stroke-linejoin:round;stroke-miterlimit:4;stroke-dasharray:none" width="188.831" height="35.173" x="-117.176" y="191.631" rx="14.763" ry="4.45" transform="matrix(.9661 -.2582 .69476 .71924 0 0)"/><rect style="fill:#9e9ebd;fill-opacity:1;stroke:#f2f2f2;stroke-width:0;stroke-linecap:round;stroke-linejoin:round;stroke-miterlimit:4;stroke-dasharray:none" width="27.716" height="125.267" x="235.064" y="-118.935" rx="2.254" ry="3.6" transform="matrix(.8523 .52307 .00545 .99999 0 0)"/><rect style="fill:#c8c8d9;fill-opacity:1;stroke:#f2f2f2;stroke-width:0;stroke-linecap:round;stroke-linejoin:round;stroke-miterlimit:4;stroke-dasharray:none" width="30.978" height="30.141" x="-19.633" y="95.009" rx="2.422" ry="3.813" transform="matrix(.9688 -.24788 .82661 .56277 0 0)"/><rect style="fill:#c8c8d9;fill-opacity:1;stroke:#f2f2f2;stroke-width:0;stroke-linecap:round;stroke-linejoin:round;stroke-miterlimit:4;stroke-dasharray:none" width="30.978" height="30.141" x="17.55" y="95.009" rx="2.422" ry="3.813" transform="matrix(.9688 -.24788 .82661 .56277 0 0)"/><g transform="matrix(.9688 -.24788 .82661 .56277 0 0)"><rect style="fill:#c8c8d9;fill-opacity:1;stroke:#f2f2f2;stroke-width:0;stroke-linecap:round;stroke-linejoin:round;stroke-miterlimit:4;stroke-dasharray:none" width="30.978" height="30.141" x="6.483" y="192.148" rx="2.422" ry="3.813"/><rect style="fill:#c8c8d9;fill-opacity:1;stroke:#f2f2f2;stroke-width:0;stroke-linecap:round;stroke-linejoin:round;stroke-miterlimit:4;stroke-dasharray:none" width="30.978" height="30.141" x="34.343" y="159.496" rx="2.422" ry="3.813"/><rect style="fill:#c8c8d9;fill-opacity:1;stroke:#f2f2f2;stroke-width:0;stroke-linecap:round;stroke-linejoin:round;stroke-miterlimit:4;stroke-dasharray:none" width="30.978" height="30.141" x="91.916" y="95.009" rx="2.422" ry="3.813"/><rect style="fill:#c8c8d9;fill-opacity:1;stroke:#f2f2f2;stroke-width:0;stroke-linecap:round;stroke-linejoin:round;stroke-miterlimit:4;stroke-dasharray:none" width="30.978" height="30.141" x="62.202" y="126.844" rx="2.422" ry="3.813"/><rect style="fill:#c8c8d9;fill-opacity:1;stroke:#f2f2f2;stroke-width:0;stroke-linecap:round;stroke-linejoin:round;stroke-miterlimit:4;stroke-dasharray:none" width="30.978" height="30.141" x="-21.377" y="224.799" rx="2.422" ry="3.813"/><rect style="fill:#c8c8d9;fill-opacity:1;stroke:#f2f2f2;stroke-width:0;stroke-linecap:round;stroke-linejoin:round;stroke-miterlimit:4;stroke-dasharray:none" width="30.978" height="30.141" x="90.062" y="94.193" rx="2.422" ry="3.813"/></g><rect style="fill:#9e9ebd;fill-opacity:1;stroke:#f2f2f2;stroke-width:0;stroke-linecap:round;stroke-linejoin:round;stroke-miterlimit:4;stroke-dasharray:none" width="27.806" height="126.746" x="195.859" y="-89.999" rx="2.261" ry="3.642" transform="matrix(.84954 .52753 .0054 .99999 0 0)"/><g transform="matrix(.9688 -.24788 .82661 .56277 0 0)"><rect style="fill:#c8c8d9;fill-opacity:1;stroke:#f2f2f2;stroke-width:0;stroke-linecap:round;stroke-linejoin:round;stroke-miterlimit:4;stroke-dasharray:none" width="30.978" height="30.141" x="52.879" y="94.193" rx="2.422" ry="3.813"/><rect style="fill:#c8c8d9;fill-opacity:1;stroke:#f2f2f2;stroke-width:0;stroke-linecap:round;stroke-linejoin:round;stroke-miterlimit:4;stroke-dasharray:none" width="30.978" height="30.141" x="25.02" y="126.844" rx="2.422" ry="3.813"/><rect style="fill:#c8c8d9;fill-opacity:1;stroke:#f2f2f2;stroke-width:0;stroke-linecap:round;stroke-linejoin:round;stroke-miterlimit:4;stroke-dasharray:none" width="30.978" height="30.141" x="-2.84" y="159.496" rx="2.422" ry="3.813"/><rect style="fill:#c8c8d9;fill-opacity:1;stroke:#f2f2f2;stroke-width:0;stroke-linecap:round;stroke-linejoin:round;stroke-miterlimit:4;stroke-dasharray:none" width="30.978" height="30.141" x="-30.7" y="192.148" rx="2.422" ry="3.813"/><rect style="fill:#c8c8d9;fill-opacity:1;stroke:#f2f2f2;stroke-width:0;stroke-linecap:round;stroke-linejoin:round;stroke-miterlimit:4;stroke-dasharray:none" width="30.978" height="30.141" x="-58.56" y="224.799" rx="2.422" ry="3.813"/><rect style="fill:#c8c8d9;fill-opacity:1;stroke:#f2f2f2;stroke-width:0;stroke-linecap:round;stroke-linejoin:round;stroke-miterlimit:4;stroke-dasharray:none" width="30.978" height="30.141" x="54.733" y="95.009" rx="2.422" ry="3.813"/></g><rect style="fill:#9e9ebd;fill-opacity:1;stroke:#f2f2f2;stroke-width:0;stroke-linecap:round;stroke-linejoin:round;stroke-miterlimit:4;stroke-dasharray:none" width="27.806" height="126.746" x="153.192" y="-56.882" rx="2.261" ry="3.642" transform="matrix(.84954 .52753 .0054 .99999 0 0)"/><g transform="matrix(.9688 -.24788 .82661 .56277 0 0)"><rect style="fill:#c8c8d9;fill-opacity:1;stroke:#f2f2f2;stroke-width:0;stroke-linecap:round;stroke-linejoin:round;stroke-miterlimit:4;stroke-dasharray:none" width="30.978" height="30.141" x="15.696" y="94.193" rx="2.422" ry="3.813"/><rect style="fill:#c8c8d9;fill-opacity:1;stroke:#f2f2f2;stroke-width:0;stroke-linecap:round;stroke-linejoin:round;stroke-miterlimit:4;stroke-dasharray:none" width="30.978" height="30.141" x="-12.163" y="126.844" rx="2.422" ry="3.813"/><rect style="fill:#c8c8d9;fill-opacity:1;stroke:#f2f2f2;stroke-width:0;stroke-linecap:round;stroke-linejoin:round;stroke-miterlimit:4;stroke-dasharray:none" width="30.978" height="30.141" x="-40.023" y="159.496" rx="2.422" ry="3.813"/><rect style="fill:#c8c8d9;fill-opacity:1;stroke:#f2f2f2;stroke-width:0;stroke-linecap:round;stroke-linejoin:round;stroke-miterlimit:4;stroke-dasharray:none" width="30.978" height="30.141" x="-67.883" y="192.148" rx="2.422" ry="3.813"/><rect style="fill:#c8c8d9;fill-opacity:1;stroke:#f2f2f2;stroke-width:0;stroke-linecap:round;stroke-linejoin:round;stroke-miterlimit:4;stroke-dasharray:none" width="30.978" height="30.141" x="-95.743" y="224.799" rx="2.422" ry="3.813"/></g><rect style="fill:#9e9ebd;fill-opacity:1;stroke:#f2f2f2;stroke-width:0;stroke-linecap:round;stroke-linejoin:round;stroke-miterlimit:4;stroke-dasharray:none" width="25.591" height="125.267" x="114.363" y="-30.233" rx="2.081" ry="3.6" transform="matrix(.82406 .5665 .00487 .99999 0 0)"/><g transform="matrix(.9688 -.24788 .82661 .56277 0 0)"><rect style="fill:#c8c8d9;fill-opacity:1;stroke:#f2f2f2;stroke-width:0;stroke-linecap:round;stroke-linejoin:round;stroke-miterlimit:4;stroke-dasharray:none" width="30.978" height="30.141" x="-49.346" y="126.844" rx="2.422" ry="3.813"/><rect style="fill:#c8c8d9;fill-opacity:1;stroke:#f2f2f2;stroke-width:0;stroke-linecap:round;stroke-linejoin:round;stroke-miterlimit:4;stroke-dasharray:none" width="30.978" height="30.141" x="-77.206" y="159.496" rx="2.422" ry="3.813"/><rect style="fill:#c8c8d9;fill-opacity:1;stroke:#f2f2f2;stroke-width:0;stroke-linecap:round;stroke-linejoin:round;stroke-miterlimit:4;stroke-dasharray:none" width="30.978" height="30.141" x="-105.066" y="192.148" rx="2.422" ry="3.813"/><rect style="fill:#c8c8d9;fill-opacity:1;stroke:#f2f2f2;stroke-width:0;stroke-linecap:round;stroke-linejoin:round;stroke-miterlimit:4;stroke-dasharray:none" width="30.978" height="30.141" x="-132.926" y="224.799" rx="2.422" ry="3.813"/><rect style="fill:#c8c8d9;fill-opacity:1;stroke:#f2f2f2;stroke-width:0;stroke-linecap:round;stroke-linejoin:round;stroke-miterlimit:4;stroke-dasharray:none" width="30.978" height="30.141" x="-21.487" y="94.193" rx="2.422" ry="3.813"/></g><rect style="fill:#9e9ebd;fill-opacity:1;stroke:#f2f2f2;stroke-width:0;stroke-linecap:round;stroke-linejoin:round;stroke-miterlimit:4;stroke-dasharray:none" width="27.589" height="123.164" x="67.31" y="12.375" rx="2.244" ry="3.539" transform="matrix(.8562 .51664 .00555 .99998 0 0)"/><rect style="fill:#c8c8d9;fill-opacity:1;stroke:#f2f2f2;stroke-width:0;stroke-linecap:round;stroke-linejoin:round;stroke-miterlimit:4;stroke-dasharray:none" width="30.978" height="30.141" x="-56.816" y="95.009" rx="2.422" ry="3.813" transform="matrix(.9688 -.24788 .82661 .56277 0 0)"/><g transform="matrix(.9688 -.24788 .82661 .56277 0 0)"><rect style="fill:#c8c8d9;fill-opacity:1;stroke:#f2f2f2;stroke-width:0;stroke-linecap:round;stroke-linejoin:round;stroke-miterlimit:4;stroke-dasharray:none" width="30.978" height="30.141" x="-86.529" y="126.844" rx="2.422" ry="3.813"/><rect style="fill:#c8c8d9;fill-opacity:1;stroke:#f2f2f2;stroke-width:0;stroke-linecap:round;stroke-linejoin:round;stroke-miterlimit:4;stroke-dasharray:none" width="30.978" height="30.141" x="-58.669" y="94.193" rx="2.422" ry="3.813"/><rect style="fill:#c8c8d9;fill-opacity:1;stroke:#f2f2f2;stroke-width:0;stroke-linecap:round;stroke-linejoin:round;stroke-miterlimit:4;stroke-dasharray:none" width="30.978" height="30.141" x="-114.389" y="159.496" rx="2.422" ry="3.813"/><rect style="fill:#c8c8d9;fill-opacity:1;stroke:#f2f2f2;stroke-width:0;stroke-linecap:round;stroke-linejoin:round;stroke-miterlimit:4;stroke-dasharray:none" width="30.978" height="30.141" x="-142.249" y="192.148" rx="2.422" ry="3.813"/><rect style="fill:#c8c8d9;fill-opacity:1;stroke:#f2f2f2;stroke-width:0;stroke-linecap:round;stroke-linejoin:round;stroke-miterlimit:4;stroke-dasharray:none" width="30.978" height="30.141" x="-170.109" y="224.799" rx="2.422" ry="3.813"/></g><rect style="fill:#9e9ebd;fill-opacity:1;stroke:#f2f2f2;stroke-width:0;stroke-linecap:round;stroke-linejoin:round;stroke-miterlimit:4;stroke-dasharray:none" width="28.617" height="131.144" x="24.529" y="33.612" rx="2.327" ry="3.769" transform="matrix(.84778 .53035 .00535 .99999 0 0)"/><path style="fill:none;stroke:#26143a;stroke-width:1.565;stroke-linecap:butt;stroke-linejoin:miter;stroke-miterlimit:4;stroke-dasharray:none;stroke-opacity:1" d="M24.742 110.872v17.273l15.172 8.636v-17.506"/><ellipse style="fill:#26143a;fill-opacity:1;stroke:#26143a;stroke-width:1.565;stroke-linecap:round;stroke-linejoin:round;stroke-miterlimit:4;stroke-dasharray:none;stroke-opacity:1" cx="24.801" cy="110.237" rx="1.751" ry="1.634"/><ellipse style="fill:#26143a;fill-opacity:1;stroke:#26143a;stroke-width:1.565;stroke-linecap:round;stroke-linejoin:round;stroke-miterlimit:4;stroke-dasharray:none;stroke-opacity:1" cx="40.042" cy="118.143" rx="1.751" ry="1.634"/><path style="fill:none;stroke:#26143a;stroke-width:1;stroke-linecap:round;stroke-linejoin:miter;stroke-miterlimit:4;stroke-dasharray:none;stroke-opacity:1" d="M67.437 53.88v126.258M103.424 44.672V170.93M139.41 35.464v126.258M175.398 26.257v126.258M211.384 17.049v126.258"/><path style="fill:none;stroke:#26143a;stroke-width:.915395;stroke-linecap:round;stroke-linejoin:miter;stroke-miterlimit:4;stroke-dasharray:none;stroke-opacity:1" d="M48.97 58.32v6.204"/><path style="fill:none;stroke:#26143a;stroke-width:1;stroke-linecap:round;stroke-linejoin:miter;stroke-miterlimit:4;stroke-dasharray:none;stroke-opacity:1" d="M84.957 49.193v7.404M120.944 39.985v7.404"/><path style="fill:none;stroke:#26143a;stroke-width:1.03006;stroke-linecap:round;stroke-linejoin:miter;stroke-miterlimit:4;stroke-dasharray:none;stroke-opacity:1" d="M156.93 30.808v7.856"/><path style="fill:none;stroke:#26143a;stroke-width:1.04842;stroke-linecap:round;stroke-linejoin:miter;stroke-miterlimit:4;stroke-dasharray:none;stroke-opacity:1" d="M192.918 21.62v8.138"/><rect style="fill:#9e9ebd;fill-opacity:1;stroke:#f2f2f2;stroke-width:0;stroke-linecap:round;stroke-linejoin:round;stroke-miterlimit:4;stroke-dasharray:none" width="186.557" height="32.072" x="-36.881" y="66.27" rx="14.585" ry="4.058" transform="matrix(.97132 -.23779 .81955 .573 0 0)"/><g><path style="fill:none;stroke:#26143a;stroke-width:1;stroke-linecap:round;stroke-linejoin:miter;stroke-miterlimit:4;stroke-dasharray:none;stroke-opacity:1" d="m48.97 58.4 18.467-4.52M84.957 49.193l18.467-4.52M120.944 39.985l18.467-4.52M156.93 30.777l18.468-4.52M192.918 21.57l18.466-4.521"/></g><circle style="fill:#74b771;fill-opacity:1;stroke:#2a8f28;stroke-width:3.78398;stroke-linejoin:round;stroke-miterlimit:4;stroke-dasharray:none;stroke-opacity:1" cx="58.976" cy="41.68" r="35.608"/><rect style="fill:#f2f2f2;fill-opacity:1;stroke:#f2f2f2;stroke-width:2.49003;stroke-linecap:round;stroke-linejoin:round;stroke-miterlimit:4;stroke-dasharray:none;stroke-opacity:1" width="11.306" height="51.782" x="53.323" y="15.79" rx=".605" ry="1.811"/><rect style="fill:#f2f2f2;fill-opacity:1;stroke:#f2f2f2;stroke-width:2.49003;stroke-linecap:round;stroke-linejoin:round;stroke-miterlimit:4;stroke-dasharray:none;stroke-opacity:1" width="11.479" height="51.001" x="35.941" y="-84.477" rx=".614" ry="1.783" transform="rotate(90)"/></g></svg>