<?xml version="1.0" encoding="UTF-8" standalone="no"?>
<!-- Created with Inkscape (http://www.inkscape.org/) -->

<svg
   width="261.89252mm"
   height="105.93675mm"
   viewBox="0 0 261.89252 105.93675"
   version="1.1"
   id="svg5"
   inkscape:version="1.1 (c4e8f9e, 2021-05-24)"
   sodipodi:docname="Rack.svg"
   xmlns:inkscape="http://www.inkscape.org/namespaces/inkscape"
   xmlns:sodipodi="http://sodipodi.sourceforge.net/DTD/sodipodi-0.dtd"
   xmlns="http://www.w3.org/2000/svg"
   xmlns:svg="http://www.w3.org/2000/svg">
  <sodipodi:namedview
     id="namedview7"
     pagecolor="#ffffff"
     bordercolor="#666666"
     borderopacity="1.0"
     inkscape:pageshadow="2"
     inkscape:pageopacity="0.0"
     inkscape:pagecheckerboard="0"
     inkscape:document-units="mm"
     showgrid="false"
     fit-margin-top="5"
     fit-margin-left="5"
     fit-margin-right="5"
     fit-margin-bottom="5"
     inkscape:zoom="0.89128065"
     inkscape:cx="426.91379"
     inkscape:cy="106.02721"
     inkscape:window-width="1920"
     inkscape:window-height="1027"
     inkscape:window-x="1440"
     inkscape:window-y="25"
     inkscape:window-maximized="0"
     inkscape:current-layer="layer1" />
  <defs
     id="defs2" />
  <g
     inkscape:label="Layer 1"
     inkscape:groupmode="layer"
     id="layer1"
     transform="translate(-19.233508,-26.078269)">
    <rect
       style="fill:#9e9ebd;stroke:#9e9ebd;stroke-width:0.447278;stroke-linejoin:round"
       id="rect848"
       width="33.7005"
       height="15.267521"
       x="-14.969876"
       y="56.047371"
       rx="0.80309504"
       ry="0.34142649"
       transform="matrix(0.96592583,-0.25881905,0.72784671,0.68573987,0,0)" />
    <rect
       style="fill:#9e9ebd;stroke:#9e9ebd;stroke-width:0.447278;stroke-linejoin:round"
       id="rect934"
       width="33.7005"
       height="15.267521"
       x="-30.375103"
       y="76.491653"
       rx="0.80309504"
       ry="0.34142649"
       transform="matrix(0.96592583,-0.25881905,0.72784671,0.68573987,0,0)" />
    <rect
       style="fill:#9e9ebd;stroke:#9e9ebd;stroke-width:0.447278;stroke-linejoin:round"
       id="rect936"
       width="33.7005"
       height="15.267521"
       x="-45.780331"
       y="96.935936"
       rx="0.80309504"
       ry="0.34142649"
       transform="matrix(0.96592583,-0.25881905,0.72784671,0.68573987,0,0)" />
    <rect
       style="fill:#9e9ebd;stroke:#9e9ebd;stroke-width:0.447278;stroke-linejoin:round"
       id="rect938"
       width="33.7005"
       height="15.267521"
       x="-61.893841"
       y="118.32018"
       rx="0.80309504"
       ry="0.34142649"
       transform="matrix(0.96592583,-0.25881905,0.72784671,0.68573987,0,0)" />
    <rect
       style="fill:#9e9ebd;stroke:#9e9ebd;stroke-width:0.447278;stroke-linejoin:round"
       id="rect940"
       width="33.7005"
       height="15.267521"
       x="-76.767845"
       y="138.05951"
       rx="0.80309504"
       ry="0.34142649"
       transform="matrix(0.96592583,-0.25881905,0.72784671,0.68573987,0,0)" />
    <rect
       style="fill:#9e9ebd;stroke:#9e9ebd;stroke-width:0.447278;stroke-linejoin:round"
       id="rect942"
       width="33.7005"
       height="15.267521"
       x="27.874485"
       y="72.218132"
       rx="0.80309504"
       ry="0.34142649"
       transform="matrix(0.96592583,-0.25881905,0.72784671,0.68573987,0,0)" />
    <rect
       style="fill:#9e9ebd;stroke:#9e9ebd;stroke-width:0.447278;stroke-linejoin:round"
       id="rect944"
       width="33.7005"
       height="15.267521"
       x="12.469259"
       y="92.662415"
       rx="0.80309504"
       ry="0.34142649"
       transform="matrix(0.96592583,-0.25881905,0.72784671,0.68573987,0,0)" />
    <rect
       style="fill:#9e9ebd;stroke:#9e9ebd;stroke-width:0.447278;stroke-linejoin:round"
       id="rect946"
       width="33.7005"
       height="15.267521"
       x="-2.9359686"
       y="113.1067"
       rx="0.80309504"
       ry="0.34142649"
       transform="matrix(0.96592583,-0.25881905,0.72784671,0.68573987,0,0)" />
    <rect
       style="fill:#9e9ebd;stroke:#9e9ebd;stroke-width:0.447278;stroke-linejoin:round"
       id="rect948"
       width="33.7005"
       height="15.267521"
       x="-19.049479"
       y="134.49095"
       rx="0.80309504"
       ry="0.34142649"
       transform="matrix(0.96592583,-0.25881905,0.72784671,0.68573987,0,0)" />
    <rect
       style="fill:#9e9ebd;stroke:#9e9ebd;stroke-width:0.447278;stroke-linejoin:round"
       id="rect950"
       width="33.7005"
       height="15.267521"
       x="-33.923485"
       y="154.23027"
       rx="0.80309504"
       ry="0.34142649"
       transform="matrix(0.96592583,-0.25881905,0.72784671,0.68573987,0,0)" />
    <rect
       style="fill:#9e9ebd;stroke:#9e9ebd;stroke-width:0.447278;stroke-linejoin:round"
       id="rect952"
       width="33.7005"
       height="15.267521"
       x="68.933662"
       y="87.715111"
       rx="0.80309504"
       ry="0.34142649"
       transform="matrix(0.96592583,-0.25881905,0.72784671,0.68573987,0,0)" />
    <rect
       style="fill:#9e9ebd;stroke:#9e9ebd;stroke-width:0.447278;stroke-linejoin:round"
       id="rect954"
       width="33.7005"
       height="15.267521"
       x="53.528439"
       y="108.15939"
       rx="0.80309504"
       ry="0.34142649"
       transform="matrix(0.96592583,-0.25881905,0.72784671,0.68573987,0,0)" />
    <rect
       style="fill:#9e9ebd;stroke:#9e9ebd;stroke-width:0.447278;stroke-linejoin:round"
       id="rect956"
       width="33.7005"
       height="15.267521"
       x="38.123211"
       y="128.60368"
       rx="0.80309504"
       ry="0.34142649"
       transform="matrix(0.96592583,-0.25881905,0.72784671,0.68573987,0,0)" />
    <rect
       style="fill:#9e9ebd;stroke:#9e9ebd;stroke-width:0.447278;stroke-linejoin:round"
       id="rect958"
       width="33.7005"
       height="15.267521"
       x="22.009703"
       y="149.98793"
       rx="0.80309504"
       ry="0.34142649"
       transform="matrix(0.96592583,-0.25881905,0.72784671,0.68573987,0,0)" />
    <rect
       style="fill:#9e9ebd;stroke:#9e9ebd;stroke-width:0.447278;stroke-linejoin:round"
       id="rect960"
       width="33.7005"
       height="15.267521"
       x="7.1356955"
       y="169.72725"
       rx="0.80309504"
       ry="0.34142649"
       transform="matrix(0.96592583,-0.25881905,0.72784671,0.68573987,0,0)" />
    <rect
       style="fill:#9e9ebd;stroke:#9e9ebd;stroke-width:0.447278;stroke-linejoin:round"
       id="rect962"
       width="33.7005"
       height="15.267521"
       x="109.10025"
       y="102.8752"
       rx="0.80309504"
       ry="0.34142649"
       transform="matrix(0.96592583,-0.25881905,0.72784671,0.68573987,0,0)" />
    <rect
       style="fill:#9e9ebd;stroke:#9e9ebd;stroke-width:0.447278;stroke-linejoin:round"
       id="rect964"
       width="33.7005"
       height="15.267521"
       x="93.69503"
       y="123.31948"
       rx="0.80309504"
       ry="0.34142649"
       transform="matrix(0.96592583,-0.25881905,0.72784671,0.68573987,0,0)" />
    <rect
       style="fill:#9e9ebd;stroke:#9e9ebd;stroke-width:0.447278;stroke-linejoin:round"
       id="rect966"
       width="33.7005"
       height="15.267521"
       x="78.289803"
       y="143.76378"
       rx="0.80309504"
       ry="0.34142649"
       transform="matrix(0.96592583,-0.25881905,0.72784671,0.68573987,0,0)" />
    <rect
       style="fill:#9e9ebd;stroke:#9e9ebd;stroke-width:0.447278;stroke-linejoin:round"
       id="rect968"
       width="33.7005"
       height="15.267521"
       x="62.176292"
       y="165.14803"
       rx="0.80309504"
       ry="0.34142649"
       transform="matrix(0.96592583,-0.25881905,0.72784671,0.68573987,0,0)" />
    <rect
       style="fill:#9e9ebd;stroke:#9e9ebd;stroke-width:0.447278;stroke-linejoin:round"
       id="rect970"
       width="33.7005"
       height="15.267521"
       x="47.302284"
       y="184.88734"
       rx="0.80309504"
       ry="0.34142649"
       transform="matrix(0.96592583,-0.25881905,0.72784671,0.68573987,0,0)" />
    <rect
       style="fill:#9e9ebd;stroke:#9e9ebd;stroke-width:0.447278;stroke-linejoin:round"
       id="rect972"
       width="33.7005"
       height="15.267521"
       x="149.56438"
       y="118.14758"
       rx="0.80309504"
       ry="0.34142649"
       transform="matrix(0.96592583,-0.25881905,0.72784671,0.68573987,0,0)" />
    <rect
       style="fill:#9e9ebd;stroke:#9e9ebd;stroke-width:0.447278;stroke-linejoin:round"
       id="rect974"
       width="33.7005"
       height="15.267521"
       x="134.15915"
       y="138.59187"
       rx="0.80309504"
       ry="0.34142649"
       transform="matrix(0.96592583,-0.25881905,0.72784671,0.68573987,0,0)" />
    <rect
       style="fill:#9e9ebd;stroke:#9e9ebd;stroke-width:0.447278;stroke-linejoin:round"
       id="rect976"
       width="33.7005"
       height="15.267521"
       x="118.75392"
       y="159.03616"
       rx="0.80309504"
       ry="0.34142649"
       transform="matrix(0.96592583,-0.25881905,0.72784671,0.68573987,0,0)" />
    <rect
       style="fill:#9e9ebd;stroke:#9e9ebd;stroke-width:0.447278;stroke-linejoin:round"
       id="rect978"
       width="33.7005"
       height="15.267521"
       x="102.64041"
       y="180.42041"
       rx="0.80309504"
       ry="0.34142649"
       transform="matrix(0.96592583,-0.25881905,0.72784671,0.68573987,0,0)" />
    <rect
       style="fill:#9e9ebd;stroke:#9e9ebd;stroke-width:0.447278;stroke-linejoin:round"
       id="rect980"
       width="33.7005"
       height="15.267521"
       x="87.766403"
       y="200.15973"
       rx="0.80309504"
       ry="0.34142649"
       transform="matrix(0.96592583,-0.25881905,0.72784671,0.68573987,0,0)" />
    <path
       style="fill:none;stroke:#9e9ebd;stroke-width:4;stroke-linecap:butt;stroke-linejoin:miter;stroke-miterlimit:4;stroke-dasharray:none;stroke-opacity:1"
       d="m 58.886288,33.586073 204.127312,-8e-6 11.1124,10.469547 3e-5,72.233488 v 8.72589 l -236.679504,-0.004 H 26.233508 V 33.10778 l 32.65278,0.478301"
       id="path1227" />
    <path
       style="fill:none;stroke:#9e9ebd;stroke-width:2;stroke-linecap:butt;stroke-linejoin:miter;stroke-miterlimit:4;stroke-dasharray:none;stroke-opacity:1"
       d="M 70.20974,123.52881 69.998706,44.055625 V 33.907396"
       id="path6990" />
    <path
       style="fill:none;stroke:#9e9ebd;stroke-width:2.00931;stroke-linecap:butt;stroke-linejoin:miter;stroke-miterlimit:4;stroke-dasharray:none;stroke-opacity:1"
       d="m 37.44651,125.01159 -0.211,-80.227476 V 34.539567"
       id="path7180" />
    <path
       style="fill:none;stroke:#9e9ebd;stroke-width:2;stroke-linecap:butt;stroke-linejoin:miter;stroke-miterlimit:4;stroke-dasharray:none;stroke-opacity:1"
       d="M 70.20974,123.52881 69.998706,44.055625 V 33.907396"
       id="path7182" />
    <path
       style="fill:none;stroke:#9e9ebd;stroke-width:2;stroke-linecap:butt;stroke-linejoin:miter;stroke-miterlimit:4;stroke-dasharray:none;stroke-opacity:1"
       d="M 59.097322,123.20749 58.886288,43.73431 V 33.586081"
       id="path7184" />
    <path
       style="fill:none;stroke:#9e9ebd;stroke-width:2.00931;stroke-linecap:butt;stroke-linejoin:miter;stroke-miterlimit:4;stroke-dasharray:none;stroke-opacity:1"
       d="m 90.600821,125.01158 -0.211,-80.227474 V 34.539559"
       id="path7186" />
    <path
       style="fill:none;stroke:#9e9ebd;stroke-width:2;stroke-linecap:butt;stroke-linejoin:miter;stroke-miterlimit:4;stroke-dasharray:none;stroke-opacity:1"
       d="M 123.36405,123.5288 123.15302,44.055617 V 33.907388"
       id="path7188" />
    <path
       style="fill:none;stroke:#9e9ebd;stroke-width:2;stroke-linecap:butt;stroke-linejoin:miter;stroke-miterlimit:4;stroke-dasharray:none;stroke-opacity:1"
       d="M 112.25163,123.20748 112.0406,43.734302 V 33.586073"
       id="path7190" />
    <path
       style="fill:none;stroke:#9e9ebd;stroke-width:2.00931;stroke-linecap:butt;stroke-linejoin:miter;stroke-miterlimit:4;stroke-dasharray:none;stroke-opacity:1"
       d="M 80.57003,124.11597 80.35903,43.8885 V 33.643953"
       id="path7192" />
    <path
       style="fill:none;stroke:#9e9ebd;stroke-width:2.00931;stroke-linecap:butt;stroke-linejoin:miter;stroke-miterlimit:4;stroke-dasharray:none;stroke-opacity:1"
       d="m 90.600821,125.01158 -0.211,-80.227474 V 34.539559"
       id="path7194" />
    <path
       style="fill:none;stroke:#9e9ebd;stroke-width:2;stroke-linecap:butt;stroke-linejoin:miter;stroke-miterlimit:4;stroke-dasharray:none;stroke-opacity:1"
       d="M 123.36405,123.5288 123.15302,44.055617 V 33.907388"
       id="path7196" />
    <path
       style="fill:none;stroke:#9e9ebd;stroke-width:2;stroke-linecap:butt;stroke-linejoin:miter;stroke-miterlimit:4;stroke-dasharray:none;stroke-opacity:1"
       d="M 112.25163,123.20748 112.0406,43.734302 V 33.586073"
       id="path7198" />
    <path
       style="fill:none;stroke:#9e9ebd;stroke-width:2.00931;stroke-linecap:butt;stroke-linejoin:miter;stroke-miterlimit:4;stroke-dasharray:none;stroke-opacity:1"
       d="M 80.57003,124.11597 80.35903,43.8885 V 33.643953"
       id="path7200" />
    <path
       style="fill:none;stroke:#9e9ebd;stroke-width:2.00931;stroke-linecap:butt;stroke-linejoin:miter;stroke-miterlimit:4;stroke-dasharray:none;stroke-opacity:1"
       d="m 141.54036,125.01158 -0.211,-80.227475 V 34.539558"
       id="path7202" />
    <path
       style="fill:none;stroke:#9e9ebd;stroke-width:2;stroke-linecap:butt;stroke-linejoin:miter;stroke-miterlimit:4;stroke-dasharray:none;stroke-opacity:1"
       d="M 174.30359,123.5288 174.09256,44.055616 V 33.907387"
       id="path7204" />
    <path
       style="fill:none;stroke:#9e9ebd;stroke-width:2;stroke-linecap:butt;stroke-linejoin:miter;stroke-miterlimit:4;stroke-dasharray:none;stroke-opacity:1"
       d="M 163.19117,123.20748 162.98014,43.734301 V 33.586072"
       id="path7206" />
    <path
       style="fill:none;stroke:#9e9ebd;stroke-width:2.00931;stroke-linecap:butt;stroke-linejoin:miter;stroke-miterlimit:4;stroke-dasharray:none;stroke-opacity:1"
       d="m 131.50957,124.11597 -0.211,-80.227471 V 33.643952"
       id="path7208" />
    <path
       style="fill:none;stroke:#9e9ebd;stroke-width:2.00931;stroke-linecap:butt;stroke-linejoin:miter;stroke-miterlimit:4;stroke-dasharray:none;stroke-opacity:1"
       d="m 191.37253,125.01158 -0.211,-80.227476 V 34.539557"
       id="path7226" />
    <path
       style="fill:none;stroke:#9e9ebd;stroke-width:2;stroke-linecap:butt;stroke-linejoin:miter;stroke-miterlimit:4;stroke-dasharray:none;stroke-opacity:1"
       d="M 224.13576,123.5288 223.92473,44.055615 V 33.907386"
       id="path7228" />
    <path
       style="fill:none;stroke:#9e9ebd;stroke-width:2;stroke-linecap:butt;stroke-linejoin:miter;stroke-miterlimit:4;stroke-dasharray:none;stroke-opacity:1"
       d="M 213.02334,123.20748 212.81231,43.7343 V 33.586071"
       id="path7230" />
    <path
       style="fill:none;stroke:#9e9ebd;stroke-width:2.00931;stroke-linecap:butt;stroke-linejoin:miter;stroke-miterlimit:4;stroke-dasharray:none;stroke-opacity:1"
       d="m 181.34174,124.11597 -0.211,-80.227472 V 33.643951"
       id="path7232" />
    <path
       style="fill:none;stroke:#9e9ebd;stroke-width:2.00931;stroke-linecap:butt;stroke-linejoin:miter;stroke-miterlimit:4;stroke-dasharray:none;stroke-opacity:1"
       d="m 241.57382,125.01157 -0.211,-80.227472 V 34.539551"
       id="path7234" />
    <path
       style="fill:none;stroke:#9e9ebd;stroke-width:2;stroke-linecap:butt;stroke-linejoin:miter;stroke-miterlimit:4;stroke-dasharray:none;stroke-opacity:1"
       d="M 263.22463,123.20747 263.0136,43.734294 V 33.586065"
       id="path7238" />
    <path
       style="fill:none;stroke:#9e9ebd;stroke-width:2.00931;stroke-linecap:butt;stroke-linejoin:miter;stroke-miterlimit:4;stroke-dasharray:none;stroke-opacity:1"
       d="m 231.54303,124.11596 -0.211,-80.227468 V 33.643945"
       id="path7240" />
  </g>
</svg>
