<svg width="250mm" height="250mm" viewBox="0 0 250 250" xmlns="http://www.w3.org/2000/svg"><g style="display:inline"><path style="fill:none;stroke:#6838a0;stroke-width:3.77953;stroke-linecap:butt;stroke-linejoin:miter;stroke-miterlimit:4;stroke-dasharray:none;stroke-opacity:1" d="m831.49 416.498 113.063 7.906M1.972 358.493l111.416 7.79M800.87 537.31l103.989 46.298M41.666 199.29l101.445 45.166M730.856 640.204l82.252 79.43M133.417 63.264l79.736 77M630.188 713.193l50.179 102.883M266.158-33.179l48.553 99.55M423.879-78.404l11.569 110.068M587.556-66.959 560.661 40.914M272.57 688.989l-63.493 94.13M737.448-.223l-62.451 92.588M182.312 602.837 91.05 669.142M855.475 113.755l-90.677 65.88M127.041 490.726 19.123 521.671M927.402 261.226l-108.348 31.068" transform="scale(.26458)"/></g><g style="display:inline"><path style="fill:#d7d7e3;fill-opacity:1;stroke:#6838a0;stroke-width:1.3894;stroke-linecap:square;stroke-miterlimit:4;stroke-dasharray:none;stroke-dashoffset:37.7953" d="M125 24.284a78.841 78.841 0 0 0-78.841 78.841 78.841 78.841 0 0 0 43.171 70.261 4.599 4.599 0 0 0-.105.973v54.499c0 1.528.706 2.759 1.584 2.759h5.183A29.068 17.996 0 0 0 125 248.522a29.068 17.996 0 0 0 29.008-16.905h5.183c.877 0 1.584-1.23 1.584-2.76V174.36c0-.344-.04-.67-.106-.973a78.841 78.841 0 0 0 43.172-70.26A78.841 78.841 0 0 0 125 24.283z"/><path style="fill:none;stroke:#6838a0;stroke-width:4.55751;stroke-linecap:butt;stroke-linejoin:miter;stroke-miterlimit:4;stroke-dasharray:none;stroke-opacity:1" d="M89.225 180.787h71.55M89.225 189.661h71.55M89.225 198.535h71.55M89.225 207.409h71.55M89.225 225.157h71.55M89.225 216.283h71.55"/><path style="fill:none;stroke:#6838a0;stroke-width:1.823;stroke-linecap:butt;stroke-linejoin:miter;stroke-miterlimit:4;stroke-dasharray:none;stroke-opacity:1" d="M108.983 180.787c-4.689-90.928 3.202-112.584-25.672-90.928-28.874 21.655 111.402 33.652 83.661 0-27.74-33.652-23.256 62.254-23.256 90.928"/></g></svg>