<svg width="95mm" height="132mm" viewBox="0 0 95 132" xmlns="http://www.w3.org/2000/svg"><rect style="opacity:1;fill:#d7d7e3;fill-opacity:1;stroke:#000;stroke-width:.264583" width="94.565" height="129.73" x=".434" y=".643" ry="4.31"/><path style="fill:#6838a0;fill-opacity:1;stroke:#000;stroke-width:.271727" d="M4.744.643A4.298 4.298 0 0 0 .661 3.576a47.068 15.763 0 0 0-.017.171A47.068 15.763 0 0 0 47.712 19.51 47.068 15.763 0 0 0 94.78 3.747a47.068 15.763 0 0 0-.005-.164 4.298 4.298 0 0 0-4.086-2.94z"/><path style="fill:none;stroke:#000;stroke-width:.565;stroke-linecap:butt;stroke-linejoin:miter;stroke-miterlimit:4;stroke-dasharray:none;stroke-opacity:1" d="M.32 43.188h94.597M.454 45.86h94.597"/><path style="fill:#b9b9ce;fill-opacity:1;stroke:#000;stroke-width:.231;stroke-miterlimit:4;stroke-dasharray:none" d="M.67 44.492v-.87h94.013v1.74H.67z"/><path style="fill:#6838a0;fill-opacity:1;stroke:#000;stroke-width:.405334px;stroke-linecap:butt;stroke-linejoin:miter;stroke-opacity:1" d="M3.373 45.768H32.5l-5.117 4.166H8.359z"/><rect style="fill:#26143d;fill-opacity:1;stroke:#000;stroke-width:.231301;stroke-miterlimit:4;stroke-dasharray:none" width="94.612" height="7.249" x=".434" y="123.123" ry="2.538" rx="1.431"/><rect style="fill:#26143d;fill-opacity:1;stroke:#000;stroke-width:.231;stroke-miterlimit:4;stroke-dasharray:none" width="9.522" height=".893" x="5.239" y="130.592" rx="1.427" ry=".893"/><rect style="fill:#26143d;fill-opacity:1;stroke:#000;stroke-width:.231;stroke-miterlimit:4;stroke-dasharray:none" width="9.522" height=".893" x="80.966" y="130.592" rx="1.427" ry=".893"/><circle style="fill:#74b771;fill-opacity:1;stroke:#2a8f28;stroke-width:2.73877;stroke-linejoin:round;stroke-miterlimit:4;stroke-dasharray:none;stroke-opacity:1" cx="28.409" cy="27.028" r="25.772"/><rect style="fill:#f2f2f2;fill-opacity:1;stroke:#f2f2f2;stroke-width:1.80223;stroke-linecap:round;stroke-linejoin:round;stroke-miterlimit:4;stroke-dasharray:none;stroke-opacity:1" width="8.183" height="37.478" x="24.318" y="8.289" rx=".438" ry="1.31"/><rect style="fill:#f2f2f2;fill-opacity:1;stroke:#f2f2f2;stroke-width:1.80223;stroke-linecap:round;stroke-linejoin:round;stroke-miterlimit:4;stroke-dasharray:none;stroke-opacity:1" width="8.308" height="36.914" x="22.874" y="-46.866" rx=".445" ry="1.291" transform="rotate(90)"/></svg>