<svg width="768.681" height="974.218" viewBox="0 0 203.38 257.762" xmlns="http://www.w3.org/2000/svg"><g transform="translate(-24.258 3.502)"><g transform="rotate(30 103.082 111.76)"><rect style="fill:#d7d7e3;fill-opacity:1;stroke:#d7d7e3;stroke-width:.261723;stroke-opacity:.466667" width="78.606" height="187.363" x="85.697" y="35.676" rx="1.617" ry="1.011"/><ellipse style="fill:#d7d7e3;fill-opacity:1;stroke:#d7d7e3;stroke-width:.27323;stroke-opacity:1" cx="125" cy="225.49" rx="39.145" ry="22.977"/><rect style="fill:#6838a0;fill-opacity:1;stroke:#6838a0;stroke-width:.261723;stroke-opacity:1" width="106.228" height="36.385" x="71.886" y="2.035" rx="1.617" ry="1.011"/><path style="fill:none;stroke:#9e9ebd;stroke-width:.866743;stroke-linecap:butt;stroke-linejoin:miter;stroke-miterlimit:4;stroke-dasharray:none;stroke-opacity:1" d="M164.434 52.128h-57.358M164.434 72.2h-57.358M164.434 92.271h-57.358M164.434 112.343h-57.358M164.434 152.486h-57.358M164.434 132.414h-57.358M164.434 172.557h-57.358M164.434 192.629h-57.358M164.434 212.7h-57.358"/><path style="fill:none;stroke:#9e9ebd;stroke-width:.751413;stroke-linecap:butt;stroke-linejoin:miter;stroke-miterlimit:4;stroke-dasharray:none;stroke-opacity:1" d="M164.434 62.221h-43.109M164.434 82.293h-43.109M164.434 102.365h-43.109M164.434 122.436h-43.109M164.434 142.508h-43.109M164.434 162.58h-43.109M164.434 182.65h-43.109M164.434 202.722h-43.109"/></g><circle style="fill:#74b771;fill-opacity:1;stroke:#2a8f28;stroke-width:5.33912;stroke-linejoin:round;stroke-miterlimit:4;stroke-dasharray:none;stroke-opacity:1" cx="80.63" cy="54.845" r="50.242"/><rect style="fill:#f2f2f2;fill-opacity:1;stroke:#f2f2f2;stroke-width:3.51338;stroke-linecap:round;stroke-linejoin:round;stroke-miterlimit:4;stroke-dasharray:none;stroke-opacity:1" width="15.953" height="73.063" x="72.653" y="18.313" rx=".854" ry="2.555"/><rect style="fill:#f2f2f2;fill-opacity:1;stroke:#f2f2f2;stroke-width:3.51338;stroke-linecap:round;stroke-linejoin:round;stroke-miterlimit:4;stroke-dasharray:none;stroke-opacity:1" width="16.197" height="71.962" x="46.746" y="-116.611" rx=".867" ry="2.516" transform="rotate(90)"/></g></svg>