<svg width="250mm" height="250mm" viewBox="0 0 250 250" xmlns="http://www.w3.org/2000/svg"><g transform="rotate(30 103.082 111.76)"><rect style="fill:#d7d7e3;fill-opacity:1;stroke:#d7d7e3;stroke-width:.261723;stroke-opacity:.466667" width="78.606" height="187.363" x="85.697" y="35.676" rx="1.617" ry="1.011"/><ellipse style="fill:#d7d7e3;fill-opacity:1;stroke:#d7d7e3;stroke-width:.27323;stroke-opacity:1" cx="125" cy="225.49" rx="39.145" ry="22.977"/><rect style="fill:#6838a0;fill-opacity:1;stroke:#6838a0;stroke-width:.261723;stroke-opacity:1" width="106.228" height="36.385" x="71.886" y="2.035" rx="1.617" ry="1.011"/><path style="fill:none;stroke:#9e9ebd;stroke-width:.866743;stroke-linecap:butt;stroke-linejoin:miter;stroke-miterlimit:4;stroke-dasharray:none;stroke-opacity:1" d="M164.434 52.128h-57.358M164.434 72.2h-57.358M164.434 92.271h-57.358M164.434 112.343h-57.358M164.434 152.486h-57.358M164.434 132.414h-57.358M164.434 172.557h-57.358M164.434 192.629h-57.358M164.434 212.7h-57.358"/><path style="fill:none;stroke:#9e9ebd;stroke-width:.751413;stroke-linecap:butt;stroke-linejoin:miter;stroke-miterlimit:4;stroke-dasharray:none;stroke-opacity:1" d="M164.434 62.221h-43.109M164.434 82.293h-43.109M164.434 102.365h-43.109M164.434 122.436h-43.109M164.434 142.508h-43.109M164.434 162.58h-43.109M164.434 182.65h-43.109M164.434 202.722h-43.109"/></g></svg>