<svg width="337mm" height="216mm" viewBox="0 0 337 216" xmlns="http://www.w3.org/2000/svg"><path style="fill:#c8c8d9;fill-opacity:1;stroke:#9e9ebd;stroke-width:.945277" d="M142.628 17.06c-.475-.044-.922.017-1.227.193L6.135 95.349l-3.797-2.193v14.074l5.449 3.146 177.36 102.4c.846.488 2.02.597 2.63.244l137.2-79.212.018-.01 9.133-5.274c.08-.045.109-.109.161-.164l.014-.008v-.006c.2-.223.199-.5.007-.787l.116-13.4-11.403 6.68L144.03 17.497a3.525 3.525 0 0 0-1.403-.438zm191.675 111.292v.044l.078-.09z"/><path style="fill:#c8c8d9;fill-opacity:1;stroke:#9e9ebd;stroke-width:.945277" d="M144.031 3.424c-.846-.489-2.019-.598-2.63-.245L3.636 82.718 2.338 93.156l182.81 105.545c.845.489 2.018.598 2.63.245l146.35-84.496c.611-.353.423-1.03-.423-1.518z"/><path style="fill:#6838a0;stroke:#9e9ebd;stroke-width:1.2" d="M36.391 158.093a6.78 6.78 0 0 1-6.78 6.78 6.78 6.78 0 0 1-6.78-6.78 6.78 6.78 0 0 1 6.78-6.78 6.78 6.78 0 0 1 6.78 6.78zM53.558 158.093a6.78 6.78 0 0 1-6.78 6.78 6.78 6.78 0 0 1-6.78-6.78 6.78 6.78 0 0 1 6.78-6.78 6.78 6.78 0 0 1 6.78 6.78zM70.724 158.093a6.78 6.78 0 0 1-6.78 6.78 6.78 6.78 0 0 1-6.78-6.78 6.78 6.78 0 0 1 6.78-6.78 6.78 6.78 0 0 1 6.78 6.78zM87.89 158.093a6.78 6.78 0 0 1-6.78 6.78 6.78 6.78 0 0 1-6.779-6.78 6.78 6.78 0 0 1 6.78-6.78 6.78 6.78 0 0 1 6.78 6.78zM105.057 158.093a6.78 6.78 0 0 1-6.78 6.78 6.78 6.78 0 0 1-6.78-6.78 6.78 6.78 0 0 1 6.78-6.78 6.78 6.78 0 0 1 6.78 6.78zM122.224 158.093a6.78 6.78 0 0 1-6.78 6.78 6.78 6.78 0 0 1-6.78-6.78 6.78 6.78 0 0 1 6.78-6.78 6.78 6.78 0 0 1 6.78 6.78zM139.39 158.093a6.78 6.78 0 0 1-6.78 6.78 6.78 6.78 0 0 1-6.78-6.78 6.78 6.78 0 0 1 6.78-6.78 6.78 6.78 0 0 1 6.78 6.78zM156.557 158.093a6.78 6.78 0 0 1-6.78 6.78 6.78 6.78 0 0 1-6.78-6.78 6.78 6.78 0 0 1 6.78-6.78 6.78 6.78 0 0 1 6.78 6.78zM173.723 158.093a6.78 6.78 0 0 1-6.78 6.78 6.78 6.78 0 0 1-6.78-6.78 6.78 6.78 0 0 1 6.78-6.78 6.78 6.78 0 0 1 6.78 6.78zM190.89 158.093a6.78 6.78 0 0 1-6.78 6.78 6.78 6.78 0 0 1-6.78-6.78 6.78 6.78 0 0 1 6.78-6.78 6.78 6.78 0 0 1 6.78 6.78zM208.056 158.093a6.78 6.78 0 0 1-6.78 6.78 6.78 6.78 0 0 1-6.78-6.78 6.78 6.78 0 0 1 6.78-6.78 6.78 6.78 0 0 1 6.78 6.78zM225.223 158.093a6.78 6.78 0 0 1-6.78 6.78 6.78 6.78 0 0 1-6.78-6.78 6.78 6.78 0 0 1 6.78-6.78 6.78 6.78 0 0 1 6.78 6.78z" transform="rotate(30 107.655 295.19) skewX(-30)"/><g aria-label="A B C D E F G H" style="font-size:14.1476px;line-height:1.25;font-family:Arial;-inkscape-font-specification:Arial;letter-spacing:0;fill:#26143a;stroke-width:.353691"><path d="m130.54 12.195 13.496-3.902 1.25.721-6.538 7.92-1.322-.764 2.044-2.361-3.667-2.117-4.03 1.214zm6.69-.94 2.973 1.717 1.89-2.148q.858-.98 1.477-1.572-1.141.466-2.407.844zM113.771 22.933l10.127-5.846 3.29 1.9q1.006.58 1.3 1.108.305.528.004 1.095-.289.568-.986.97-.65.375-1.528.53-.879.155-1.847.003.526.615.302 1.235-.219.623-1.103 1.134-.712.41-1.59.614-.865.202-1.58.173-.714-.03-1.467-.265-.74-.236-1.578-.72zm7.033-2.72 1.896 1.095q.772.446 1.224.572.595.167 1.169.092.58-.072 1.111-.38.504-.29.675-.63.177-.345-.073-.65-.244-.308-1.19-.853l-1.752-1.012zm-4.677 2.7 2.183 1.261q.563.325.839.428.483.184.946.228.463.043 1.002-.068.547-.115 1.03-.394.567-.327.73-.712.17-.388-.113-.743-.27-.355-1.107-.839l-2.028-1.17zM105.943 34.734l.822.866q-2.016.742-3.837.695-1.81-.047-3.18-.838-1.417-.818-1.645-1.716-.216-.898.582-1.897.803-.996 2.254-1.834 1.582-.913 3.277-1.29 1.708-.378 3.279-.173 1.584.204 2.744.874 1.316.76 1.44 1.725.124.965-.926 1.978l-1.453-.48q.8-.814.724-1.44-.076-.627-.955-1.134-1.011-.584-2.253-.655-1.236-.067-2.457.32-1.215.384-2.217.962-1.291.746-1.935 1.491-.632.744-.42 1.417.211.672 1.013 1.135.975.563 2.3.578 1.326.016 2.843-.584zM78.45 43.381l10.127-5.847 3.021 1.745q1.023.59 1.417.985.553.55.56 1.161.018.792-.698 1.599-.703.807-2.057 1.588-1.154.666-2.278 1.046-1.125.38-2.077.508-.945.125-1.72.068-.763-.057-1.552-.313-.783-.253-1.578-.712zm2.356-.02 1.872 1.082q.868.5 1.545.676.683.179 1.315.153.889-.037 1.918-.369 1.041-.331 2.188-.993 1.589-.918 1.984-1.67.408-.754.052-1.295-.26-.39-1.295-.987l-1.842-1.063zM60.79 53.605l10.127-5.847 6.341 3.662-1.195.69-5.18-2.992-3.103 1.791 4.852 2.801-1.188.686-4.852-2.8-3.447 1.99 5.384 3.108-1.195.69zM43.14 63.836l10.128-5.847 5.917 3.416-1.195.69-4.756-2.746-3.137 1.811 4.116 2.376-1.195.69-4.116-2.376-4.6 2.656zM33.473 74.088l1.188-.686 3.722 2.14-3.758 2.17q-1.643-.039-2.953-.332-1.303-.298-2.26-.85-1.293-.747-1.716-1.725-.41-.979.26-1.988.67-1.009 2.163-1.87 1.478-.854 3.288-1.284 1.824-.43 3.45-.21 1.627.222 2.937.978.952.55 1.358 1.199.42.649.22 1.268-.198.619-.993 1.34l-1.378-.413q.576-.56.725-.985.149-.424-.133-.89-.275-.47-.94-.853-.795-.46-1.658-.631-.857-.176-1.672-.12-.809.06-1.552.26-1.275.35-2.373.984-1.354.782-1.865 1.54-.505.76-.175 1.462.33.7 1.197 1.201.754.436 1.803.659 1.056.219 1.807.213l1.886-1.088zM7.748 84.243l10.127-5.847 1.16.67-4.158 2.4 4.559 2.633 4.158-2.401 1.161.67-10.127 5.847-1.16-.67 4.773-2.756-4.559-2.632-4.773 2.756z"/></g><g><path style="fill:#6838a0;stroke:#9e9ebd;stroke-width:1.2" d="M36.391 158.093a6.78 6.78 0 0 1-6.78 6.78 6.78 6.78 0 0 1-6.78-6.78 6.78 6.78 0 0 1 6.78-6.78 6.78 6.78 0 0 1 6.78 6.78zM53.558 158.093a6.78 6.78 0 0 1-6.78 6.78 6.78 6.78 0 0 1-6.78-6.78 6.78 6.78 0 0 1 6.78-6.78 6.78 6.78 0 0 1 6.78 6.78zM70.724 158.093a6.78 6.78 0 0 1-6.78 6.78 6.78 6.78 0 0 1-6.78-6.78 6.78 6.78 0 0 1 6.78-6.78 6.78 6.78 0 0 1 6.78 6.78zM87.89 158.093a6.78 6.78 0 0 1-6.78 6.78 6.78 6.78 0 0 1-6.779-6.78 6.78 6.78 0 0 1 6.78-6.78 6.78 6.78 0 0 1 6.78 6.78zM105.057 158.093a6.78 6.78 0 0 1-6.78 6.78 6.78 6.78 0 0 1-6.78-6.78 6.78 6.78 0 0 1 6.78-6.78 6.78 6.78 0 0 1 6.78 6.78zM122.224 158.093a6.78 6.78 0 0 1-6.78 6.78 6.78 6.78 0 0 1-6.78-6.78 6.78 6.78 0 0 1 6.78-6.78 6.78 6.78 0 0 1 6.78 6.78zM139.39 158.093a6.78 6.78 0 0 1-6.78 6.78 6.78 6.78 0 0 1-6.78-6.78 6.78 6.78 0 0 1 6.78-6.78 6.78 6.78 0 0 1 6.78 6.78zM156.557 158.093a6.78 6.78 0 0 1-6.78 6.78 6.78 6.78 0 0 1-6.78-6.78 6.78 6.78 0 0 1 6.78-6.78 6.78 6.78 0 0 1 6.78 6.78zM173.723 158.093a6.78 6.78 0 0 1-6.78 6.78 6.78 6.78 0 0 1-6.78-6.78 6.78 6.78 0 0 1 6.78-6.78 6.78 6.78 0 0 1 6.78 6.78zM190.89 158.093a6.78 6.78 0 0 1-6.78 6.78 6.78 6.78 0 0 1-6.78-6.78 6.78 6.78 0 0 1 6.78-6.78 6.78 6.78 0 0 1 6.78 6.78zM208.056 158.093a6.78 6.78 0 0 1-6.78 6.78 6.78 6.78 0 0 1-6.78-6.78 6.78 6.78 0 0 1 6.78-6.78 6.78 6.78 0 0 1 6.78 6.78zM225.223 158.093a6.78 6.78 0 0 1-6.78 6.78 6.78 6.78 0 0 1-6.78-6.78 6.78 6.78 0 0 1 6.78-6.78 6.78 6.78 0 0 1 6.78 6.78z" transform="rotate(30 135.496 323.032) skewX(-30)"/></g><g><path style="fill:#6838a0;stroke:#9e9ebd;stroke-width:1.2" d="M36.391 158.093a6.78 6.78 0 0 1-6.78 6.78 6.78 6.78 0 0 1-6.78-6.78 6.78 6.78 0 0 1 6.78-6.78 6.78 6.78 0 0 1 6.78 6.78zM53.558 158.093a6.78 6.78 0 0 1-6.78 6.78 6.78 6.78 0 0 1-6.78-6.78 6.78 6.78 0 0 1 6.78-6.78 6.78 6.78 0 0 1 6.78 6.78zM70.724 158.093a6.78 6.78 0 0 1-6.78 6.78 6.78 6.78 0 0 1-6.78-6.78 6.78 6.78 0 0 1 6.78-6.78 6.78 6.78 0 0 1 6.78 6.78zM87.89 158.093a6.78 6.78 0 0 1-6.78 6.78 6.78 6.78 0 0 1-6.779-6.78 6.78 6.78 0 0 1 6.78-6.78 6.78 6.78 0 0 1 6.78 6.78zM105.057 158.093a6.78 6.78 0 0 1-6.78 6.78 6.78 6.78 0 0 1-6.78-6.78 6.78 6.78 0 0 1 6.78-6.78 6.78 6.78 0 0 1 6.78 6.78zM122.224 158.093a6.78 6.78 0 0 1-6.78 6.78 6.78 6.78 0 0 1-6.78-6.78 6.78 6.78 0 0 1 6.78-6.78 6.78 6.78 0 0 1 6.78 6.78zM139.39 158.093a6.78 6.78 0 0 1-6.78 6.78 6.78 6.78 0 0 1-6.78-6.78 6.78 6.78 0 0 1 6.78-6.78 6.78 6.78 0 0 1 6.78 6.78zM156.557 158.093a6.78 6.78 0 0 1-6.78 6.78 6.78 6.78 0 0 1-6.78-6.78 6.78 6.78 0 0 1 6.78-6.78 6.78 6.78 0 0 1 6.78 6.78zM173.723 158.093a6.78 6.78 0 0 1-6.78 6.78 6.78 6.78 0 0 1-6.78-6.78 6.78 6.78 0 0 1 6.78-6.78 6.78 6.78 0 0 1 6.78 6.78zM190.89 158.093a6.78 6.78 0 0 1-6.78 6.78 6.78 6.78 0 0 1-6.78-6.78 6.78 6.78 0 0 1 6.78-6.78 6.78 6.78 0 0 1 6.78 6.78zM208.056 158.093a6.78 6.78 0 0 1-6.78 6.78 6.78 6.78 0 0 1-6.78-6.78 6.78 6.78 0 0 1 6.78-6.78 6.78 6.78 0 0 1 6.78 6.78zM225.223 158.093a6.78 6.78 0 0 1-6.78 6.78 6.78 6.78 0 0 1-6.78-6.78 6.78 6.78 0 0 1 6.78-6.78 6.78 6.78 0 0 1 6.78 6.78z" transform="rotate(30 163.337 350.872) skewX(-30)"/></g><g><path style="fill:#6838a0;stroke:#9e9ebd;stroke-width:1.2" d="M36.391 158.093a6.78 6.78 0 0 1-6.78 6.78 6.78 6.78 0 0 1-6.78-6.78 6.78 6.78 0 0 1 6.78-6.78 6.78 6.78 0 0 1 6.78 6.78zM53.558 158.093a6.78 6.78 0 0 1-6.78 6.78 6.78 6.78 0 0 1-6.78-6.78 6.78 6.78 0 0 1 6.78-6.78 6.78 6.78 0 0 1 6.78 6.78zM70.724 158.093a6.78 6.78 0 0 1-6.78 6.78 6.78 6.78 0 0 1-6.78-6.78 6.78 6.78 0 0 1 6.78-6.78 6.78 6.78 0 0 1 6.78 6.78zM87.89 158.093a6.78 6.78 0 0 1-6.78 6.78 6.78 6.78 0 0 1-6.779-6.78 6.78 6.78 0 0 1 6.78-6.78 6.78 6.78 0 0 1 6.78 6.78zM105.057 158.093a6.78 6.78 0 0 1-6.78 6.78 6.78 6.78 0 0 1-6.78-6.78 6.78 6.78 0 0 1 6.78-6.78 6.78 6.78 0 0 1 6.78 6.78zM122.224 158.093a6.78 6.78 0 0 1-6.78 6.78 6.78 6.78 0 0 1-6.78-6.78 6.78 6.78 0 0 1 6.78-6.78 6.78 6.78 0 0 1 6.78 6.78zM139.39 158.093a6.78 6.78 0 0 1-6.78 6.78 6.78 6.78 0 0 1-6.78-6.78 6.78 6.78 0 0 1 6.78-6.78 6.78 6.78 0 0 1 6.78 6.78zM156.557 158.093a6.78 6.78 0 0 1-6.78 6.78 6.78 6.78 0 0 1-6.78-6.78 6.78 6.78 0 0 1 6.78-6.78 6.78 6.78 0 0 1 6.78 6.78zM173.723 158.093a6.78 6.78 0 0 1-6.78 6.78 6.78 6.78 0 0 1-6.78-6.78 6.78 6.78 0 0 1 6.78-6.78 6.78 6.78 0 0 1 6.78 6.78zM190.89 158.093a6.78 6.78 0 0 1-6.78 6.78 6.78 6.78 0 0 1-6.78-6.78 6.78 6.78 0 0 1 6.78-6.78 6.78 6.78 0 0 1 6.78 6.78zM208.056 158.093a6.78 6.78 0 0 1-6.78 6.78 6.78 6.78 0 0 1-6.78-6.78 6.78 6.78 0 0 1 6.78-6.78 6.78 6.78 0 0 1 6.78 6.78zM225.223 158.093a6.78 6.78 0 0 1-6.78 6.78 6.78 6.78 0 0 1-6.78-6.78 6.78 6.78 0 0 1 6.78-6.78 6.78 6.78 0 0 1 6.78 6.78z" transform="rotate(30 191.177 378.713) skewX(-30)"/></g><g><path style="fill:#6838a0;stroke:#9e9ebd;stroke-width:1.2" d="M36.391 158.093a6.78 6.78 0 0 1-6.78 6.78 6.78 6.78 0 0 1-6.78-6.78 6.78 6.78 0 0 1 6.78-6.78 6.78 6.78 0 0 1 6.78 6.78zM53.558 158.093a6.78 6.78 0 0 1-6.78 6.78 6.78 6.78 0 0 1-6.78-6.78 6.78 6.78 0 0 1 6.78-6.78 6.78 6.78 0 0 1 6.78 6.78zM70.724 158.093a6.78 6.78 0 0 1-6.78 6.78 6.78 6.78 0 0 1-6.78-6.78 6.78 6.78 0 0 1 6.78-6.78 6.78 6.78 0 0 1 6.78 6.78zM87.89 158.093a6.78 6.78 0 0 1-6.78 6.78 6.78 6.78 0 0 1-6.779-6.78 6.78 6.78 0 0 1 6.78-6.78 6.78 6.78 0 0 1 6.78 6.78zM105.057 158.093a6.78 6.78 0 0 1-6.78 6.78 6.78 6.78 0 0 1-6.78-6.78 6.78 6.78 0 0 1 6.78-6.78 6.78 6.78 0 0 1 6.78 6.78zM122.224 158.093a6.78 6.78 0 0 1-6.78 6.78 6.78 6.78 0 0 1-6.78-6.78 6.78 6.78 0 0 1 6.78-6.78 6.78 6.78 0 0 1 6.78 6.78zM139.39 158.093a6.78 6.78 0 0 1-6.78 6.78 6.78 6.78 0 0 1-6.78-6.78 6.78 6.78 0 0 1 6.78-6.78 6.78 6.78 0 0 1 6.78 6.78zM156.557 158.093a6.78 6.78 0 0 1-6.78 6.78 6.78 6.78 0 0 1-6.78-6.78 6.78 6.78 0 0 1 6.78-6.78 6.78 6.78 0 0 1 6.78 6.78zM173.723 158.093a6.78 6.78 0 0 1-6.78 6.78 6.78 6.78 0 0 1-6.78-6.78 6.78 6.78 0 0 1 6.78-6.78 6.78 6.78 0 0 1 6.78 6.78zM190.89 158.093a6.78 6.78 0 0 1-6.78 6.78 6.78 6.78 0 0 1-6.78-6.78 6.78 6.78 0 0 1 6.78-6.78 6.78 6.78 0 0 1 6.78 6.78zM208.056 158.093a6.78 6.78 0 0 1-6.78 6.78 6.78 6.78 0 0 1-6.78-6.78 6.78 6.78 0 0 1 6.78-6.78 6.78 6.78 0 0 1 6.78 6.78zM225.223 158.093a6.78 6.78 0 0 1-6.78 6.78 6.78 6.78 0 0 1-6.78-6.78 6.78 6.78 0 0 1 6.78-6.78 6.78 6.78 0 0 1 6.78 6.78z" transform="rotate(30 219.018 406.554) skewX(-30)"/></g><g><path style="fill:#6838a0;stroke:#9e9ebd;stroke-width:1.2" d="M36.391 158.093a6.78 6.78 0 0 1-6.78 6.78 6.78 6.78 0 0 1-6.78-6.78 6.78 6.78 0 0 1 6.78-6.78 6.78 6.78 0 0 1 6.78 6.78zM53.558 158.093a6.78 6.78 0 0 1-6.78 6.78 6.78 6.78 0 0 1-6.78-6.78 6.78 6.78 0 0 1 6.78-6.78 6.78 6.78 0 0 1 6.78 6.78zM70.724 158.093a6.78 6.78 0 0 1-6.78 6.78 6.78 6.78 0 0 1-6.78-6.78 6.78 6.78 0 0 1 6.78-6.78 6.78 6.78 0 0 1 6.78 6.78zM87.89 158.093a6.78 6.78 0 0 1-6.78 6.78 6.78 6.78 0 0 1-6.779-6.78 6.78 6.78 0 0 1 6.78-6.78 6.78 6.78 0 0 1 6.78 6.78zM105.057 158.093a6.78 6.78 0 0 1-6.78 6.78 6.78 6.78 0 0 1-6.78-6.78 6.78 6.78 0 0 1 6.78-6.78 6.78 6.78 0 0 1 6.78 6.78zM122.224 158.093a6.78 6.78 0 0 1-6.78 6.78 6.78 6.78 0 0 1-6.78-6.78 6.78 6.78 0 0 1 6.78-6.78 6.78 6.78 0 0 1 6.78 6.78zM139.39 158.093a6.78 6.78 0 0 1-6.78 6.78 6.78 6.78 0 0 1-6.78-6.78 6.78 6.78 0 0 1 6.78-6.78 6.78 6.78 0 0 1 6.78 6.78zM156.557 158.093a6.78 6.78 0 0 1-6.78 6.78 6.78 6.78 0 0 1-6.78-6.78 6.78 6.78 0 0 1 6.78-6.78 6.78 6.78 0 0 1 6.78 6.78zM173.723 158.093a6.78 6.78 0 0 1-6.78 6.78 6.78 6.78 0 0 1-6.78-6.78 6.78 6.78 0 0 1 6.78-6.78 6.78 6.78 0 0 1 6.78 6.78zM190.89 158.093a6.78 6.78 0 0 1-6.78 6.78 6.78 6.78 0 0 1-6.78-6.78 6.78 6.78 0 0 1 6.78-6.78 6.78 6.78 0 0 1 6.78 6.78zM208.056 158.093a6.78 6.78 0 0 1-6.78 6.78 6.78 6.78 0 0 1-6.78-6.78 6.78 6.78 0 0 1 6.78-6.78 6.78 6.78 0 0 1 6.78 6.78zM225.223 158.093a6.78 6.78 0 0 1-6.78 6.78 6.78 6.78 0 0 1-6.78-6.78 6.78 6.78 0 0 1 6.78-6.78 6.78 6.78 0 0 1 6.78 6.78z" transform="rotate(30 246.859 434.394) skewX(-30)"/></g><g><path style="fill:#6838a0;stroke:#9e9ebd;stroke-width:1.2" d="M36.391 158.093a6.78 6.78 0 0 1-6.78 6.78 6.78 6.78 0 0 1-6.78-6.78 6.78 6.78 0 0 1 6.78-6.78 6.78 6.78 0 0 1 6.78 6.78zM53.558 158.093a6.78 6.78 0 0 1-6.78 6.78 6.78 6.78 0 0 1-6.78-6.78 6.78 6.78 0 0 1 6.78-6.78 6.78 6.78 0 0 1 6.78 6.78zM70.724 158.093a6.78 6.78 0 0 1-6.78 6.78 6.78 6.78 0 0 1-6.78-6.78 6.78 6.78 0 0 1 6.78-6.78 6.78 6.78 0 0 1 6.78 6.78zM87.89 158.093a6.78 6.78 0 0 1-6.78 6.78 6.78 6.78 0 0 1-6.779-6.78 6.78 6.78 0 0 1 6.78-6.78 6.78 6.78 0 0 1 6.78 6.78zM105.057 158.093a6.78 6.78 0 0 1-6.78 6.78 6.78 6.78 0 0 1-6.78-6.78 6.78 6.78 0 0 1 6.78-6.78 6.78 6.78 0 0 1 6.78 6.78zM122.224 158.093a6.78 6.78 0 0 1-6.78 6.78 6.78 6.78 0 0 1-6.78-6.78 6.78 6.78 0 0 1 6.78-6.78 6.78 6.78 0 0 1 6.78 6.78zM139.39 158.093a6.78 6.78 0 0 1-6.78 6.78 6.78 6.78 0 0 1-6.78-6.78 6.78 6.78 0 0 1 6.78-6.78 6.78 6.78 0 0 1 6.78 6.78zM156.557 158.093a6.78 6.78 0 0 1-6.78 6.78 6.78 6.78 0 0 1-6.78-6.78 6.78 6.78 0 0 1 6.78-6.78 6.78 6.78 0 0 1 6.78 6.78zM173.723 158.093a6.78 6.78 0 0 1-6.78 6.78 6.78 6.78 0 0 1-6.78-6.78 6.78 6.78 0 0 1 6.78-6.78 6.78 6.78 0 0 1 6.78 6.78zM190.89 158.093a6.78 6.78 0 0 1-6.78 6.78 6.78 6.78 0 0 1-6.78-6.78 6.78 6.78 0 0 1 6.78-6.78 6.78 6.78 0 0 1 6.78 6.78zM208.056 158.093a6.78 6.78 0 0 1-6.78 6.78 6.78 6.78 0 0 1-6.78-6.78 6.78 6.78 0 0 1 6.78-6.78 6.78 6.78 0 0 1 6.78 6.78zM225.223 158.093a6.78 6.78 0 0 1-6.78 6.78 6.78 6.78 0 0 1-6.78-6.78 6.78 6.78 0 0 1 6.78-6.78 6.78 6.78 0 0 1 6.78 6.78z" transform="rotate(30 274.7 462.235) skewX(-30)"/></g><g><path style="fill:#6838a0;stroke:#9e9ebd;stroke-width:1.2" d="M36.391 158.093a6.78 6.78 0 0 1-6.78 6.78 6.78 6.78 0 0 1-6.78-6.78 6.78 6.78 0 0 1 6.78-6.78 6.78 6.78 0 0 1 6.78 6.78zM53.558 158.093a6.78 6.78 0 0 1-6.78 6.78 6.78 6.78 0 0 1-6.78-6.78 6.78 6.78 0 0 1 6.78-6.78 6.78 6.78 0 0 1 6.78 6.78zM70.724 158.093a6.78 6.78 0 0 1-6.78 6.78 6.78 6.78 0 0 1-6.78-6.78 6.78 6.78 0 0 1 6.78-6.78 6.78 6.78 0 0 1 6.78 6.78zM87.89 158.093a6.78 6.78 0 0 1-6.78 6.78 6.78 6.78 0 0 1-6.779-6.78 6.78 6.78 0 0 1 6.78-6.78 6.78 6.78 0 0 1 6.78 6.78zM105.057 158.093a6.78 6.78 0 0 1-6.78 6.78 6.78 6.78 0 0 1-6.78-6.78 6.78 6.78 0 0 1 6.78-6.78 6.78 6.78 0 0 1 6.78 6.78zM122.224 158.093a6.78 6.78 0 0 1-6.78 6.78 6.78 6.78 0 0 1-6.78-6.78 6.78 6.78 0 0 1 6.78-6.78 6.78 6.78 0 0 1 6.78 6.78zM139.39 158.093a6.78 6.78 0 0 1-6.78 6.78 6.78 6.78 0 0 1-6.78-6.78 6.78 6.78 0 0 1 6.78-6.78 6.78 6.78 0 0 1 6.78 6.78zM156.557 158.093a6.78 6.78 0 0 1-6.78 6.78 6.78 6.78 0 0 1-6.78-6.78 6.78 6.78 0 0 1 6.78-6.78 6.78 6.78 0 0 1 6.78 6.78zM173.723 158.093a6.78 6.78 0 0 1-6.78 6.78 6.78 6.78 0 0 1-6.78-6.78 6.78 6.78 0 0 1 6.78-6.78 6.78 6.78 0 0 1 6.78 6.78zM190.89 158.093a6.78 6.78 0 0 1-6.78 6.78 6.78 6.78 0 0 1-6.78-6.78 6.78 6.78 0 0 1 6.78-6.78 6.78 6.78 0 0 1 6.78 6.78zM208.056 158.093a6.78 6.78 0 0 1-6.78 6.78 6.78 6.78 0 0 1-6.78-6.78 6.78 6.78 0 0 1 6.78-6.78 6.78 6.78 0 0 1 6.78 6.78zM225.223 158.093a6.78 6.78 0 0 1-6.78 6.78 6.78 6.78 0 0 1-6.78-6.78 6.78 6.78 0 0 1 6.78-6.78 6.78 6.78 0 0 1 6.78 6.78z" transform="rotate(30 302.54 490.076) skewX(-30)"/></g><path style="fill:#9e9ebd;fill-opacity:1;stroke:#9e9ebd;stroke-width:.945;stroke-linecap:butt;stroke-linejoin:miter;stroke-miterlimit:4;stroke-dasharray:none;stroke-opacity:1" d="M186.822 199.153v14.074"/></svg>