<svg width="952.035" height="362.596" viewBox="0 0 251.893 95.937" xmlns="http://www.w3.org/2000/svg"><g transform="translate(-24.234 -31.078)"><rect style="fill:#9e9ebd;stroke:#9e9ebd;stroke-width:.447278;stroke-linejoin:round" width="33.7" height="15.268" x="-14.97" y="56.047" rx=".803" ry=".341" transform="matrix(.96593 -.25882 .72785 .68574 0 0)"/><rect style="fill:#9e9ebd;stroke:#9e9ebd;stroke-width:.447278;stroke-linejoin:round" width="33.7" height="15.268" x="-30.375" y="76.492" rx=".803" ry=".341" transform="matrix(.96593 -.25882 .72785 .68574 0 0)"/><rect style="fill:#9e9ebd;stroke:#9e9ebd;stroke-width:.447278;stroke-linejoin:round" width="33.7" height="15.268" x="-45.78" y="96.936" rx=".803" ry=".341" transform="matrix(.96593 -.25882 .72785 .68574 0 0)"/><rect style="fill:#9e9ebd;stroke:#9e9ebd;stroke-width:.447278;stroke-linejoin:round" width="33.7" height="15.268" x="-61.894" y="118.32" rx=".803" ry=".341" transform="matrix(.96593 -.25882 .72785 .68574 0 0)"/><rect style="fill:#9e9ebd;stroke:#9e9ebd;stroke-width:.447278;stroke-linejoin:round" width="33.7" height="15.268" x="-76.768" y="138.06" rx=".803" ry=".341" transform="matrix(.96593 -.25882 .72785 .68574 0 0)"/><rect style="fill:#9e9ebd;stroke:#9e9ebd;stroke-width:.447278;stroke-linejoin:round" width="33.7" height="15.268" x="27.874" y="72.218" rx=".803" ry=".341" transform="matrix(.96593 -.25882 .72785 .68574 0 0)"/><rect style="fill:#9e9ebd;stroke:#9e9ebd;stroke-width:.447278;stroke-linejoin:round" width="33.7" height="15.268" x="12.469" y="92.662" rx=".803" ry=".341" transform="matrix(.96593 -.25882 .72785 .68574 0 0)"/><rect style="fill:#9e9ebd;stroke:#9e9ebd;stroke-width:.447278;stroke-linejoin:round" width="33.7" height="15.268" x="-2.936" y="113.107" rx=".803" ry=".341" transform="matrix(.96593 -.25882 .72785 .68574 0 0)"/><rect style="fill:#9e9ebd;stroke:#9e9ebd;stroke-width:.447278;stroke-linejoin:round" width="33.7" height="15.268" x="-19.049" y="134.491" rx=".803" ry=".341" transform="matrix(.96593 -.25882 .72785 .68574 0 0)"/><rect style="fill:#9e9ebd;stroke:#9e9ebd;stroke-width:.447278;stroke-linejoin:round" width="33.7" height="15.268" x="-33.923" y="154.23" rx=".803" ry=".341" transform="matrix(.96593 -.25882 .72785 .68574 0 0)"/><rect style="fill:#9e9ebd;stroke:#9e9ebd;stroke-width:.447278;stroke-linejoin:round" width="33.7" height="15.268" x="68.934" y="87.715" rx=".803" ry=".341" transform="matrix(.96593 -.25882 .72785 .68574 0 0)"/><rect style="fill:#9e9ebd;stroke:#9e9ebd;stroke-width:.447278;stroke-linejoin:round" width="33.7" height="15.268" x="53.528" y="108.159" rx=".803" ry=".341" transform="matrix(.96593 -.25882 .72785 .68574 0 0)"/><rect style="fill:#9e9ebd;stroke:#9e9ebd;stroke-width:.447278;stroke-linejoin:round" width="33.7" height="15.268" x="38.123" y="128.604" rx=".803" ry=".341" transform="matrix(.96593 -.25882 .72785 .68574 0 0)"/><rect style="fill:#9e9ebd;stroke:#9e9ebd;stroke-width:.447278;stroke-linejoin:round" width="33.7" height="15.268" x="22.01" y="149.988" rx=".803" ry=".341" transform="matrix(.96593 -.25882 .72785 .68574 0 0)"/><rect style="fill:#9e9ebd;stroke:#9e9ebd;stroke-width:.447278;stroke-linejoin:round" width="33.7" height="15.268" x="7.136" y="169.727" rx=".803" ry=".341" transform="matrix(.96593 -.25882 .72785 .68574 0 0)"/><rect style="fill:#9e9ebd;stroke:#9e9ebd;stroke-width:.447278;stroke-linejoin:round" width="33.7" height="15.268" x="109.1" y="102.875" rx=".803" ry=".341" transform="matrix(.96593 -.25882 .72785 .68574 0 0)"/><rect style="fill:#9e9ebd;stroke:#9e9ebd;stroke-width:.447278;stroke-linejoin:round" width="33.7" height="15.268" x="93.695" y="123.319" rx=".803" ry=".341" transform="matrix(.96593 -.25882 .72785 .68574 0 0)"/><rect style="fill:#9e9ebd;stroke:#9e9ebd;stroke-width:.447278;stroke-linejoin:round" width="33.7" height="15.268" x="78.29" y="143.764" rx=".803" ry=".341" transform="matrix(.96593 -.25882 .72785 .68574 0 0)"/><rect style="fill:#9e9ebd;stroke:#9e9ebd;stroke-width:.447278;stroke-linejoin:round" width="33.7" height="15.268" x="62.176" y="165.148" rx=".803" ry=".341" transform="matrix(.96593 -.25882 .72785 .68574 0 0)"/><rect style="fill:#9e9ebd;stroke:#9e9ebd;stroke-width:.447278;stroke-linejoin:round" width="33.7" height="15.268" x="47.302" y="184.887" rx=".803" ry=".341" transform="matrix(.96593 -.25882 .72785 .68574 0 0)"/><rect style="fill:#9e9ebd;stroke:#9e9ebd;stroke-width:.447278;stroke-linejoin:round" width="33.7" height="15.268" x="149.564" y="118.148" rx=".803" ry=".341" transform="matrix(.96593 -.25882 .72785 .68574 0 0)"/><rect style="fill:#9e9ebd;stroke:#9e9ebd;stroke-width:.447278;stroke-linejoin:round" width="33.7" height="15.268" x="134.159" y="138.592" rx=".803" ry=".341" transform="matrix(.96593 -.25882 .72785 .68574 0 0)"/><rect style="fill:#9e9ebd;stroke:#9e9ebd;stroke-width:.447278;stroke-linejoin:round" width="33.7" height="15.268" x="118.754" y="159.036" rx=".803" ry=".341" transform="matrix(.96593 -.25882 .72785 .68574 0 0)"/><rect style="fill:#9e9ebd;stroke:#9e9ebd;stroke-width:.447278;stroke-linejoin:round" width="33.7" height="15.268" x="102.64" y="180.42" rx=".803" ry=".341" transform="matrix(.96593 -.25882 .72785 .68574 0 0)"/><rect style="fill:#9e9ebd;stroke:#9e9ebd;stroke-width:.447278;stroke-linejoin:round" width="33.7" height="15.268" x="87.766" y="200.16" rx=".803" ry=".341" transform="matrix(.96593 -.25882 .72785 .68574 0 0)"/><path style="fill:none;stroke:#9e9ebd;stroke-width:4;stroke-linecap:butt;stroke-linejoin:miter;stroke-miterlimit:4;stroke-dasharray:none;stroke-opacity:1" d="M58.886 33.586h204.128l11.112 10.47v80.959l-236.68-.004H26.235V33.108l32.652.478"/><path style="fill:none;stroke:#9e9ebd;stroke-width:2;stroke-linecap:butt;stroke-linejoin:miter;stroke-miterlimit:4;stroke-dasharray:none;stroke-opacity:1" d="m70.21 123.529-.211-79.473V33.907"/><path style="fill:none;stroke:#9e9ebd;stroke-width:2.00931;stroke-linecap:butt;stroke-linejoin:miter;stroke-miterlimit:4;stroke-dasharray:none;stroke-opacity:1" d="m37.447 125.012-.211-80.228V34.54"/><path style="fill:none;stroke:#9e9ebd;stroke-width:2;stroke-linecap:butt;stroke-linejoin:miter;stroke-miterlimit:4;stroke-dasharray:none;stroke-opacity:1" d="m70.21 123.529-.211-79.473V33.907M59.097 123.207l-.21-79.473V33.586"/><path style="fill:none;stroke:#9e9ebd;stroke-width:2.00931;stroke-linecap:butt;stroke-linejoin:miter;stroke-miterlimit:4;stroke-dasharray:none;stroke-opacity:1" d="m90.6 125.012-.21-80.228V34.54"/><path style="fill:none;stroke:#9e9ebd;stroke-width:2;stroke-linecap:butt;stroke-linejoin:miter;stroke-miterlimit:4;stroke-dasharray:none;stroke-opacity:1" d="m123.364 123.529-.211-79.473V33.907M112.252 123.207l-.211-79.473V33.586"/><path style="fill:none;stroke:#9e9ebd;stroke-width:2.00931;stroke-linecap:butt;stroke-linejoin:miter;stroke-miterlimit:4;stroke-dasharray:none;stroke-opacity:1" d="m80.57 124.116-.211-80.228V33.644M90.6 125.012l-.21-80.228V34.54"/><path style="fill:none;stroke:#9e9ebd;stroke-width:2;stroke-linecap:butt;stroke-linejoin:miter;stroke-miterlimit:4;stroke-dasharray:none;stroke-opacity:1" d="m123.364 123.529-.211-79.473V33.907M112.252 123.207l-.211-79.473V33.586"/><path style="fill:none;stroke:#9e9ebd;stroke-width:2.00931;stroke-linecap:butt;stroke-linejoin:miter;stroke-miterlimit:4;stroke-dasharray:none;stroke-opacity:1" d="m80.57 124.116-.211-80.228V33.644M141.54 125.012l-.21-80.228V34.54"/><path style="fill:none;stroke:#9e9ebd;stroke-width:2;stroke-linecap:butt;stroke-linejoin:miter;stroke-miterlimit:4;stroke-dasharray:none;stroke-opacity:1" d="m174.304 123.529-.211-79.473V33.907M163.191 123.207l-.21-79.473V33.586"/><path style="fill:none;stroke:#9e9ebd;stroke-width:2.00931;stroke-linecap:butt;stroke-linejoin:miter;stroke-miterlimit:4;stroke-dasharray:none;stroke-opacity:1" d="m131.51 124.116-.211-80.228V33.644M191.373 125.012l-.211-80.228V34.54"/><path style="fill:none;stroke:#9e9ebd;stroke-width:2;stroke-linecap:butt;stroke-linejoin:miter;stroke-miterlimit:4;stroke-dasharray:none;stroke-opacity:1" d="m224.136 123.529-.211-79.473V33.907M213.023 123.207l-.21-79.473V33.586"/><path style="fill:none;stroke:#9e9ebd;stroke-width:2.00931;stroke-linecap:butt;stroke-linejoin:miter;stroke-miterlimit:4;stroke-dasharray:none;stroke-opacity:1" d="m181.342 124.116-.211-80.228V33.644M241.574 125.012l-.211-80.228V34.54"/><path style="fill:none;stroke:#9e9ebd;stroke-width:2;stroke-linecap:butt;stroke-linejoin:miter;stroke-miterlimit:4;stroke-dasharray:none;stroke-opacity:1" d="m263.225 123.207-.211-79.473V33.586"/><path style="fill:none;stroke:#9e9ebd;stroke-width:2.00931;stroke-linecap:butt;stroke-linejoin:miter;stroke-miterlimit:4;stroke-dasharray:none;stroke-opacity:1" d="m231.543 124.116-.211-80.228V33.644"/></g></svg>