<svg width="1112.767" height="837.237" viewBox="0 0 294.42 221.519" xmlns="http://www.w3.org/2000/svg"><g transform="translate(4.227 3.919)"><path style="fill:#c8c8d9;fill-opacity:1;stroke:#9e9ebd;stroke-width:.964;stroke-linejoin:round;stroke-miterlimit:4;stroke-dasharray:none" d="m279.826 59.85-4.044 8.508-203.87-54.626c-.943-.253-1.93.013-2.211.596L6.193 145.648l4.892 11.744 203.88 54.63c.943.252 1.93-.013 2.211-.595L284.642 71.92c.116-.24.088-.492-.043-.726l.005-.004z"/><path style="fill:#c8c8d9;fill-opacity:1;stroke:#9e9ebd;stroke-width:.963983" d="M67.02 1.989c-.943-.253-1.93.013-2.211.595L1.3 133.906l4.892 11.743 203.88 54.63c.943.252 1.93-.013 2.211-.595L279.75 60.178c.282-.583-.25-1.256-1.194-1.508z"/><path style="fill:#6838a0;stroke:#9e9ebd;stroke-width:1.2" d="M36.391 158.093a6.78 6.78 0 0 1-6.78 6.78 6.78 6.78 0 0 1-6.78-6.78 6.78 6.78 0 0 1 6.78-6.78 6.78 6.78 0 0 1 6.78 6.78zM53.558 158.093a6.78 6.78 0 0 1-6.78 6.78 6.78 6.78 0 0 1-6.78-6.78 6.78 6.78 0 0 1 6.78-6.78 6.78 6.78 0 0 1 6.78 6.78zM70.724 158.093a6.78 6.78 0 0 1-6.78 6.78 6.78 6.78 0 0 1-6.78-6.78 6.78 6.78 0 0 1 6.78-6.78 6.78 6.78 0 0 1 6.78 6.78zM87.89 158.093a6.78 6.78 0 0 1-6.78 6.78 6.78 6.78 0 0 1-6.779-6.78 6.78 6.78 0 0 1 6.78-6.78 6.78 6.78 0 0 1 6.78 6.78zM105.057 158.093a6.78 6.78 0 0 1-6.78 6.78 6.78 6.78 0 0 1-6.78-6.78 6.78 6.78 0 0 1 6.78-6.78 6.78 6.78 0 0 1 6.78 6.78zM122.224 158.093a6.78 6.78 0 0 1-6.78 6.78 6.78 6.78 0 0 1-6.78-6.78 6.78 6.78 0 0 1 6.78-6.78 6.78 6.78 0 0 1 6.78 6.78zM139.39 158.093a6.78 6.78 0 0 1-6.78 6.78 6.78 6.78 0 0 1-6.78-6.78 6.78 6.78 0 0 1 6.78-6.78 6.78 6.78 0 0 1 6.78 6.78zM156.557 158.093a6.78 6.78 0 0 1-6.78 6.78 6.78 6.78 0 0 1-6.78-6.78 6.78 6.78 0 0 1 6.78-6.78 6.78 6.78 0 0 1 6.78 6.78zM173.723 158.093a6.78 6.78 0 0 1-6.78 6.78 6.78 6.78 0 0 1-6.78-6.78 6.78 6.78 0 0 1 6.78-6.78 6.78 6.78 0 0 1 6.78 6.78zM190.89 158.093a6.78 6.78 0 0 1-6.78 6.78 6.78 6.78 0 0 1-6.78-6.78 6.78 6.78 0 0 1 6.78-6.78 6.78 6.78 0 0 1 6.78 6.78zM208.056 158.093a6.78 6.78 0 0 1-6.78 6.78 6.78 6.78 0 0 1-6.78-6.78 6.78 6.78 0 0 1 6.78-6.78 6.78 6.78 0 0 1 6.78 6.78zM225.223 158.093a6.78 6.78 0 0 1-6.78 6.78 6.78 6.78 0 0 1-6.78-6.78 6.78 6.78 0 0 1 6.78-6.78 6.78 6.78 0 0 1 6.78 6.78z" transform="rotate(15 97.617 250.188) skewX(-10.808)"/><g aria-label="A B C D E F G H" style="font-size:14.1476px;line-height:1.25;font-family:Arial;-inkscape-font-specification:Arial;letter-spacing:0;fill:#26143a;stroke-width:.353691"><path d="m58.96 20.847 8.245-8.275 1.394.373-.485 10.355-1.474-.395.218-3.117-4.09-1.096-2.434 2.523zm4.665-3.055 3.317.888.222-2.844q.1-1.296.237-2.11-.619.842-1.385 1.631zM52.142 37.328l4.489-9.281 3.67.983q1.12.3 1.657.766.546.46.642 1.152.105.686-.204 1.325-.288.595-.883 1.03-.594.434-1.437.573.768.485.954 1.207.192.723-.2 1.534-.315.652-.881 1.137-.557.48-1.13.67-.575.189-1.298.174-.714-.02-1.649-.27zm3.897-5.034 2.116.566q.86.231 1.286.224.561-.007.964-.264.41-.255.646-.743.223-.462.158-.873-.062-.417-.434-.66-.37-.249-1.424-.531l-1.955-.524zm-2.072 4.286 2.435.653q.627.168.902.191.484.044.87-.053t.742-.38q.359-.29.573-.734.251-.519.155-.974-.094-.46-.52-.747-.418-.29-1.352-.54l-2.262-.607zM52.911 52.167l1.145.657q-1.14 1.404-2.586 1.917-1.437.51-2.965.1-1.581-.424-2.282-1.298-.69-.879-.65-2.177.046-1.296.69-2.626.7-1.45 1.801-2.37 1.111-.926 2.455-1.195 1.353-.274 2.648.073 1.468.393 2.126 1.37.658.978.43 2.369l-1.413-.057q.15-1.104-.274-1.74-.423-.635-1.404-.898-1.128-.302-2.137.007-1.002.31-1.728 1.096-.723.778-1.167 1.697-.573 1.183-.641 2.166-.059.979.497 1.621.556.643 1.45.882 1.088.292 2.13-.101 1.042-.393 1.875-1.493zM36.52 69.759l4.488-9.282 3.37.903q1.141.306 1.677.6.752.409 1.113 1.049.474.828.386 1.899-.078 1.066-.678 2.307-.512 1.057-1.167 1.804-.655.747-1.322 1.176-.664.423-1.302.602-.627.176-1.39.15-.758-.024-1.645-.262zm1.824-.748 2.088.56q.968.258 1.598.234.636-.022 1.113-.245.672-.314 1.28-.98.62-.671 1.127-1.722.705-1.456.574-2.37-.12-.92-.713-1.38-.428-.328-1.583-.638l-2.055-.55zM28.708 85.974l4.489-9.281 7.073 1.895-.53 1.095-5.778-1.548-1.375 2.843 5.412 1.45-.527 1.089-5.412-1.45-1.527 3.159 6.005 1.609-.53 1.095zM20.91 102.193l4.489-9.281 6.6 1.768-.53 1.095-5.305-1.421-1.39 2.874 4.59 1.23-.53 1.096-4.59-1.23-2.04 4.216zM19.344 115.97l.526-1.09 4.147 1.104-1.666 3.445q-1.303.466-2.495.561-1.188.09-2.256-.197-1.441-.386-2.34-1.285-.89-.903-.955-2.172-.065-1.27.597-2.637.655-1.355 1.815-2.367 1.17-1.017 2.567-1.286 1.396-.27 2.857.122 1.061.284 1.756.842.705.554.91 1.267.206.713.006 1.718l-1.314-.009q.122-.768-.009-1.26-.13-.494-.622-.897-.487-.41-1.228-.608-.888-.238-1.66-.152-.77.08-1.372.39-.596.313-1.058.754-.79.761-1.277 1.768-.6 1.24-.557 2.196.05.958.714 1.593.665.636 1.632.896.841.225 1.789.135.95-.095 1.533-.333l.836-1.728zM5.208 134.602l4.488-9.281 1.295.347-1.844 3.811 5.085 1.362 1.843-3.811 1.295.347-4.489 9.281-1.294-.346 2.115-4.375-5.084-1.363-2.116 4.375z"/></g><path style="fill:#6838a0;stroke:#9e9ebd;stroke-width:1.2" d="M36.391 158.093a6.78 6.78 0 0 1-6.78 6.78 6.78 6.78 0 0 1-6.78-6.78 6.78 6.78 0 0 1 6.78-6.78 6.78 6.78 0 0 1 6.78 6.78zM53.558 158.093a6.78 6.78 0 0 1-6.78 6.78 6.78 6.78 0 0 1-6.78-6.78 6.78 6.78 0 0 1 6.78-6.78 6.78 6.78 0 0 1 6.78 6.78zM70.724 158.093a6.78 6.78 0 0 1-6.78 6.78 6.78 6.78 0 0 1-6.78-6.78 6.78 6.78 0 0 1 6.78-6.78 6.78 6.78 0 0 1 6.78 6.78zM87.89 158.093a6.78 6.78 0 0 1-6.78 6.78 6.78 6.78 0 0 1-6.779-6.78 6.78 6.78 0 0 1 6.78-6.78 6.78 6.78 0 0 1 6.78 6.78zM105.057 158.093a6.78 6.78 0 0 1-6.78 6.78 6.78 6.78 0 0 1-6.78-6.78 6.78 6.78 0 0 1 6.78-6.78 6.78 6.78 0 0 1 6.78 6.78zM122.224 158.093a6.78 6.78 0 0 1-6.78 6.78 6.78 6.78 0 0 1-6.78-6.78 6.78 6.78 0 0 1 6.78-6.78 6.78 6.78 0 0 1 6.78 6.78zM139.39 158.093a6.78 6.78 0 0 1-6.78 6.78 6.78 6.78 0 0 1-6.78-6.78 6.78 6.78 0 0 1 6.78-6.78 6.78 6.78 0 0 1 6.78 6.78zM156.557 158.093a6.78 6.78 0 0 1-6.78 6.78 6.78 6.78 0 0 1-6.78-6.78 6.78 6.78 0 0 1 6.78-6.78 6.78 6.78 0 0 1 6.78 6.78zM173.723 158.093a6.78 6.78 0 0 1-6.78 6.78 6.78 6.78 0 0 1-6.78-6.78 6.78 6.78 0 0 1 6.78-6.78 6.78 6.78 0 0 1 6.78 6.78zM190.89 158.093a6.78 6.78 0 0 1-6.78 6.78 6.78 6.78 0 0 1-6.78-6.78 6.78 6.78 0 0 1 6.78-6.78 6.78 6.78 0 0 1 6.78 6.78zM208.056 158.093a6.78 6.78 0 0 1-6.78 6.78 6.78 6.78 0 0 1-6.78-6.78 6.78 6.78 0 0 1 6.78-6.78 6.78 6.78 0 0 1 6.78 6.78zM225.223 158.093a6.78 6.78 0 0 1-6.78 6.78 6.78 6.78 0 0 1-6.78-6.78 6.78 6.78 0 0 1 6.78-6.78 6.78 6.78 0 0 1 6.78 6.78z" transform="rotate(15 162.966 271.81) skewX(-10.808)"/><g><path style="fill:#6838a0;stroke:#9e9ebd;stroke-width:1.2" d="M36.391 158.093a6.78 6.78 0 0 1-6.78 6.78 6.78 6.78 0 0 1-6.78-6.78 6.78 6.78 0 0 1 6.78-6.78 6.78 6.78 0 0 1 6.78 6.78zM53.558 158.093a6.78 6.78 0 0 1-6.78 6.78 6.78 6.78 0 0 1-6.78-6.78 6.78 6.78 0 0 1 6.78-6.78 6.78 6.78 0 0 1 6.78 6.78zM70.724 158.093a6.78 6.78 0 0 1-6.78 6.78 6.78 6.78 0 0 1-6.78-6.78 6.78 6.78 0 0 1 6.78-6.78 6.78 6.78 0 0 1 6.78 6.78zM87.89 158.093a6.78 6.78 0 0 1-6.78 6.78 6.78 6.78 0 0 1-6.779-6.78 6.78 6.78 0 0 1 6.78-6.78 6.78 6.78 0 0 1 6.78 6.78zM105.057 158.093a6.78 6.78 0 0 1-6.78 6.78 6.78 6.78 0 0 1-6.78-6.78 6.78 6.78 0 0 1 6.78-6.78 6.78 6.78 0 0 1 6.78 6.78zM122.224 158.093a6.78 6.78 0 0 1-6.78 6.78 6.78 6.78 0 0 1-6.78-6.78 6.78 6.78 0 0 1 6.78-6.78 6.78 6.78 0 0 1 6.78 6.78zM139.39 158.093a6.78 6.78 0 0 1-6.78 6.78 6.78 6.78 0 0 1-6.78-6.78 6.78 6.78 0 0 1 6.78-6.78 6.78 6.78 0 0 1 6.78 6.78zM156.557 158.093a6.78 6.78 0 0 1-6.78 6.78 6.78 6.78 0 0 1-6.78-6.78 6.78 6.78 0 0 1 6.78-6.78 6.78 6.78 0 0 1 6.78 6.78zM173.723 158.093a6.78 6.78 0 0 1-6.78 6.78 6.78 6.78 0 0 1-6.78-6.78 6.78 6.78 0 0 1 6.78-6.78 6.78 6.78 0 0 1 6.78 6.78zM190.89 158.093a6.78 6.78 0 0 1-6.78 6.78 6.78 6.78 0 0 1-6.78-6.78 6.78 6.78 0 0 1 6.78-6.78 6.78 6.78 0 0 1 6.78 6.78zM208.056 158.093a6.78 6.78 0 0 1-6.78 6.78 6.78 6.78 0 0 1-6.78-6.78 6.78 6.78 0 0 1 6.78-6.78 6.78 6.78 0 0 1 6.78 6.78zM225.223 158.093a6.78 6.78 0 0 1-6.78 6.78 6.78 6.78 0 0 1-6.78-6.78 6.78 6.78 0 0 1 6.78-6.78 6.78 6.78 0 0 1 6.78 6.78z" transform="rotate(15 228.315 293.431) skewX(-10.808)"/></g><g><path style="fill:#6838a0;stroke:#9e9ebd;stroke-width:1.2" d="M36.391 158.093a6.78 6.78 0 0 1-6.78 6.78 6.78 6.78 0 0 1-6.78-6.78 6.78 6.78 0 0 1 6.78-6.78 6.78 6.78 0 0 1 6.78 6.78zM53.558 158.093a6.78 6.78 0 0 1-6.78 6.78 6.78 6.78 0 0 1-6.78-6.78 6.78 6.78 0 0 1 6.78-6.78 6.78 6.78 0 0 1 6.78 6.78zM70.724 158.093a6.78 6.78 0 0 1-6.78 6.78 6.78 6.78 0 0 1-6.78-6.78 6.78 6.78 0 0 1 6.78-6.78 6.78 6.78 0 0 1 6.78 6.78zM87.89 158.093a6.78 6.78 0 0 1-6.78 6.78 6.78 6.78 0 0 1-6.779-6.78 6.78 6.78 0 0 1 6.78-6.78 6.78 6.78 0 0 1 6.78 6.78zM105.057 158.093a6.78 6.78 0 0 1-6.78 6.78 6.78 6.78 0 0 1-6.78-6.78 6.78 6.78 0 0 1 6.78-6.78 6.78 6.78 0 0 1 6.78 6.78zM122.224 158.093a6.78 6.78 0 0 1-6.78 6.78 6.78 6.78 0 0 1-6.78-6.78 6.78 6.78 0 0 1 6.78-6.78 6.78 6.78 0 0 1 6.78 6.78zM139.39 158.093a6.78 6.78 0 0 1-6.78 6.78 6.78 6.78 0 0 1-6.78-6.78 6.78 6.78 0 0 1 6.78-6.78 6.78 6.78 0 0 1 6.78 6.78zM156.557 158.093a6.78 6.78 0 0 1-6.78 6.78 6.78 6.78 0 0 1-6.78-6.78 6.78 6.78 0 0 1 6.78-6.78 6.78 6.78 0 0 1 6.78 6.78zM173.723 158.093a6.78 6.78 0 0 1-6.78 6.78 6.78 6.78 0 0 1-6.78-6.78 6.78 6.78 0 0 1 6.78-6.78 6.78 6.78 0 0 1 6.78 6.78zM190.89 158.093a6.78 6.78 0 0 1-6.78 6.78 6.78 6.78 0 0 1-6.78-6.78 6.78 6.78 0 0 1 6.78-6.78 6.78 6.78 0 0 1 6.78 6.78zM208.056 158.093a6.78 6.78 0 0 1-6.78 6.78 6.78 6.78 0 0 1-6.78-6.78 6.78 6.78 0 0 1 6.78-6.78 6.78 6.78 0 0 1 6.78 6.78zM225.223 158.093a6.78 6.78 0 0 1-6.78 6.78 6.78 6.78 0 0 1-6.78-6.78 6.78 6.78 0 0 1 6.78-6.78 6.78 6.78 0 0 1 6.78 6.78z" transform="rotate(15 293.664 315.053) skewX(-10.808)"/></g><g><path style="fill:#6838a0;stroke:#9e9ebd;stroke-width:1.2" d="M36.391 158.093a6.78 6.78 0 0 1-6.78 6.78 6.78 6.78 0 0 1-6.78-6.78 6.78 6.78 0 0 1 6.78-6.78 6.78 6.78 0 0 1 6.78 6.78zM53.558 158.093a6.78 6.78 0 0 1-6.78 6.78 6.78 6.78 0 0 1-6.78-6.78 6.78 6.78 0 0 1 6.78-6.78 6.78 6.78 0 0 1 6.78 6.78zM70.724 158.093a6.78 6.78 0 0 1-6.78 6.78 6.78 6.78 0 0 1-6.78-6.78 6.78 6.78 0 0 1 6.78-6.78 6.78 6.78 0 0 1 6.78 6.78zM87.89 158.093a6.78 6.78 0 0 1-6.78 6.78 6.78 6.78 0 0 1-6.779-6.78 6.78 6.78 0 0 1 6.78-6.78 6.78 6.78 0 0 1 6.78 6.78zM105.057 158.093a6.78 6.78 0 0 1-6.78 6.78 6.78 6.78 0 0 1-6.78-6.78 6.78 6.78 0 0 1 6.78-6.78 6.78 6.78 0 0 1 6.78 6.78zM122.224 158.093a6.78 6.78 0 0 1-6.78 6.78 6.78 6.78 0 0 1-6.78-6.78 6.78 6.78 0 0 1 6.78-6.78 6.78 6.78 0 0 1 6.78 6.78zM139.39 158.093a6.78 6.78 0 0 1-6.78 6.78 6.78 6.78 0 0 1-6.78-6.78 6.78 6.78 0 0 1 6.78-6.78 6.78 6.78 0 0 1 6.78 6.78zM156.557 158.093a6.78 6.78 0 0 1-6.78 6.78 6.78 6.78 0 0 1-6.78-6.78 6.78 6.78 0 0 1 6.78-6.78 6.78 6.78 0 0 1 6.78 6.78zM173.723 158.093a6.78 6.78 0 0 1-6.78 6.78 6.78 6.78 0 0 1-6.78-6.78 6.78 6.78 0 0 1 6.78-6.78 6.78 6.78 0 0 1 6.78 6.78zM190.89 158.093a6.78 6.78 0 0 1-6.78 6.78 6.78 6.78 0 0 1-6.78-6.78 6.78 6.78 0 0 1 6.78-6.78 6.78 6.78 0 0 1 6.78 6.78zM208.056 158.093a6.78 6.78 0 0 1-6.78 6.78 6.78 6.78 0 0 1-6.78-6.78 6.78 6.78 0 0 1 6.78-6.78 6.78 6.78 0 0 1 6.78 6.78zM225.223 158.093a6.78 6.78 0 0 1-6.78 6.78 6.78 6.78 0 0 1-6.78-6.78 6.78 6.78 0 0 1 6.78-6.78 6.78 6.78 0 0 1 6.78 6.78z" transform="rotate(15 359.013 336.675) skewX(-10.808)"/></g><g><path style="fill:#6838a0;stroke:#9e9ebd;stroke-width:1.2" d="M36.391 158.093a6.78 6.78 0 0 1-6.78 6.78 6.78 6.78 0 0 1-6.78-6.78 6.78 6.78 0 0 1 6.78-6.78 6.78 6.78 0 0 1 6.78 6.78zM53.558 158.093a6.78 6.78 0 0 1-6.78 6.78 6.78 6.78 0 0 1-6.78-6.78 6.78 6.78 0 0 1 6.78-6.78 6.78 6.78 0 0 1 6.78 6.78zM70.724 158.093a6.78 6.78 0 0 1-6.78 6.78 6.78 6.78 0 0 1-6.78-6.78 6.78 6.78 0 0 1 6.78-6.78 6.78 6.78 0 0 1 6.78 6.78zM87.89 158.093a6.78 6.78 0 0 1-6.78 6.78 6.78 6.78 0 0 1-6.779-6.78 6.78 6.78 0 0 1 6.78-6.78 6.78 6.78 0 0 1 6.78 6.78zM105.057 158.093a6.78 6.78 0 0 1-6.78 6.78 6.78 6.78 0 0 1-6.78-6.78 6.78 6.78 0 0 1 6.78-6.78 6.78 6.78 0 0 1 6.78 6.78zM122.224 158.093a6.78 6.78 0 0 1-6.78 6.78 6.78 6.78 0 0 1-6.78-6.78 6.78 6.78 0 0 1 6.78-6.78 6.78 6.78 0 0 1 6.78 6.78zM139.39 158.093a6.78 6.78 0 0 1-6.78 6.78 6.78 6.78 0 0 1-6.78-6.78 6.78 6.78 0 0 1 6.78-6.78 6.78 6.78 0 0 1 6.78 6.78zM156.557 158.093a6.78 6.78 0 0 1-6.78 6.78 6.78 6.78 0 0 1-6.78-6.78 6.78 6.78 0 0 1 6.78-6.78 6.78 6.78 0 0 1 6.78 6.78zM173.723 158.093a6.78 6.78 0 0 1-6.78 6.78 6.78 6.78 0 0 1-6.78-6.78 6.78 6.78 0 0 1 6.78-6.78 6.78 6.78 0 0 1 6.78 6.78zM190.89 158.093a6.78 6.78 0 0 1-6.78 6.78 6.78 6.78 0 0 1-6.78-6.78 6.78 6.78 0 0 1 6.78-6.78 6.78 6.78 0 0 1 6.78 6.78zM208.056 158.093a6.78 6.78 0 0 1-6.78 6.78 6.78 6.78 0 0 1-6.78-6.78 6.78 6.78 0 0 1 6.78-6.78 6.78 6.78 0 0 1 6.78 6.78zM225.223 158.093a6.78 6.78 0 0 1-6.78 6.78 6.78 6.78 0 0 1-6.78-6.78 6.78 6.78 0 0 1 6.78-6.78 6.78 6.78 0 0 1 6.78 6.78z" transform="rotate(15 424.361 358.297) skewX(-10.808)"/></g><g><path style="fill:#6838a0;stroke:#9e9ebd;stroke-width:1.2" d="M36.391 158.093a6.78 6.78 0 0 1-6.78 6.78 6.78 6.78 0 0 1-6.78-6.78 6.78 6.78 0 0 1 6.78-6.78 6.78 6.78 0 0 1 6.78 6.78zM53.558 158.093a6.78 6.78 0 0 1-6.78 6.78 6.78 6.78 0 0 1-6.78-6.78 6.78 6.78 0 0 1 6.78-6.78 6.78 6.78 0 0 1 6.78 6.78zM70.724 158.093a6.78 6.78 0 0 1-6.78 6.78 6.78 6.78 0 0 1-6.78-6.78 6.78 6.78 0 0 1 6.78-6.78 6.78 6.78 0 0 1 6.78 6.78zM87.89 158.093a6.78 6.78 0 0 1-6.78 6.78 6.78 6.78 0 0 1-6.779-6.78 6.78 6.78 0 0 1 6.78-6.78 6.78 6.78 0 0 1 6.78 6.78zM105.057 158.093a6.78 6.78 0 0 1-6.78 6.78 6.78 6.78 0 0 1-6.78-6.78 6.78 6.78 0 0 1 6.78-6.78 6.78 6.78 0 0 1 6.78 6.78zM122.224 158.093a6.78 6.78 0 0 1-6.78 6.78 6.78 6.78 0 0 1-6.78-6.78 6.78 6.78 0 0 1 6.78-6.78 6.78 6.78 0 0 1 6.78 6.78zM139.39 158.093a6.78 6.78 0 0 1-6.78 6.78 6.78 6.78 0 0 1-6.78-6.78 6.78 6.78 0 0 1 6.78-6.78 6.78 6.78 0 0 1 6.78 6.78zM156.557 158.093a6.78 6.78 0 0 1-6.78 6.78 6.78 6.78 0 0 1-6.78-6.78 6.78 6.78 0 0 1 6.78-6.78 6.78 6.78 0 0 1 6.78 6.78zM173.723 158.093a6.78 6.78 0 0 1-6.78 6.78 6.78 6.78 0 0 1-6.78-6.78 6.78 6.78 0 0 1 6.78-6.78 6.78 6.78 0 0 1 6.78 6.78zM190.89 158.093a6.78 6.78 0 0 1-6.78 6.78 6.78 6.78 0 0 1-6.78-6.78 6.78 6.78 0 0 1 6.78-6.78 6.78 6.78 0 0 1 6.78 6.78zM208.056 158.093a6.78 6.78 0 0 1-6.78 6.78 6.78 6.78 0 0 1-6.78-6.78 6.78 6.78 0 0 1 6.78-6.78 6.78 6.78 0 0 1 6.78 6.78zM225.223 158.093a6.78 6.78 0 0 1-6.78 6.78 6.78 6.78 0 0 1-6.78-6.78 6.78 6.78 0 0 1 6.78-6.78 6.78 6.78 0 0 1 6.78 6.78z" transform="rotate(15 489.71 379.92) skewX(-10.808)"/></g><g><path style="fill:#6838a0;stroke:#9e9ebd;stroke-width:1.2" d="M36.391 158.093a6.78 6.78 0 0 1-6.78 6.78 6.78 6.78 0 0 1-6.78-6.78 6.78 6.78 0 0 1 6.78-6.78 6.78 6.78 0 0 1 6.78 6.78zM53.558 158.093a6.78 6.78 0 0 1-6.78 6.78 6.78 6.78 0 0 1-6.78-6.78 6.78 6.78 0 0 1 6.78-6.78 6.78 6.78 0 0 1 6.78 6.78zM70.724 158.093a6.78 6.78 0 0 1-6.78 6.78 6.78 6.78 0 0 1-6.78-6.78 6.78 6.78 0 0 1 6.78-6.78 6.78 6.78 0 0 1 6.78 6.78zM87.89 158.093a6.78 6.78 0 0 1-6.78 6.78 6.78 6.78 0 0 1-6.779-6.78 6.78 6.78 0 0 1 6.78-6.78 6.78 6.78 0 0 1 6.78 6.78zM105.057 158.093a6.78 6.78 0 0 1-6.78 6.78 6.78 6.78 0 0 1-6.78-6.78 6.78 6.78 0 0 1 6.78-6.78 6.78 6.78 0 0 1 6.78 6.78zM122.224 158.093a6.78 6.78 0 0 1-6.78 6.78 6.78 6.78 0 0 1-6.78-6.78 6.78 6.78 0 0 1 6.78-6.78 6.78 6.78 0 0 1 6.78 6.78zM139.39 158.093a6.78 6.78 0 0 1-6.78 6.78 6.78 6.78 0 0 1-6.78-6.78 6.78 6.78 0 0 1 6.78-6.78 6.78 6.78 0 0 1 6.78 6.78zM156.557 158.093a6.78 6.78 0 0 1-6.78 6.78 6.78 6.78 0 0 1-6.78-6.78 6.78 6.78 0 0 1 6.78-6.78 6.78 6.78 0 0 1 6.78 6.78zM173.723 158.093a6.78 6.78 0 0 1-6.78 6.78 6.78 6.78 0 0 1-6.78-6.78 6.78 6.78 0 0 1 6.78-6.78 6.78 6.78 0 0 1 6.78 6.78zM190.89 158.093a6.78 6.78 0 0 1-6.78 6.78 6.78 6.78 0 0 1-6.78-6.78 6.78 6.78 0 0 1 6.78-6.78 6.78 6.78 0 0 1 6.78 6.78zM208.056 158.093a6.78 6.78 0 0 1-6.78 6.78 6.78 6.78 0 0 1-6.78-6.78 6.78 6.78 0 0 1 6.78-6.78 6.78 6.78 0 0 1 6.78 6.78zM225.223 158.093a6.78 6.78 0 0 1-6.78 6.78 6.78 6.78 0 0 1-6.78-6.78 6.78 6.78 0 0 1 6.78-6.78 6.78 6.78 0 0 1 6.78 6.78z" transform="rotate(15 555.06 401.541) skewX(-10.808)"/></g><text xml:space="preserve" style="font-size:5.59374px;line-height:1.25;font-family:Arial;-inkscape-font-specification:Arial;letter-spacing:0;stroke-width:.262206" x="83.379" y="-9.277" transform="matrix(.95725 .2565 -.4477 .9247 0 0)"><tspan style="stroke-width:.262206" x="83.379" y="-9.277">1</tspan></text><text xml:space="preserve" style="font-size:5.59374px;line-height:1.25;font-family:Arial;-inkscape-font-specification:Arial;letter-spacing:0;stroke-width:.262206" x="100.192" y="-9.277" transform="matrix(.95725 .2565 -.4477 .9247 0 0)"><tspan style="stroke-width:.262206" x="100.192" y="-9.277">2</tspan></text><text xml:space="preserve" style="font-size:5.59374px;line-height:1.25;font-family:Arial;-inkscape-font-specification:Arial;letter-spacing:0;stroke-width:.262206" x="117.697" y="-9.313" transform="matrix(.95725 .2565 -.4477 .9247 0 0)"><tspan style="stroke-width:.262206" x="117.697" y="-9.313">3</tspan></text><text xml:space="preserve" style="font-size:5.59374px;line-height:1.25;font-family:Arial;-inkscape-font-specification:Arial;letter-spacing:0;stroke-width:.262206" x="135.259" y="-9.285" transform="matrix(.95725 .2565 -.4477 .9247 0 0)"><tspan style="stroke-width:.262206" x="135.259" y="-9.285">4</tspan></text><text xml:space="preserve" style="font-size:5.59374px;line-height:1.25;font-family:Arial;-inkscape-font-specification:Arial;letter-spacing:0;stroke-width:.262206" x="152.758" y="-9.347" transform="matrix(.95725 .2565 -.4477 .9247 0 0)"><tspan style="stroke-width:.262206" x="152.758" y="-9.347">5</tspan></text><text xml:space="preserve" style="font-size:5.59374px;line-height:1.25;font-family:Arial;-inkscape-font-specification:Arial;letter-spacing:0;stroke-width:.262206" x="170.336" y="-9.311" transform="matrix(.95725 .2565 -.4477 .9247 0 0)"><tspan style="stroke-width:.262206" x="170.336" y="-9.311">6</tspan></text><text xml:space="preserve" style="font-size:5.59374px;line-height:1.25;font-family:Arial;-inkscape-font-specification:Arial;letter-spacing:0;stroke-width:.262206" x="187.879" y="-9.311" transform="matrix(.95725 .2565 -.4477 .9247 0 0)"><tspan style="stroke-width:.262206" x="187.879" y="-9.311">7</tspan></text><text xml:space="preserve" style="font-size:5.59374px;line-height:1.25;font-family:Arial;-inkscape-font-specification:Arial;letter-spacing:0;stroke-width:.262206" x="205.417" y="-9.311" transform="matrix(.95725 .2565 -.4477 .9247 0 0)"><tspan style="stroke-width:.262206" x="205.417" y="-9.311">8</tspan></text><text xml:space="preserve" style="font-size:5.59374px;line-height:1.25;font-family:Arial;-inkscape-font-specification:Arial;letter-spacing:0;stroke-width:.262206" x="222.962" y="-9.311" transform="matrix(.95725 .2565 -.4477 .9247 0 0)"><tspan style="stroke-width:.262206" x="222.962" y="-9.311">9</tspan></text><text xml:space="preserve" style="font-size:5.59374px;line-height:1.25;font-family:Arial;-inkscape-font-specification:Arial;letter-spacing:0;stroke-width:.262206" x="237.416" y="-9.311" transform="matrix(.95725 .2565 -.4477 .9247 0 0)"><tspan style="stroke-width:.262206" x="237.416" y="-9.311">10</tspan></text><text xml:space="preserve" style="font-size:5.59374px;line-height:1.25;font-family:Arial;-inkscape-font-specification:Arial;letter-spacing:0;stroke-width:.262206" x="256.136" y="-9.277" transform="matrix(.95725 .2565 -.4477 .9247 0 0)"><tspan style="stroke-width:.262206" x="256.136" y="-9.277">11</tspan></text><text xml:space="preserve" style="font-size:5.59374px;line-height:1.25;font-family:Arial;-inkscape-font-specification:Arial;letter-spacing:0;stroke-width:.262206" x="272.534" y="-9.277" transform="matrix(.95725 .2565 -.4477 .9247 0 0)"><tspan style="stroke-width:.262206" x="272.534" y="-9.277">12</tspan></text><path style="fill:#9e9ebd;fill-opacity:1;stroke:#9e9ebd;stroke-width:.964;stroke-linecap:butt;stroke-linejoin:miter;stroke-miterlimit:4;stroke-dasharray:none;stroke-opacity:1" d="m211.38 200.306 5.131 11.669"/><circle style="fill:#74b771;fill-opacity:1;stroke:#2a8f28;stroke-width:5.33912;stroke-linejoin:round;stroke-miterlimit:4;stroke-dasharray:none;stroke-opacity:1" cx="53.993" cy="53.993" r="50.242"/><rect style="fill:#f2f2f2;fill-opacity:1;stroke:#f2f2f2;stroke-width:3.51338;stroke-linecap:round;stroke-linejoin:round;stroke-miterlimit:4;stroke-dasharray:none;stroke-opacity:1" width="15.953" height="73.063" x="46.016" y="17.461" rx=".854" ry="2.555"/><rect style="fill:#f2f2f2;fill-opacity:1;stroke:#f2f2f2;stroke-width:3.51338;stroke-linecap:round;stroke-linejoin:round;stroke-miterlimit:4;stroke-dasharray:none;stroke-opacity:1" width="16.197" height="71.962" x="45.894" y="-89.974" rx=".867" ry="2.516" transform="rotate(90)"/></g></svg>